M48
INCH
T1C0.0276
T2C0.0315
T3C0.0394
T4C0.0433
T5C0.0598
T6C0.1260
%
G90
G05
T1
X5.075Y-2.25
X5.075Y-2.55
X5.075Y-2.625
X5.075Y-2.925
T2
X3.7464Y-3.3
X3.896Y-3.3
X4.1504Y-2.65
X4.1504Y-2.75
X4.1504Y-2.85
X4.1504Y-2.95
X4.1504Y-3.05
X4.1504Y-3.15
X4.1504Y-3.25
X4.1504Y-3.35
X4.6504Y-2.65
X4.6504Y-2.75
X4.6504Y-2.85
X4.6504Y-2.95
X4.6504Y-3.05
X4.6504Y-3.15
X4.6504Y-3.25
X4.6504Y-3.35
X4.825Y-3.0744
X4.825Y-3.1744
X4.825Y-3.2744
X5.125Y-3.0744
X5.125Y-3.1744
X5.125Y-3.2744
X5.3016Y-1.7
X5.3016Y-2.25
X5.4984Y-1.7
X5.4984Y-2.25
T3
X3.65Y-2.7004
X3.65Y-2.8004
X3.65Y-2.9004
X3.65Y-3.0004
X3.95Y-2.6248
X3.95Y-2.7248
X4.9Y-2.4998
X4.9Y-2.5998
X4.9Y-2.775
X4.9Y-2.875
X5.25Y-2.375
X5.25Y-2.475
X5.25Y-2.6752
X5.25Y-2.7752
T4
X3.65Y-1.8
X3.65Y-2.4
X3.75Y-1.8
X3.75Y-2.4
X3.85Y-1.8
X3.85Y-2.4
X3.95Y-1.8
X3.95Y-2.4
X4.05Y-1.8
X4.05Y-2.4
X4.15Y-1.8
X4.15Y-2.4
X4.25Y-1.8
X4.25Y-2.4
X4.35Y-1.8
X4.35Y-2.4
X4.45Y-1.8
X4.45Y-2.4
X4.55Y-1.8
X4.55Y-2.4
X4.65Y-1.8
X4.65Y-2.4
X4.75Y-1.8
X4.75Y-2.4
X4.9866Y-1.875
X4.9866Y-1.975
X4.9866Y-2.075
T5
X5.6Y-2.475
X5.6Y-2.675
T6
X3.625Y-1.575
X3.625Y-3.6
X5.725Y-1.575
X5.725Y-3.6
T3
G00X5.3138Y-3.2271
M15
G01X5.3138Y-3.1483
M16
G05
G00X5.4713Y-3.0027
M15
G01X5.3925Y-3.0027
M16
G05
G00X5.55Y-3.2271
M15
G01X5.55Y-3.1483
M16
G05
T0
M30
