%TF.GenerationSoftware,KiCad,Pcbnew,7.0.1*%
%TF.CreationDate,2024-08-10T04:53:00+08:00*%
%TF.ProjectId,BDST,42445354-2e6b-4696-9361-645f70636258,rev?*%
%TF.SameCoordinates,Original*%
%TF.FileFunction,Soldermask,Top*%
%TF.FilePolarity,Negative*%
%FSLAX46Y46*%
G04 Gerber Fmt 4.6, Leading zero omitted, Abs format (unit mm)*
G04 Created by KiCad (PCBNEW 7.0.1) date 2024-08-10 04:53:00*
%MOMM*%
%LPD*%
G01*
G04 APERTURE LIST*
G04 Aperture macros list*
%AMRoundRect*
0 Rectangle with rounded corners*
0 $1 Rounding radius*
0 $2 $3 $4 $5 $6 $7 $8 $9 X,Y pos of 4 corners*
0 Add a 4 corners polygon primitive as box body*
4,1,4,$2,$3,$4,$5,$6,$7,$8,$9,$2,$3,0*
0 Add four circle primitives for the rounded corners*
1,1,$1+$1,$2,$3*
1,1,$1+$1,$4,$5*
1,1,$1+$1,$6,$7*
1,1,$1+$1,$8,$9*
0 Add four rect primitives between the rounded corners*
20,1,$1+$1,$2,$3,$4,$5,0*
20,1,$1+$1,$4,$5,$6,$7,0*
20,1,$1+$1,$6,$7,$8,$9,0*
20,1,$1+$1,$8,$9,$2,$3,0*%
G04 Aperture macros list end*
%ADD10R,1.600000X1.600000*%
%ADD11C,1.600000*%
%ADD12R,3.000000X3.000000*%
%ADD13C,3.000000*%
%ADD14R,1.700000X1.700000*%
%ADD15O,1.700000X1.700000*%
%ADD16C,1.400000*%
%ADD17O,1.400000X1.400000*%
%ADD18C,3.600000*%
%ADD19C,5.600000*%
%ADD20O,1.600000X1.600000*%
%ADD21O,3.500000X3.500000*%
%ADD22R,2.000000X1.905000*%
%ADD23O,2.000000X1.905000*%
%ADD24R,3.500000X3.500000*%
%ADD25RoundRect,0.750000X0.750000X1.000000X-0.750000X1.000000X-0.750000X-1.000000X0.750000X-1.000000X0*%
%ADD26RoundRect,0.875000X0.875000X0.875000X-0.875000X0.875000X-0.875000X-0.875000X0.875000X-0.875000X0*%
G04 APERTURE END LIST*
D10*
%TO.C,U1*%
X92710000Y-60960000D03*
D11*
X95250000Y-60960000D03*
X97790000Y-60960000D03*
X100330000Y-60960000D03*
X102870000Y-60960000D03*
X105410000Y-60960000D03*
X107950000Y-60960000D03*
X110490000Y-60960000D03*
X113030000Y-60960000D03*
X115570000Y-60960000D03*
X118110000Y-60960000D03*
X120650000Y-60960000D03*
X120650000Y-45720000D03*
X118110000Y-45720000D03*
X115570000Y-45720000D03*
X113030000Y-45720000D03*
X110490000Y-45720000D03*
X107950000Y-45720000D03*
X105410000Y-45720000D03*
X102870000Y-45720000D03*
X100330000Y-45720000D03*
X97790000Y-45720000D03*
X95250000Y-45720000D03*
X92710000Y-45720000D03*
%TD*%
D12*
%TO.C,J2*%
X142240000Y-67945000D03*
D13*
X142240000Y-62865000D03*
%TD*%
D11*
%TO.C,C1*%
X139660000Y-43180000D03*
X134660000Y-43180000D03*
%TD*%
D14*
%TO.C,M1*%
X92710000Y-68590000D03*
D15*
X92710000Y-71130000D03*
X92710000Y-73670000D03*
X92710000Y-76210000D03*
%TD*%
D14*
%TO.C,SW2*%
X133350000Y-70490000D03*
D15*
X133350000Y-67950000D03*
%TD*%
D14*
%TO.C,JP3*%
X124460000Y-63495000D03*
D15*
X124460000Y-66035000D03*
%TD*%
D14*
%TO.C,SW3*%
X133350000Y-62865000D03*
D15*
X133350000Y-60325000D03*
%TD*%
D16*
%TO.C,R2*%
X128905000Y-57150000D03*
D17*
X128905000Y-64770000D03*
%TD*%
D18*
%TO.C,A*%
X145415000Y-40005000D03*
D19*
X145415000Y-40005000D03*
%TD*%
D10*
%TO.C,U3*%
X105420000Y-67310000D03*
D20*
X105420000Y-69850000D03*
X105420000Y-72390000D03*
X105420000Y-74930000D03*
X105420000Y-77470000D03*
X105420000Y-80010000D03*
X105420000Y-82550000D03*
X105420000Y-85090000D03*
X118120000Y-85090000D03*
X118120000Y-82550000D03*
X118120000Y-80010000D03*
X118120000Y-77470000D03*
X118120000Y-74930000D03*
X118120000Y-72390000D03*
X118120000Y-69850000D03*
X118120000Y-67310000D03*
%TD*%
D18*
%TO.C,B*%
X92075000Y-40005000D03*
D19*
X92075000Y-40005000D03*
%TD*%
D18*
%TO.C,C*%
X92075000Y-91440000D03*
D19*
X92075000Y-91440000D03*
%TD*%
D21*
%TO.C,U2*%
X143320000Y-50165000D03*
D22*
X126660000Y-47625000D03*
D23*
X126660000Y-50165000D03*
X126660000Y-52705000D03*
%TD*%
D10*
%TO.C,C3*%
X98957651Y-83820000D03*
D11*
X95157651Y-83820000D03*
%TD*%
D24*
%TO.C,J1*%
X134970000Y-80967500D03*
D25*
X140970000Y-80967500D03*
D26*
X137970000Y-76267500D03*
%TD*%
D18*
%TO.C,D*%
X145415000Y-91440000D03*
D19*
X145415000Y-91440000D03*
%TD*%
D14*
%TO.C,JP2*%
X124460000Y-73025000D03*
D15*
X124460000Y-70485000D03*
%TD*%
D14*
%TO.C,JP1*%
X100330000Y-66670000D03*
D15*
X100330000Y-69210000D03*
%TD*%
D16*
%TO.C,R1*%
X128905000Y-74295000D03*
D17*
X128905000Y-66675000D03*
%TD*%
D10*
%TO.C,SW1*%
X130175000Y-83170000D03*
D20*
X130175000Y-80630000D03*
X130175000Y-78090000D03*
X122555000Y-78090000D03*
X122555000Y-80630000D03*
X122555000Y-83170000D03*
%TD*%
D11*
%TO.C,C2*%
X134660000Y-57150000D03*
X139660000Y-57150000D03*
%TD*%
M02*
