%TF.GenerationSoftware,KiCad,Pcbnew,7.0.1*%
%TF.CreationDate,2024-08-10T04:53:00+08:00*%
%TF.ProjectId,BDST,42445354-2e6b-4696-9361-645f70636258,rev?*%
%TF.SameCoordinates,Original*%
%TF.FileFunction,Copper,L2,Bot*%
%TF.FilePolarity,Positive*%
%FSLAX46Y46*%
G04 Gerber Fmt 4.6, Leading zero omitted, Abs format (unit mm)*
G04 Created by KiCad (PCBNEW 7.0.1) date 2024-08-10 04:53:00*
%MOMM*%
%LPD*%
G01*
G04 APERTURE LIST*
G04 Aperture macros list*
%AMRoundRect*
0 Rectangle with rounded corners*
0 $1 Rounding radius*
0 $2 $3 $4 $5 $6 $7 $8 $9 X,Y pos of 4 corners*
0 Add a 4 corners polygon primitive as box body*
4,1,4,$2,$3,$4,$5,$6,$7,$8,$9,$2,$3,0*
0 Add four circle primitives for the rounded corners*
1,1,$1+$1,$2,$3*
1,1,$1+$1,$4,$5*
1,1,$1+$1,$6,$7*
1,1,$1+$1,$8,$9*
0 Add four rect primitives between the rounded corners*
20,1,$1+$1,$2,$3,$4,$5,0*
20,1,$1+$1,$4,$5,$6,$7,0*
20,1,$1+$1,$6,$7,$8,$9,0*
20,1,$1+$1,$8,$9,$2,$3,0*%
G04 Aperture macros list end*
%TA.AperFunction,ComponentPad*%
%ADD10R,1.600000X1.600000*%
%TD*%
%TA.AperFunction,ComponentPad*%
%ADD11C,1.600000*%
%TD*%
%TA.AperFunction,ComponentPad*%
%ADD12R,3.000000X3.000000*%
%TD*%
%TA.AperFunction,ComponentPad*%
%ADD13C,3.000000*%
%TD*%
%TA.AperFunction,ComponentPad*%
%ADD14R,1.700000X1.700000*%
%TD*%
%TA.AperFunction,ComponentPad*%
%ADD15O,1.700000X1.700000*%
%TD*%
%TA.AperFunction,ComponentPad*%
%ADD16C,1.400000*%
%TD*%
%TA.AperFunction,ComponentPad*%
%ADD17O,1.400000X1.400000*%
%TD*%
%TA.AperFunction,ComponentPad*%
%ADD18C,3.600000*%
%TD*%
%TA.AperFunction,ConnectorPad*%
%ADD19C,5.600000*%
%TD*%
%TA.AperFunction,ComponentPad*%
%ADD20O,1.600000X1.600000*%
%TD*%
%TA.AperFunction,ComponentPad*%
%ADD21R,2.000000X1.905000*%
%TD*%
%TA.AperFunction,ComponentPad*%
%ADD22O,2.000000X1.905000*%
%TD*%
%TA.AperFunction,ComponentPad*%
%ADD23R,3.500000X3.500000*%
%TD*%
%TA.AperFunction,ComponentPad*%
%ADD24RoundRect,0.750000X0.750000X1.000000X-0.750000X1.000000X-0.750000X-1.000000X0.750000X-1.000000X0*%
%TD*%
%TA.AperFunction,ComponentPad*%
%ADD25RoundRect,0.875000X0.875000X0.875000X-0.875000X0.875000X-0.875000X-0.875000X0.875000X-0.875000X0*%
%TD*%
G04 APERTURE END LIST*
D10*
%TO.P,U1,1,TX/1*%
%TO.N,unconnected-(U1-Pad1)*%
X92710000Y-60960000D03*
D11*
%TO.P,U1,2,RX/0*%
%TO.N,unconnected-(U1-Pad2)*%
X95250000Y-60960000D03*
%TO.P,U1,3,GND*%
%TO.N,GND*%
X97790000Y-60960000D03*
%TO.P,U1,4,GND*%
X100330000Y-60960000D03*
%TO.P,U1,5,SDA/2*%
%TO.N,unconnected-(U1-Pad5)*%
X102870000Y-60960000D03*
%TO.P,U1,6,SCL/3*%
%TO.N,unconnected-(U1-Pad6)*%
X105410000Y-60960000D03*
%TO.P,U1,7,A6/4*%
%TO.N,unconnected-(U1-Pad7)*%
X107950000Y-60960000D03*
%TO.P,U1,8,5*%
%TO.N,unconnected-(U1-Pad8)*%
X110490000Y-60960000D03*
%TO.P,U1,9,A7/6*%
%TO.N,Net-(R1-Pad2)*%
X113030000Y-60960000D03*
%TO.P,U1,10,7*%
%TO.N,Net-(R2-Pad1)*%
X115570000Y-60960000D03*
%TO.P,U1,11,A8/8*%
%TO.N,/MOTOR_STEP*%
X118110000Y-60960000D03*
%TO.P,U1,12,A9/9*%
%TO.N,/MOTOR_DIR*%
X120650000Y-60960000D03*
%TO.P,U1,13,A10/10*%
%TO.N,unconnected-(U1-Pad13)*%
X120650000Y-45720000D03*
%TO.P,U1,14,MOSI/16*%
%TO.N,unconnected-(U1-Pad14)*%
X118110000Y-45720000D03*
%TO.P,U1,15,MISO/14*%
%TO.N,unconnected-(U1-Pad15)*%
X115570000Y-45720000D03*
%TO.P,U1,16,SCLK/15*%
%TO.N,unconnected-(U1-Pad16)*%
X113030000Y-45720000D03*
%TO.P,U1,17,A0/18*%
%TO.N,unconnected-(U1-Pad17)*%
X110490000Y-45720000D03*
%TO.P,U1,18,A1/19*%
%TO.N,unconnected-(U1-Pad18)*%
X107950000Y-45720000D03*
%TO.P,U1,19,A2/20*%
%TO.N,unconnected-(U1-Pad19)*%
X105410000Y-45720000D03*
%TO.P,U1,20,A3/21*%
%TO.N,unconnected-(U1-Pad20)*%
X102870000Y-45720000D03*
%TO.P,U1,21,VCC*%
%TO.N,VCC*%
X100330000Y-45720000D03*
%TO.P,U1,22,RST*%
%TO.N,unconnected-(U1-Pad22)*%
X97790000Y-45720000D03*
%TO.P,U1,23,GND*%
%TO.N,GND*%
X95250000Y-45720000D03*
%TO.P,U1,24,RAW*%
%TO.N,unconnected-(U1-Pad24)*%
X92710000Y-45720000D03*
%TD*%
D12*
%TO.P,J2,1,Pin_1*%
%TO.N,GND*%
X142240000Y-67945000D03*
D13*
%TO.P,J2,2,Pin_2*%
%TO.N,VAA*%
X142240000Y-62865000D03*
%TD*%
D11*
%TO.P,C1,1*%
%TO.N,VAA*%
X139660000Y-43180000D03*
%TO.P,C1,2*%
%TO.N,GND*%
X134660000Y-43180000D03*
%TD*%
D14*
%TO.P,M1,1*%
%TO.N,/M1A*%
X92710000Y-68590000D03*
D15*
%TO.P,M1,2,-*%
%TO.N,/M1B*%
X92710000Y-71130000D03*
%TO.P,M1,3*%
%TO.N,/M2A*%
X92710000Y-73670000D03*
%TO.P,M1,4*%
%TO.N,/M2B*%
X92710000Y-76210000D03*
%TD*%
D14*
%TO.P,SW2,1,A*%
%TO.N,GND*%
X133350000Y-70490000D03*
D15*
%TO.P,SW2,2,B*%
%TO.N,Net-(R1-Pad2)*%
X133350000Y-67950000D03*
%TD*%
D14*
%TO.P,JP3,1,A*%
%TO.N,VCC*%
X124460000Y-63495000D03*
D15*
%TO.P,JP3,2,B*%
%TO.N,Net-(JP3-Pad2)*%
X124460000Y-66035000D03*
%TD*%
D14*
%TO.P,SW3,1,A*%
%TO.N,GND*%
X133350000Y-62865000D03*
D15*
%TO.P,SW3,2,B*%
%TO.N,Net-(R2-Pad1)*%
X133350000Y-60325000D03*
%TD*%
D16*
%TO.P,R2,1*%
%TO.N,Net-(R2-Pad1)*%
X128905000Y-57150000D03*
D17*
%TO.P,R2,2*%
%TO.N,VCC*%
X128905000Y-64770000D03*
%TD*%
D18*
%TO.P,A,1*%
%TO.N,N/C*%
X145415000Y-40005000D03*
D19*
X145415000Y-40005000D03*
%TD*%
D10*
%TO.P,U3,1,GND*%
%TO.N,GND*%
X105420000Y-67310000D03*
D20*
%TO.P,U3,2,VDD*%
%TO.N,Net-(JP1-Pad2)*%
X105420000Y-69850000D03*
%TO.P,U3,3,1B*%
%TO.N,/M1A*%
X105420000Y-72390000D03*
%TO.P,U3,4,1A*%
%TO.N,/M1B*%
X105420000Y-74930000D03*
%TO.P,U3,5,2A*%
%TO.N,/M2A*%
X105420000Y-77470000D03*
%TO.P,U3,6,2B*%
%TO.N,/M2B*%
X105420000Y-80010000D03*
%TO.P,U3,7,GND*%
%TO.N,GND*%
X105420000Y-82550000D03*
%TO.P,U3,8,VMOT*%
%TO.N,VAA*%
X105420000Y-85090000D03*
%TO.P,U3,9,~{ENABLE}*%
%TO.N,GND*%
X118120000Y-85090000D03*
%TO.P,U3,10,MS1*%
%TO.N,Net-(SW1-Pad6)*%
X118120000Y-82550000D03*
%TO.P,U3,11,MS2*%
%TO.N,Net-(SW1-Pad5)*%
X118120000Y-80010000D03*
%TO.P,U3,12,MS3*%
%TO.N,Net-(SW1-Pad4)*%
X118120000Y-77470000D03*
%TO.P,U3,13,~{RESET}*%
%TO.N,Net-(JP2-Pad2)*%
X118120000Y-74930000D03*
%TO.P,U3,14,~{SLEEP}*%
%TO.N,Net-(JP3-Pad2)*%
X118120000Y-72390000D03*
%TO.P,U3,15,STEP*%
%TO.N,/MOTOR_STEP*%
X118120000Y-69850000D03*
%TO.P,U3,16,DIR*%
%TO.N,/MOTOR_DIR*%
X118120000Y-67310000D03*
%TD*%
D18*
%TO.P,B,1*%
%TO.N,N/C*%
X92075000Y-40005000D03*
D19*
X92075000Y-40005000D03*
%TD*%
D18*
%TO.P,C,1*%
%TO.N,N/C*%
X92075000Y-91440000D03*
D19*
X92075000Y-91440000D03*
%TD*%
D21*
%TO.P,U2,1,IN*%
%TO.N,VAA*%
X126660000Y-47625000D03*
D22*
%TO.P,U2,2,GND*%
%TO.N,GND*%
X126660000Y-50165000D03*
%TO.P,U2,3,OUT*%
%TO.N,VCC*%
X126660000Y-52705000D03*
%TD*%
D10*
%TO.P,C3,1*%
%TO.N,VAA*%
X98957651Y-83820000D03*
D11*
%TO.P,C3,2*%
%TO.N,GND*%
X95157651Y-83820000D03*
%TD*%
D23*
%TO.P,J1,1*%
%TO.N,VAA*%
X134970000Y-80967500D03*
D24*
%TO.P,J1,2*%
%TO.N,GND*%
X140970000Y-80967500D03*
D25*
%TO.P,J1,3*%
%TO.N,N/C*%
X137970000Y-76267500D03*
%TD*%
D18*
%TO.P,D,1*%
%TO.N,N/C*%
X145415000Y-91440000D03*
D19*
X145415000Y-91440000D03*
%TD*%
D14*
%TO.P,JP2,1,A*%
%TO.N,VCC*%
X124460000Y-73025000D03*
D15*
%TO.P,JP2,2,B*%
%TO.N,Net-(JP2-Pad2)*%
X124460000Y-70485000D03*
%TD*%
D14*
%TO.P,JP1,1,A*%
%TO.N,VCC*%
X100330000Y-66670000D03*
D15*
%TO.P,JP1,2,B*%
%TO.N,Net-(JP1-Pad2)*%
X100330000Y-69210000D03*
%TD*%
D16*
%TO.P,R1,1*%
%TO.N,VCC*%
X128905000Y-74295000D03*
D17*
%TO.P,R1,2*%
%TO.N,Net-(R1-Pad2)*%
X128905000Y-66675000D03*
%TD*%
D10*
%TO.P,SW1,1*%
%TO.N,VCC*%
X130175000Y-83170000D03*
D20*
%TO.P,SW1,2*%
X130175000Y-80630000D03*
%TO.P,SW1,3*%
X130175000Y-78090000D03*
%TO.P,SW1,4*%
%TO.N,Net-(SW1-Pad4)*%
X122555000Y-78090000D03*
%TO.P,SW1,5*%
%TO.N,Net-(SW1-Pad5)*%
X122555000Y-80630000D03*
%TO.P,SW1,6*%
%TO.N,Net-(SW1-Pad6)*%
X122555000Y-83170000D03*
%TD*%
D11*
%TO.P,C2,1*%
%TO.N,VCC*%
X134660000Y-57150000D03*
%TO.P,C2,2*%
%TO.N,GND*%
X139660000Y-57150000D03*
%TD*%
%TA.AperFunction,Conductor*%
%TO.N,GND*%
G36*
X147324118Y-36195770D02*
G01*
X147329459Y-36196120D01*
X147403729Y-36200987D01*
X147568491Y-36212772D01*
X147584034Y-36214865D01*
X147691312Y-36236204D01*
X147693146Y-36236586D01*
X147824413Y-36265142D01*
X147838090Y-36268937D01*
X147947079Y-36305934D01*
X147950580Y-36307181D01*
X148070749Y-36352001D01*
X148082420Y-36357040D01*
X148187761Y-36408989D01*
X148192379Y-36411387D01*
X148302898Y-36471735D01*
X148312496Y-36477546D01*
X148411089Y-36543424D01*
X148416532Y-36547276D01*
X148516542Y-36622143D01*
X148524089Y-36628262D01*
X148613550Y-36706718D01*
X148619567Y-36712354D01*
X148707644Y-36800431D01*
X148713280Y-36806448D01*
X148791736Y-36895909D01*
X148797861Y-36903463D01*
X148872712Y-37003453D01*
X148876585Y-37008925D01*
X148896740Y-37039089D01*
X148942449Y-37107498D01*
X148948271Y-37117114D01*
X149008597Y-37227593D01*
X149011015Y-37232249D01*
X149062952Y-37337565D01*
X149068002Y-37349262D01*
X149112812Y-37469404D01*
X149114069Y-37472934D01*
X149151055Y-37581889D01*
X149154862Y-37595607D01*
X149183373Y-37726668D01*
X149183832Y-37728871D01*
X149205129Y-37835939D01*
X149207229Y-37851532D01*
X149218994Y-38016034D01*
X149219045Y-38016780D01*
X149224230Y-38095880D01*
X149224500Y-38104122D01*
X149224500Y-93975055D01*
X149224111Y-93984942D01*
X149220072Y-94036255D01*
X149219981Y-94037351D01*
X149207725Y-94177424D01*
X149204724Y-94195854D01*
X149185869Y-94274394D01*
X149185057Y-94277592D01*
X149156901Y-94382672D01*
X149151603Y-94398279D01*
X149118414Y-94478405D01*
X149116200Y-94483437D01*
X149072726Y-94576668D01*
X149065963Y-94589254D01*
X149019482Y-94665103D01*
X149015263Y-94671538D01*
X148957472Y-94754071D01*
X148950070Y-94763630D01*
X148891746Y-94831919D01*
X148885030Y-94839184D01*
X148814184Y-94910030D01*
X148806919Y-94916746D01*
X148738630Y-94975070D01*
X148729071Y-94982472D01*
X148646538Y-95040263D01*
X148640103Y-95044482D01*
X148564254Y-95090963D01*
X148551668Y-95097726D01*
X148458437Y-95141200D01*
X148453405Y-95143414D01*
X148373279Y-95176603D01*
X148357672Y-95181901D01*
X148252592Y-95210057D01*
X148249394Y-95210869D01*
X148170854Y-95229724D01*
X148152424Y-95232725D01*
X148012351Y-95244981D01*
X148011255Y-95245072D01*
X147959942Y-95249111D01*
X147950055Y-95249500D01*
X89539945Y-95249500D01*
X89530082Y-95249112D01*
X89478626Y-95245063D01*
X89477647Y-95244981D01*
X89337574Y-95232725D01*
X89319144Y-95229724D01*
X89240604Y-95210869D01*
X89237406Y-95210057D01*
X89132326Y-95181901D01*
X89116719Y-95176603D01*
X89036593Y-95143414D01*
X89031561Y-95141200D01*
X88973426Y-95114091D01*
X88938326Y-95097723D01*
X88925749Y-95090966D01*
X88849894Y-95044481D01*
X88843479Y-95040275D01*
X88760923Y-94982469D01*
X88751368Y-94975070D01*
X88683079Y-94916746D01*
X88675814Y-94910030D01*
X88604968Y-94839184D01*
X88598252Y-94831919D01*
X88539928Y-94763630D01*
X88532534Y-94754082D01*
X88474713Y-94671505D01*
X88470528Y-94665121D01*
X88424026Y-94589237D01*
X88417282Y-94576686D01*
X88373787Y-94483413D01*
X88371602Y-94478446D01*
X88338390Y-94398265D01*
X88333100Y-94382681D01*
X88304927Y-94277537D01*
X88304139Y-94274434D01*
X88285274Y-94195854D01*
X88282273Y-94177423D01*
X88270026Y-94037447D01*
X88269948Y-94036516D01*
X88265888Y-93984929D01*
X88265500Y-93975045D01*
X88265500Y-91440000D01*
X88761640Y-91440000D01*
X88781064Y-91798237D01*
X88839104Y-92152273D01*
X88935083Y-92497957D01*
X88935085Y-92497961D01*
X89067877Y-92831243D01*
X89128490Y-92945572D01*
X89235923Y-93148213D01*
X89313188Y-93262169D01*
X89437258Y-93445159D01*
X89669516Y-93718595D01*
X89929977Y-93965317D01*
X90215586Y-94182431D01*
X90522995Y-94367393D01*
X90848599Y-94518033D01*
X90848605Y-94518035D01*
X91188582Y-94632587D01*
X91538958Y-94709711D01*
X91895614Y-94748500D01*
X91895618Y-94748500D01*
X92254382Y-94748500D01*
X92254386Y-94748500D01*
X92539710Y-94717468D01*
X92611042Y-94709711D01*
X92961417Y-94632587D01*
X93301401Y-94518033D01*
X93627005Y-94367393D01*
X93934414Y-94182431D01*
X94220023Y-93965317D01*
X94480484Y-93718595D01*
X94712742Y-93445159D01*
X94914075Y-93148215D01*
X95082123Y-92831243D01*
X95214915Y-92497961D01*
X95310895Y-92152274D01*
X95368936Y-91798237D01*
X95388359Y-91440000D01*
X95388359Y-91439999D01*
X142101640Y-91439999D01*
X142121064Y-91798237D01*
X142179104Y-92152273D01*
X142275083Y-92497957D01*
X142275085Y-92497961D01*
X142407877Y-92831243D01*
X142468490Y-92945572D01*
X142575923Y-93148213D01*
X142653188Y-93262169D01*
X142777258Y-93445159D01*
X143009516Y-93718595D01*
X143269977Y-93965317D01*
X143555586Y-94182431D01*
X143862995Y-94367393D01*
X144188599Y-94518033D01*
X144188605Y-94518035D01*
X144528582Y-94632587D01*
X144878958Y-94709711D01*
X145235614Y-94748500D01*
X145235618Y-94748500D01*
X145594382Y-94748500D01*
X145594386Y-94748500D01*
X145879710Y-94717468D01*
X145951042Y-94709711D01*
X146301417Y-94632587D01*
X146641401Y-94518033D01*
X146967005Y-94367393D01*
X147274414Y-94182431D01*
X147560023Y-93965317D01*
X147820484Y-93718595D01*
X148052742Y-93445159D01*
X148254075Y-93148215D01*
X148422123Y-92831243D01*
X148554915Y-92497961D01*
X148650895Y-92152274D01*
X148708936Y-91798237D01*
X148728359Y-91440000D01*
X148708936Y-91081763D01*
X148650895Y-90727726D01*
X148554915Y-90382039D01*
X148422123Y-90048757D01*
X148254075Y-89731785D01*
X148052742Y-89434841D01*
X147820484Y-89161405D01*
X147560023Y-88914683D01*
X147274414Y-88697569D01*
X146967005Y-88512607D01*
X146641401Y-88361967D01*
X146641399Y-88361966D01*
X146641394Y-88361964D01*
X146301417Y-88247412D01*
X145951041Y-88170288D01*
X145594386Y-88131500D01*
X145594382Y-88131500D01*
X145235618Y-88131500D01*
X145235614Y-88131500D01*
X144878958Y-88170288D01*
X144528582Y-88247412D01*
X144188605Y-88361964D01*
X143862992Y-88512608D01*
X143555587Y-88697568D01*
X143555584Y-88697569D01*
X143555586Y-88697569D01*
X143269977Y-88914683D01*
X143009516Y-89161405D01*
X142777258Y-89434841D01*
X142777257Y-89434843D01*
X142575923Y-89731786D01*
X142407877Y-90048757D01*
X142275083Y-90382042D01*
X142179104Y-90727726D01*
X142121064Y-91081762D01*
X142101640Y-91439999D01*
X95388359Y-91439999D01*
X95368936Y-91081763D01*
X95310895Y-90727726D01*
X95214915Y-90382039D01*
X95082123Y-90048757D01*
X94914075Y-89731785D01*
X94712742Y-89434841D01*
X94480484Y-89161405D01*
X94220023Y-88914683D01*
X93934414Y-88697569D01*
X93627005Y-88512607D01*
X93301401Y-88361967D01*
X93301399Y-88361966D01*
X93301394Y-88361964D01*
X92961417Y-88247412D01*
X92611041Y-88170288D01*
X92254386Y-88131500D01*
X92254382Y-88131500D01*
X91895618Y-88131500D01*
X91895614Y-88131500D01*
X91538958Y-88170288D01*
X91188582Y-88247412D01*
X90848605Y-88361964D01*
X90522992Y-88512608D01*
X90215587Y-88697568D01*
X90215584Y-88697569D01*
X90215586Y-88697569D01*
X89929977Y-88914683D01*
X89669516Y-89161405D01*
X89437258Y-89434841D01*
X89437257Y-89434843D01*
X89235923Y-89731786D01*
X89067877Y-90048757D01*
X88935083Y-90382042D01*
X88839104Y-90727726D01*
X88781064Y-91081762D01*
X88761640Y-91440000D01*
X88265500Y-91440000D01*
X88265500Y-84907100D01*
X94429761Y-84907100D01*
X94501148Y-84957085D01*
X94708580Y-85053813D01*
X94929651Y-85113048D01*
X95157651Y-85132995D01*
X95385650Y-85113048D01*
X95606721Y-85053813D01*
X95814149Y-84957087D01*
X95885539Y-84907099D01*
X95885539Y-84907097D01*
X95647080Y-84668638D01*
X97649151Y-84668638D01*
X97655662Y-84729200D01*
X97706762Y-84866205D01*
X97794389Y-84983261D01*
X97911445Y-85070888D01*
X97911446Y-85070888D01*
X97911447Y-85070889D01*
X98048450Y-85121989D01*
X98109013Y-85128500D01*
X99806289Y-85128500D01*
X99866852Y-85121989D01*
X99952617Y-85090000D01*
X104106502Y-85090000D01*
X104109301Y-85121988D01*
X104126457Y-85318087D01*
X104185715Y-85539243D01*
X104282477Y-85746750D01*
X104413804Y-85934303D01*
X104575696Y-86096195D01*
X104763249Y-86227522D01*
X104970756Y-86324284D01*
X105030015Y-86340162D01*
X105191913Y-86383543D01*
X105420000Y-86403498D01*
X105648087Y-86383543D01*
X105869243Y-86324284D01*
X106076749Y-86227523D01*
X106264300Y-86096198D01*
X106426198Y-85934300D01*
X106557523Y-85746749D01*
X106654284Y-85539243D01*
X106706600Y-85344000D01*
X116833918Y-85344000D01*
X116886186Y-85539070D01*
X116982912Y-85746498D01*
X117114189Y-85933981D01*
X117276018Y-86095810D01*
X117463501Y-86227087D01*
X117670929Y-86323813D01*
X117866000Y-86376082D01*
X117866000Y-85344000D01*
X118374000Y-85344000D01*
X118374000Y-86376082D01*
X118569070Y-86323813D01*
X118776498Y-86227087D01*
X118963981Y-86095810D01*
X119125810Y-85933981D01*
X119257087Y-85746498D01*
X119353813Y-85539070D01*
X119406082Y-85344000D01*
X118374000Y-85344000D01*
X117866000Y-85344000D01*
X116833918Y-85344000D01*
X106706600Y-85344000D01*
X106713543Y-85318087D01*
X106733498Y-85090000D01*
X106713543Y-84861913D01*
X106654284Y-84640757D01*
X106610978Y-84547887D01*
X106557522Y-84433249D01*
X106442562Y-84269070D01*
X106426198Y-84245700D01*
X106426197Y-84245699D01*
X106426195Y-84245696D01*
X106264303Y-84083804D01*
X106076748Y-83952476D01*
X106036951Y-83933919D01*
X105983933Y-83887424D01*
X105964200Y-83819724D01*
X105983933Y-83752024D01*
X106036951Y-83705529D01*
X106076497Y-83687088D01*
X106263981Y-83555810D01*
X106425810Y-83393981D01*
X106557087Y-83206498D01*
X106653813Y-82999070D01*
X106706082Y-82804000D01*
X104133918Y-82804000D01*
X104186186Y-82999070D01*
X104282912Y-83206498D01*
X104414189Y-83393981D01*
X104576018Y-83555810D01*
X104763501Y-83687087D01*
X104803049Y-83705529D01*
X104856066Y-83752024D01*
X104875799Y-83819724D01*
X104856066Y-83887424D01*
X104803049Y-83933919D01*
X104763250Y-83952477D01*
X104575696Y-84083804D01*
X104413804Y-84245696D01*
X104282477Y-84433249D01*
X104185715Y-84640756D01*
X104126457Y-84861912D01*
X104118130Y-84957085D01*
X104106502Y-85090000D01*
X99952617Y-85090000D01*
X100003855Y-85070889D01*
X100120912Y-84983261D01*
X100208540Y-84866204D01*
X100259640Y-84729201D01*
X100266151Y-84668638D01*
X100266151Y-82971362D01*
X100259640Y-82910799D01*
X100208540Y-82773796D01*
X100208539Y-82773794D01*
X100120912Y-82656738D01*
X100003856Y-82569111D01*
X99952617Y-82550000D01*
X116806502Y-82550000D01*
X116826457Y-82778087D01*
X116885715Y-82999243D01*
X116982477Y-83206750D01*
X117113804Y-83394303D01*
X117275696Y-83556195D01*
X117275699Y-83556197D01*
X117275700Y-83556198D01*
X117463251Y-83687523D01*
X117503049Y-83706081D01*
X117556065Y-83752573D01*
X117575799Y-83820273D01*
X117556067Y-83887973D01*
X117503051Y-83934469D01*
X117463502Y-83952911D01*
X117276018Y-84084189D01*
X117114189Y-84246018D01*
X116982912Y-84433501D01*
X116886186Y-84640929D01*
X116833917Y-84836000D01*
X119406082Y-84836000D01*
X119353813Y-84640929D01*
X119257087Y-84433501D01*
X119125810Y-84246018D01*
X118963981Y-84084189D01*
X118776497Y-83952911D01*
X118736951Y-83934471D01*
X118683933Y-83887976D01*
X118664200Y-83820276D01*
X118683933Y-83752576D01*
X118736951Y-83706081D01*
X118738135Y-83705529D01*
X118776749Y-83687523D01*
X118964300Y-83556198D01*
X119126198Y-83394300D01*
X119257523Y-83206749D01*
X119274660Y-83169999D01*
X121241502Y-83169999D01*
X121261457Y-83398087D01*
X121320715Y-83619243D01*
X121417477Y-83826750D01*
X121548804Y-84014303D01*
X121710696Y-84176195D01*
X121898249Y-84307522D01*
X122105756Y-84404284D01*
X122165014Y-84420162D01*
X122326913Y-84463543D01*
X122555000Y-84483498D01*
X122783087Y-84463543D01*
X123004243Y-84404284D01*
X123211749Y-84307523D01*
X123399300Y-84176198D01*
X123561198Y-84014300D01*
X123692523Y-83826749D01*
X123789284Y-83619243D01*
X123848543Y-83398087D01*
X123868498Y-83170000D01*
X123848543Y-82941913D01*
X123792538Y-82732900D01*
X123789284Y-82720756D01*
X123692522Y-82513249D01*
X123561195Y-82325696D01*
X123399303Y-82163804D01*
X123211748Y-82032476D01*
X123172543Y-82014195D01*
X123119525Y-81967700D01*
X123099792Y-81900000D01*
X123119525Y-81832300D01*
X123172543Y-81785805D01*
X123177163Y-81783650D01*
X123211749Y-81767523D01*
X123399300Y-81636198D01*
X123561198Y-81474300D01*
X123692523Y-81286749D01*
X123789284Y-81079243D01*
X123848543Y-80858087D01*
X123868498Y-80630000D01*
X128861502Y-80630000D01*
X128881457Y-80858087D01*
X128940715Y-81079243D01*
X129037477Y-81286750D01*
X129168804Y-81474303D01*
X129330696Y-81636195D01*
X129333999Y-81638508D01*
X129373768Y-81684072D01*
X129387724Y-81742919D01*
X129372653Y-81801490D01*
X129332025Y-81846291D01*
X129275202Y-81867000D01*
X129270593Y-81867495D01*
X129265799Y-81868011D01*
X129220131Y-81885044D01*
X129128794Y-81919111D01*
X129011738Y-82006738D01*
X128924111Y-82123794D01*
X128873010Y-82260799D01*
X128873011Y-82260799D01*
X128866500Y-82321362D01*
X128866500Y-84018638D01*
X128873011Y-84079201D01*
X128898560Y-84147702D01*
X128924111Y-84216205D01*
X129011738Y-84333261D01*
X129128794Y-84420888D01*
X129128795Y-84420888D01*
X129128796Y-84420889D01*
X129265799Y-84471989D01*
X129326362Y-84478500D01*
X131023638Y-84478500D01*
X131084201Y-84471989D01*
X131221204Y-84420889D01*
X131338261Y-84333261D01*
X131425889Y-84216204D01*
X131476989Y-84079201D01*
X131483500Y-84018638D01*
X131483500Y-82766138D01*
X132711500Y-82766138D01*
X132715570Y-82804000D01*
X132718011Y-82826700D01*
X132769111Y-82963705D01*
X132856738Y-83080761D01*
X132973794Y-83168388D01*
X132973795Y-83168388D01*
X132973796Y-83168389D01*
X133110799Y-83219489D01*
X133171362Y-83226000D01*
X136768638Y-83226000D01*
X136829201Y-83219489D01*
X136966204Y-83168389D01*
X137083261Y-83080761D01*
X137170889Y-82963704D01*
X137221989Y-82826701D01*
X137228500Y-82766138D01*
X137228500Y-81221500D01*
X138962000Y-81221500D01*
X138962000Y-82032105D01*
X138972466Y-82165091D01*
X139027795Y-82384670D01*
X139121444Y-82590844D01*
X139250400Y-82776982D01*
X139410517Y-82937099D01*
X139596655Y-83066055D01*
X139802829Y-83159704D01*
X140022408Y-83215033D01*
X140155395Y-83225500D01*
X140716000Y-83225500D01*
X140716000Y-81221500D01*
X141224000Y-81221500D01*
X141224000Y-83225500D01*
X141784605Y-83225500D01*
X141917591Y-83215033D01*
X142137170Y-83159704D01*
X142343344Y-83066055D01*
X142529482Y-82937099D01*
X142689599Y-82776982D01*
X142818555Y-82590844D01*
X142912204Y-82384670D01*
X142967533Y-82165091D01*
X142978000Y-82032105D01*
X142978000Y-81221500D01*
X141224000Y-81221500D01*
X140716000Y-81221500D01*
X138962000Y-81221500D01*
X137228500Y-81221500D01*
X137228500Y-80713500D01*
X138962000Y-80713500D01*
X140716000Y-80713500D01*
X140716000Y-78709500D01*
X141224000Y-78709500D01*
X141224000Y-80713500D01*
X142978000Y-80713500D01*
X142978000Y-79902895D01*
X142967533Y-79769908D01*
X142912204Y-79550329D01*
X142818555Y-79344155D01*
X142689599Y-79158017D01*
X142529482Y-78997900D01*
X142343344Y-78868944D01*
X142137170Y-78775295D01*
X141917591Y-78719966D01*
X141784605Y-78709500D01*
X141224000Y-78709500D01*
X140716000Y-78709500D01*
X140155395Y-78709500D01*
X140022408Y-78719966D01*
X139802829Y-78775295D01*
X139596655Y-78868944D01*
X139410517Y-78997900D01*
X139250400Y-79158017D01*
X139121444Y-79344155D01*
X139027795Y-79550329D01*
X138972466Y-79769908D01*
X138962000Y-79902895D01*
X138962000Y-80713500D01*
X137228500Y-80713500D01*
X137228500Y-79168862D01*
X137221989Y-79108299D01*
X137170889Y-78971296D01*
X137170888Y-78971294D01*
X137083261Y-78854238D01*
X136951702Y-78755754D01*
X136953248Y-78753688D01*
X136919687Y-78728933D01*
X136894101Y-78664565D01*
X136906403Y-78596401D01*
X136952875Y-78545038D01*
X137019469Y-78525999D01*
X138939170Y-78525999D01*
X138992092Y-78523189D01*
X139223314Y-78478470D01*
X139443652Y-78395318D01*
X139646768Y-78276125D01*
X139826819Y-78124319D01*
X139978625Y-77944268D01*
X140097818Y-77741152D01*
X140180970Y-77520814D01*
X140225689Y-77289592D01*
X140228500Y-77236671D01*
X140228499Y-75298330D01*
X140225689Y-75245408D01*
X140180970Y-75014186D01*
X140097818Y-74793848D01*
X139978625Y-74590732D01*
X139908254Y-74507268D01*
X139826819Y-74410680D01*
X139646768Y-74258875D01*
X139611640Y-74238261D01*
X139443652Y-74139682D01*
X139223314Y-74056530D01*
X138992092Y-74011811D01*
X138939171Y-74009000D01*
X138939164Y-74009000D01*
X137000834Y-74009000D01*
X136954197Y-74011477D01*
X136947908Y-74011811D01*
X136716686Y-74056530D01*
X136496348Y-74139682D01*
X136496346Y-74139682D01*
X136496346Y-74139683D01*
X136293231Y-74258875D01*
X136113180Y-74410680D01*
X135961375Y-74590731D01*
X135842183Y-74793846D01*
X135842182Y-74793848D01*
X135759030Y-75014186D01*
X135721722Y-75207091D01*
X135714311Y-75245409D01*
X135711500Y-75298335D01*
X135711500Y-77236665D01*
X135711779Y-77241912D01*
X135714311Y-77289592D01*
X135759030Y-77520814D01*
X135842182Y-77741152D01*
X135842183Y-77741153D01*
X135961375Y-77944268D01*
X136113180Y-78124319D01*
X136264986Y-78252310D01*
X136293232Y-78276125D01*
X136496348Y-78395318D01*
X136681300Y-78465116D01*
X136736828Y-78506367D01*
X136762211Y-78570716D01*
X136749797Y-78638768D01*
X136703329Y-78690011D01*
X136636811Y-78709000D01*
X133171362Y-78709000D01*
X133110799Y-78715511D01*
X132973794Y-78766611D01*
X132856738Y-78854238D01*
X132769111Y-78971294D01*
X132722526Y-79096195D01*
X132718011Y-79108299D01*
X132711500Y-79168862D01*
X132711500Y-82766138D01*
X131483500Y-82766138D01*
X131483500Y-82321362D01*
X131476989Y-82260799D01*
X131425889Y-82123796D01*
X131408771Y-82100929D01*
X131338261Y-82006738D01*
X131221205Y-81919111D01*
X131151866Y-81893249D01*
X131084201Y-81868011D01*
X131074796Y-81866999D01*
X131017973Y-81846290D01*
X130977346Y-81801488D01*
X130962275Y-81742916D01*
X130976233Y-81684069D01*
X131016002Y-81638507D01*
X131019300Y-81636198D01*
X131181198Y-81474300D01*
X131312523Y-81286749D01*
X131409284Y-81079243D01*
X131468543Y-80858087D01*
X131488498Y-80630000D01*
X131468543Y-80401913D01*
X131409284Y-80180757D01*
X131312523Y-79973251D01*
X131181198Y-79785700D01*
X131181197Y-79785699D01*
X131181195Y-79785696D01*
X131019303Y-79623804D01*
X130831748Y-79492476D01*
X130792543Y-79474195D01*
X130739525Y-79427700D01*
X130719792Y-79360000D01*
X130739525Y-79292300D01*
X130792543Y-79245805D01*
X130797163Y-79243650D01*
X130831749Y-79227523D01*
X131019300Y-79096198D01*
X131181198Y-78934300D01*
X131312523Y-78746749D01*
X131409284Y-78539243D01*
X131468543Y-78318087D01*
X131488498Y-78090000D01*
X131468543Y-77861913D01*
X131409284Y-77640757D01*
X131375590Y-77568500D01*
X131312522Y-77433249D01*
X131181195Y-77245696D01*
X131019303Y-77083804D01*
X130831750Y-76952477D01*
X130624243Y-76855715D01*
X130403087Y-76796457D01*
X130175000Y-76776502D01*
X129946912Y-76796457D01*
X129725756Y-76855715D01*
X129518249Y-76952477D01*
X129330696Y-77083804D01*
X129168804Y-77245696D01*
X129037477Y-77433249D01*
X128940715Y-77640756D01*
X128881457Y-77861912D01*
X128861502Y-78090000D01*
X128881457Y-78318087D01*
X128940715Y-78539243D01*
X129037477Y-78746750D01*
X129168804Y-78934303D01*
X129330696Y-79096195D01*
X129330699Y-79096197D01*
X129330700Y-79096198D01*
X129518251Y-79227523D01*
X129553359Y-79243894D01*
X129557457Y-79245805D01*
X129610474Y-79292300D01*
X129630207Y-79360000D01*
X129610474Y-79427700D01*
X129557457Y-79474195D01*
X129518250Y-79492477D01*
X129330696Y-79623804D01*
X129168804Y-79785696D01*
X129037477Y-79973249D01*
X128940715Y-80180756D01*
X128881457Y-80401912D01*
X128861502Y-80630000D01*
X123868498Y-80630000D01*
X123848543Y-80401913D01*
X123789284Y-80180757D01*
X123692523Y-79973251D01*
X123561198Y-79785700D01*
X123561197Y-79785699D01*
X123561195Y-79785696D01*
X123399303Y-79623804D01*
X123211748Y-79492476D01*
X123172543Y-79474195D01*
X123119525Y-79427700D01*
X123099792Y-79360000D01*
X123119525Y-79292300D01*
X123172543Y-79245805D01*
X123177163Y-79243650D01*
X123211749Y-79227523D01*
X123399300Y-79096198D01*
X123561198Y-78934300D01*
X123692523Y-78746749D01*
X123789284Y-78539243D01*
X123848543Y-78318087D01*
X123868498Y-78090000D01*
X123848543Y-77861913D01*
X123789284Y-77640757D01*
X123755590Y-77568500D01*
X123692522Y-77433249D01*
X123561195Y-77245696D01*
X123399303Y-77083804D01*
X123211750Y-76952477D01*
X123004243Y-76855715D01*
X122783087Y-76796457D01*
X122555000Y-76776502D01*
X122326912Y-76796457D01*
X122105756Y-76855715D01*
X121898249Y-76952477D01*
X121710696Y-77083804D01*
X121548804Y-77245696D01*
X121417477Y-77433249D01*
X121320715Y-77640756D01*
X121261457Y-77861912D01*
X121241502Y-78089999D01*
X121261457Y-78318087D01*
X121320715Y-78539243D01*
X121417477Y-78746750D01*
X121548804Y-78934303D01*
X121710696Y-79096195D01*
X121710699Y-79096197D01*
X121710700Y-79096198D01*
X121898251Y-79227523D01*
X121933359Y-79243894D01*
X121937457Y-79245805D01*
X121990474Y-79292300D01*
X122010207Y-79360000D01*
X121990474Y-79427700D01*
X121937457Y-79474195D01*
X121898250Y-79492477D01*
X121710696Y-79623804D01*
X121548804Y-79785696D01*
X121417477Y-79973249D01*
X121320715Y-80180756D01*
X121261457Y-80401912D01*
X121241502Y-80629999D01*
X121261457Y-80858087D01*
X121320715Y-81079243D01*
X121417477Y-81286750D01*
X121548804Y-81474303D01*
X121710696Y-81636195D01*
X121710699Y-81636197D01*
X121710700Y-81636198D01*
X121898251Y-81767523D01*
X121933359Y-81783894D01*
X121937457Y-81785805D01*
X121990474Y-81832300D01*
X122010207Y-81900000D01*
X121990474Y-81967700D01*
X121937457Y-82014195D01*
X121898250Y-82032477D01*
X121710696Y-82163804D01*
X121548804Y-82325696D01*
X121417477Y-82513249D01*
X121320715Y-82720756D01*
X121261457Y-82941912D01*
X121241502Y-83169999D01*
X119274660Y-83169999D01*
X119354284Y-82999243D01*
X119413543Y-82778087D01*
X119433498Y-82550000D01*
X119413543Y-82321913D01*
X119354284Y-82100757D01*
X119322444Y-82032476D01*
X119257522Y-81893249D01*
X119152257Y-81742916D01*
X119126198Y-81705700D01*
X119126197Y-81705699D01*
X119126195Y-81705696D01*
X118964303Y-81543804D01*
X118776748Y-81412476D01*
X118737543Y-81394195D01*
X118684525Y-81347700D01*
X118664792Y-81280000D01*
X118684525Y-81212300D01*
X118737543Y-81165805D01*
X118742163Y-81163650D01*
X118776749Y-81147523D01*
X118964300Y-81016198D01*
X119126198Y-80854300D01*
X119257523Y-80666749D01*
X119354284Y-80459243D01*
X119413543Y-80238087D01*
X119433498Y-80010000D01*
X119413543Y-79781913D01*
X119354284Y-79560757D01*
X119349421Y-79550329D01*
X119257522Y-79353249D01*
X119126195Y-79165696D01*
X118964303Y-79003804D01*
X118776748Y-78872476D01*
X118737543Y-78854195D01*
X118684525Y-78807700D01*
X118664792Y-78740000D01*
X118684525Y-78672300D01*
X118737543Y-78625805D01*
X118742163Y-78623650D01*
X118776749Y-78607523D01*
X118964300Y-78476198D01*
X119126198Y-78314300D01*
X119257523Y-78126749D01*
X119354284Y-77919243D01*
X119413543Y-77698087D01*
X119433498Y-77470000D01*
X119413543Y-77241913D01*
X119354284Y-77020757D01*
X119257523Y-76813251D01*
X119126198Y-76625700D01*
X119126197Y-76625699D01*
X119126195Y-76625696D01*
X118964303Y-76463804D01*
X118776748Y-76332476D01*
X118737543Y-76314195D01*
X118684525Y-76267700D01*
X118664792Y-76200000D01*
X118684525Y-76132300D01*
X118737543Y-76085805D01*
X118742163Y-76083650D01*
X118776749Y-76067523D01*
X118964300Y-75936198D01*
X119126198Y-75774300D01*
X119257523Y-75586749D01*
X119354284Y-75379243D01*
X119413543Y-75158087D01*
X119433498Y-74930000D01*
X119413543Y-74701913D01*
X119361388Y-74507268D01*
X119354284Y-74480756D01*
X119257522Y-74273249D01*
X119126195Y-74085696D01*
X118964303Y-73923804D01*
X118776748Y-73792476D01*
X118737543Y-73774195D01*
X118684525Y-73727700D01*
X118664792Y-73660000D01*
X118684525Y-73592300D01*
X118737543Y-73545805D01*
X118742163Y-73543650D01*
X118776749Y-73527523D01*
X118964300Y-73396198D01*
X119126198Y-73234300D01*
X119257523Y-73046749D01*
X119354284Y-72839243D01*
X119413543Y-72618087D01*
X119433498Y-72390000D01*
X119413543Y-72161913D01*
X119354284Y-71940757D01*
X119257523Y-71733251D01*
X119215342Y-71673011D01*
X119126195Y-71545696D01*
X118964303Y-71383804D01*
X118776748Y-71252476D01*
X118737543Y-71234195D01*
X118684525Y-71187700D01*
X118664792Y-71120000D01*
X118684525Y-71052300D01*
X118737543Y-71005805D01*
X118742163Y-71003650D01*
X118776749Y-70987523D01*
X118964300Y-70856198D01*
X119126198Y-70694300D01*
X119257523Y-70506749D01*
X119267665Y-70485000D01*
X123096844Y-70485000D01*
X123115436Y-70709368D01*
X123115436Y-70709371D01*
X123115437Y-70709372D01*
X123170702Y-70927611D01*
X123261139Y-71133790D01*
X123384278Y-71322268D01*
X123527475Y-71477820D01*
X123556712Y-71531424D01*
X123557315Y-71592480D01*
X123529141Y-71646650D01*
X123478808Y-71681213D01*
X123452972Y-71690849D01*
X123363793Y-71724111D01*
X123246738Y-71811738D01*
X123159111Y-71928794D01*
X123108011Y-72065799D01*
X123101500Y-72126362D01*
X123101500Y-73923638D01*
X123108011Y-73984200D01*
X123159111Y-74121205D01*
X123246738Y-74238261D01*
X123363794Y-74325888D01*
X123363795Y-74325888D01*
X123363796Y-74325889D01*
X123500799Y-74376989D01*
X123561362Y-74383500D01*
X125358638Y-74383500D01*
X125419201Y-74376989D01*
X125556204Y-74325889D01*
X125597467Y-74295000D01*
X127691884Y-74295000D01*
X127710314Y-74505655D01*
X127765043Y-74709909D01*
X127854411Y-74901559D01*
X127975701Y-75074779D01*
X128125220Y-75224298D01*
X128125223Y-75224300D01*
X128125224Y-75224301D01*
X128155371Y-75245410D01*
X128298440Y-75345588D01*
X128298441Y-75345588D01*
X128298442Y-75345589D01*
X128490090Y-75434956D01*
X128694345Y-75489686D01*
X128905000Y-75508116D01*
X129115655Y-75489686D01*
X129319910Y-75434956D01*
X129511558Y-75345589D01*
X129684776Y-75224301D01*
X129834301Y-75074776D01*
X129955589Y-74901558D01*
X130044956Y-74709910D01*
X130099686Y-74505655D01*
X130118116Y-74295000D01*
X130099686Y-74084345D01*
X130044956Y-73880090D01*
X129955589Y-73688442D01*
X129834301Y-73515224D01*
X129834300Y-73515223D01*
X129834298Y-73515220D01*
X129684779Y-73365701D01*
X129511559Y-73244411D01*
X129319909Y-73155043D01*
X129115655Y-73100314D01*
X128905000Y-73081884D01*
X128694344Y-73100314D01*
X128490090Y-73155043D01*
X128298440Y-73244411D01*
X128125220Y-73365701D01*
X127975701Y-73515220D01*
X127854411Y-73688440D01*
X127765043Y-73880090D01*
X127710314Y-74084344D01*
X127691884Y-74295000D01*
X125597467Y-74295000D01*
X125673261Y-74238261D01*
X125760889Y-74121204D01*
X125811989Y-73984201D01*
X125818500Y-73923638D01*
X125818500Y-72126362D01*
X125811989Y-72065799D01*
X125760889Y-71928796D01*
X125700406Y-71848000D01*
X125673261Y-71811738D01*
X125556205Y-71724111D01*
X125494670Y-71701159D01*
X125441191Y-71681213D01*
X125390858Y-71646650D01*
X125362684Y-71592480D01*
X125363287Y-71531424D01*
X125392522Y-71477822D01*
X125535722Y-71322268D01*
X125658860Y-71133791D01*
X125749296Y-70927616D01*
X125795794Y-70744000D01*
X131992000Y-70744000D01*
X131992000Y-71388589D01*
X131998505Y-71449093D01*
X132049554Y-71585962D01*
X132137095Y-71702904D01*
X132254037Y-71790445D01*
X132390906Y-71841494D01*
X132451411Y-71848000D01*
X133096000Y-71848000D01*
X133096000Y-70744000D01*
X133604000Y-70744000D01*
X133604000Y-71848000D01*
X134248589Y-71848000D01*
X134309093Y-71841494D01*
X134445962Y-71790445D01*
X134562904Y-71702904D01*
X134650445Y-71585962D01*
X134701494Y-71449093D01*
X134708000Y-71388589D01*
X134708000Y-70744000D01*
X133604000Y-70744000D01*
X133096000Y-70744000D01*
X131992000Y-70744000D01*
X125795794Y-70744000D01*
X125804564Y-70709368D01*
X125823156Y-70485000D01*
X125804564Y-70260632D01*
X125749296Y-70042384D01*
X125658860Y-69836209D01*
X125535722Y-69647732D01*
X125383240Y-69482094D01*
X125383239Y-69482093D01*
X125383237Y-69482091D01*
X125205578Y-69343812D01*
X125007573Y-69236657D01*
X124863427Y-69187172D01*
X124794635Y-69163556D01*
X124572569Y-69126500D01*
X124347431Y-69126500D01*
X124125365Y-69163556D01*
X124125362Y-69163556D01*
X124125362Y-69163557D01*
X123912426Y-69236657D01*
X123714421Y-69343812D01*
X123536762Y-69482091D01*
X123384278Y-69647731D01*
X123261139Y-69836209D01*
X123170702Y-70042388D01*
X123115437Y-70260627D01*
X123115436Y-70260632D01*
X123096844Y-70485000D01*
X119267665Y-70485000D01*
X119354284Y-70299243D01*
X119413543Y-70078087D01*
X119433498Y-69850000D01*
X119413543Y-69621913D01*
X119354284Y-69400757D01*
X119351150Y-69394037D01*
X119257522Y-69193249D01*
X119126195Y-69005696D01*
X118964303Y-68843804D01*
X118776748Y-68712476D01*
X118737543Y-68694195D01*
X118684525Y-68647700D01*
X118664792Y-68580000D01*
X118684525Y-68512300D01*
X118737543Y-68465805D01*
X118742163Y-68463650D01*
X118776749Y-68447523D01*
X118964300Y-68316198D01*
X119126198Y-68154300D01*
X119257523Y-67966749D01*
X119265333Y-67950000D01*
X131986844Y-67950000D01*
X132005436Y-68174368D01*
X132005436Y-68174371D01*
X132005437Y-68174372D01*
X132060702Y-68392611D01*
X132151139Y-68598790D01*
X132173665Y-68633268D01*
X132274278Y-68787268D01*
X132326324Y-68843805D01*
X132417841Y-68943217D01*
X132447078Y-68996821D01*
X132447681Y-69057877D01*
X132419507Y-69112047D01*
X132369173Y-69146611D01*
X132254036Y-69189554D01*
X132137095Y-69277095D01*
X132049554Y-69394037D01*
X131998505Y-69530906D01*
X131992000Y-69591411D01*
X131992000Y-70236000D01*
X134708000Y-70236000D01*
X134708000Y-69591411D01*
X134701494Y-69530906D01*
X134650445Y-69394037D01*
X134562904Y-69277095D01*
X134445962Y-69189554D01*
X134330827Y-69146611D01*
X134280492Y-69112047D01*
X134252318Y-69057877D01*
X134252921Y-68996821D01*
X134282155Y-68943220D01*
X134425722Y-68787268D01*
X134548860Y-68598791D01*
X134639296Y-68392616D01*
X134688326Y-68199000D01*
X140232000Y-68199000D01*
X140232000Y-69493589D01*
X140238505Y-69554093D01*
X140289554Y-69690962D01*
X140377095Y-69807904D01*
X140494037Y-69895445D01*
X140630906Y-69946494D01*
X140691411Y-69953000D01*
X141986000Y-69953000D01*
X141986000Y-68199000D01*
X142494000Y-68199000D01*
X142494000Y-69953000D01*
X143788589Y-69953000D01*
X143849093Y-69946494D01*
X143985962Y-69895445D01*
X144102904Y-69807904D01*
X144190445Y-69690962D01*
X144241494Y-69554093D01*
X144248000Y-69493589D01*
X144248000Y-68199000D01*
X142494000Y-68199000D01*
X141986000Y-68199000D01*
X140232000Y-68199000D01*
X134688326Y-68199000D01*
X134694564Y-68174368D01*
X134713156Y-67950000D01*
X134694564Y-67725632D01*
X134685794Y-67691000D01*
X140232000Y-67691000D01*
X141986000Y-67691000D01*
X141986000Y-65937000D01*
X142494000Y-65937000D01*
X142494000Y-67691000D01*
X144248000Y-67691000D01*
X144248000Y-66396411D01*
X144241494Y-66335906D01*
X144190445Y-66199037D01*
X144102904Y-66082095D01*
X143985962Y-65994554D01*
X143849093Y-65943505D01*
X143788589Y-65937000D01*
X142494000Y-65937000D01*
X141986000Y-65937000D01*
X140691411Y-65937000D01*
X140630906Y-65943505D01*
X140494037Y-65994554D01*
X140377095Y-66082095D01*
X140289554Y-66199037D01*
X140238505Y-66335906D01*
X140232000Y-66396411D01*
X140232000Y-67691000D01*
X134685794Y-67691000D01*
X134639296Y-67507384D01*
X134548860Y-67301209D01*
X134425722Y-67112732D01*
X134273240Y-66947094D01*
X134273239Y-66947093D01*
X134273237Y-66947091D01*
X134095578Y-66808812D01*
X133897573Y-66701657D01*
X133753427Y-66652172D01*
X133684635Y-66628556D01*
X133462569Y-66591500D01*
X133237431Y-66591500D01*
X133015365Y-66628556D01*
X133015362Y-66628556D01*
X133015362Y-66628557D01*
X132802426Y-66701657D01*
X132604421Y-66808812D01*
X132426762Y-66947091D01*
X132274278Y-67112731D01*
X132151139Y-67301209D01*
X132060702Y-67507388D01*
X132014206Y-67691000D01*
X132005436Y-67725632D01*
X131986844Y-67950000D01*
X119265333Y-67950000D01*
X119354284Y-67759243D01*
X119413543Y-67538087D01*
X119433498Y-67310000D01*
X119413543Y-67081913D01*
X119370162Y-66920014D01*
X119354284Y-66860756D01*
X119257522Y-66653249D01*
X119126195Y-66465696D01*
X118964303Y-66303804D01*
X118776750Y-66172477D01*
X118569243Y-66075715D01*
X118417291Y-66035000D01*
X123096844Y-66035000D01*
X123115436Y-66259368D01*
X123115436Y-66259371D01*
X123115437Y-66259372D01*
X123170702Y-66477611D01*
X123261139Y-66683790D01*
X123384278Y-66872268D01*
X123536762Y-67037908D01*
X123632894Y-67112731D01*
X123714424Y-67176189D01*
X123912426Y-67283342D01*
X124125365Y-67356444D01*
X124347431Y-67393500D01*
X124572566Y-67393500D01*
X124572569Y-67393500D01*
X124794635Y-67356444D01*
X125007574Y-67283342D01*
X125205576Y-67176189D01*
X125383240Y-67037906D01*
X125535722Y-66872268D01*
X125658860Y-66683791D01*
X125662716Y-66674999D01*
X127691884Y-66674999D01*
X127710314Y-66885655D01*
X127765043Y-67089909D01*
X127854411Y-67281559D01*
X127975701Y-67454779D01*
X128125220Y-67604298D01*
X128298440Y-67725588D01*
X128298441Y-67725588D01*
X128298442Y-67725589D01*
X128490090Y-67814956D01*
X128694345Y-67869686D01*
X128905000Y-67888116D01*
X129115655Y-67869686D01*
X129319910Y-67814956D01*
X129511558Y-67725589D01*
X129684776Y-67604301D01*
X129834301Y-67454776D01*
X129955589Y-67281558D01*
X130044956Y-67089910D01*
X130099686Y-66885655D01*
X130118116Y-66675000D01*
X130099686Y-66464345D01*
X130044956Y-66260090D01*
X129955589Y-66068442D01*
X129834301Y-65895224D01*
X129834300Y-65895223D01*
X129834298Y-65895220D01*
X129750673Y-65811595D01*
X129718061Y-65755111D01*
X129718061Y-65689889D01*
X129750673Y-65633405D01*
X129834298Y-65549779D01*
X129834301Y-65549776D01*
X129955589Y-65376558D01*
X130044956Y-65184910D01*
X130099686Y-64980655D01*
X130118116Y-64770000D01*
X130099686Y-64559345D01*
X130044956Y-64355090D01*
X129955589Y-64163442D01*
X129936025Y-64135502D01*
X129834298Y-63990220D01*
X129684779Y-63840701D01*
X129511559Y-63719411D01*
X129319909Y-63630043D01*
X129115655Y-63575314D01*
X128905000Y-63556884D01*
X128694344Y-63575314D01*
X128490090Y-63630043D01*
X128298440Y-63719411D01*
X128125220Y-63840701D01*
X127975701Y-63990220D01*
X127854411Y-64163440D01*
X127765043Y-64355090D01*
X127710314Y-64559344D01*
X127691884Y-64769999D01*
X127710314Y-64980655D01*
X127765043Y-65184909D01*
X127854411Y-65376559D01*
X127975701Y-65549779D01*
X128059327Y-65633405D01*
X128091939Y-65689889D01*
X128091939Y-65755111D01*
X128059327Y-65811595D01*
X127975701Y-65895220D01*
X127854411Y-66068440D01*
X127765043Y-66260090D01*
X127710314Y-66464344D01*
X127691884Y-66674999D01*
X125662716Y-66674999D01*
X125749296Y-66477616D01*
X125804564Y-66259368D01*
X125823156Y-66035000D01*
X125804564Y-65810632D01*
X125749296Y-65592384D01*
X125658860Y-65386209D01*
X125535722Y-65197732D01*
X125392523Y-65042178D01*
X125363287Y-64988575D01*
X125362684Y-64927519D01*
X125390859Y-64873348D01*
X125441188Y-64838787D01*
X125556204Y-64795889D01*
X125673261Y-64708261D01*
X125760889Y-64591204D01*
X125811989Y-64454201D01*
X125818500Y-64393638D01*
X125818500Y-63119000D01*
X131992000Y-63119000D01*
X131992000Y-63763589D01*
X131998505Y-63824093D01*
X132049554Y-63960962D01*
X132137095Y-64077904D01*
X132254037Y-64165445D01*
X132390906Y-64216494D01*
X132451411Y-64223000D01*
X133096000Y-64223000D01*
X133096000Y-63119000D01*
X133604000Y-63119000D01*
X133604000Y-64223000D01*
X134248589Y-64223000D01*
X134309093Y-64216494D01*
X134445962Y-64165445D01*
X134562904Y-64077904D01*
X134650445Y-63960962D01*
X134701494Y-63824093D01*
X134708000Y-63763589D01*
X134708000Y-63119000D01*
X133604000Y-63119000D01*
X133096000Y-63119000D01*
X131992000Y-63119000D01*
X125818500Y-63119000D01*
X125818500Y-62865000D01*
X140226807Y-62865000D01*
X140245557Y-63139124D01*
X140245557Y-63139128D01*
X140245558Y-63139130D01*
X140301462Y-63408153D01*
X140301463Y-63408155D01*
X140393476Y-63667057D01*
X140519889Y-63911024D01*
X140678343Y-64135502D01*
X140753984Y-64216494D01*
X140865889Y-64336314D01*
X141079031Y-64509718D01*
X141313800Y-64652484D01*
X141565823Y-64761953D01*
X141830404Y-64836085D01*
X141830410Y-64836085D01*
X141830411Y-64836086D01*
X142102612Y-64873500D01*
X142102615Y-64873500D01*
X142377385Y-64873500D01*
X142377388Y-64873500D01*
X142629952Y-64838785D01*
X142649596Y-64836085D01*
X142914177Y-64761953D01*
X143166200Y-64652484D01*
X143400969Y-64509718D01*
X143614111Y-64336314D01*
X143801657Y-64135502D01*
X143960111Y-63911023D01*
X144086523Y-63667058D01*
X144178538Y-63408153D01*
X144234442Y-63139130D01*
X144253193Y-62865000D01*
X144234442Y-62590870D01*
X144178538Y-62321847D01*
X144086523Y-62062942D01*
X144036505Y-61966411D01*
X143960110Y-61818975D01*
X143817363Y-61616749D01*
X143801657Y-61594498D01*
X143614111Y-61393686D01*
X143400969Y-61220282D01*
X143166200Y-61077516D01*
X142914177Y-60968047D01*
X142649596Y-60893915D01*
X142649594Y-60893914D01*
X142649588Y-60893913D01*
X142377388Y-60856500D01*
X142377385Y-60856500D01*
X142102615Y-60856500D01*
X142102612Y-60856500D01*
X141830411Y-60893913D01*
X141830403Y-60893915D01*
X141830404Y-60893915D01*
X141565823Y-60968047D01*
X141565821Y-60968047D01*
X141565820Y-60968048D01*
X141313801Y-61077515D01*
X141079030Y-61220282D01*
X140865887Y-61393687D01*
X140678343Y-61594497D01*
X140519889Y-61818975D01*
X140393476Y-62062942D01*
X140301463Y-62321844D01*
X140245557Y-62590875D01*
X140226807Y-62865000D01*
X125818500Y-62865000D01*
X125818500Y-62596362D01*
X125811989Y-62535799D01*
X125760889Y-62398796D01*
X125703286Y-62321847D01*
X125673261Y-62281738D01*
X125556205Y-62194111D01*
X125487702Y-62168560D01*
X125419201Y-62143011D01*
X125358638Y-62136500D01*
X123561362Y-62136500D01*
X123500799Y-62143011D01*
X123363794Y-62194111D01*
X123246738Y-62281738D01*
X123159111Y-62398794D01*
X123108011Y-62535799D01*
X123101500Y-62596362D01*
X123101500Y-64393638D01*
X123108011Y-64454200D01*
X123159111Y-64591205D01*
X123246738Y-64708261D01*
X123363794Y-64795888D01*
X123363795Y-64795888D01*
X123363796Y-64795889D01*
X123478809Y-64838787D01*
X123529140Y-64873348D01*
X123557315Y-64927519D01*
X123556712Y-64988574D01*
X123527475Y-65042178D01*
X123384281Y-65197728D01*
X123261139Y-65386209D01*
X123170702Y-65592388D01*
X123115437Y-65810627D01*
X123115436Y-65810632D01*
X123096844Y-66035000D01*
X118417291Y-66035000D01*
X118348087Y-66016457D01*
X118120000Y-65996502D01*
X117891912Y-66016457D01*
X117670756Y-66075715D01*
X117463249Y-66172477D01*
X117275696Y-66303804D01*
X117113804Y-66465696D01*
X116982477Y-66653249D01*
X116885715Y-66860756D01*
X116826457Y-67081912D01*
X116806502Y-67310000D01*
X116826457Y-67538087D01*
X116885715Y-67759243D01*
X116982477Y-67966750D01*
X117113804Y-68154303D01*
X117275696Y-68316195D01*
X117275699Y-68316197D01*
X117275700Y-68316198D01*
X117463251Y-68447523D01*
X117498359Y-68463894D01*
X117502457Y-68465805D01*
X117555474Y-68512300D01*
X117575207Y-68580000D01*
X117555474Y-68647700D01*
X117502457Y-68694195D01*
X117463250Y-68712477D01*
X117275696Y-68843804D01*
X117113804Y-69005696D01*
X116982477Y-69193249D01*
X116885715Y-69400756D01*
X116826457Y-69621912D01*
X116806502Y-69850000D01*
X116826457Y-70078087D01*
X116885715Y-70299243D01*
X116982477Y-70506750D01*
X117113804Y-70694303D01*
X117275696Y-70856195D01*
X117275699Y-70856197D01*
X117275700Y-70856198D01*
X117463251Y-70987523D01*
X117498359Y-71003894D01*
X117502457Y-71005805D01*
X117555474Y-71052300D01*
X117575207Y-71120000D01*
X117555474Y-71187700D01*
X117502457Y-71234195D01*
X117463250Y-71252477D01*
X117275696Y-71383804D01*
X117113804Y-71545696D01*
X116982477Y-71733249D01*
X116885715Y-71940756D01*
X116826457Y-72161912D01*
X116806502Y-72390000D01*
X116826457Y-72618087D01*
X116885715Y-72839243D01*
X116982477Y-73046750D01*
X117113804Y-73234303D01*
X117275696Y-73396195D01*
X117275699Y-73396197D01*
X117275700Y-73396198D01*
X117463251Y-73527523D01*
X117498359Y-73543894D01*
X117502457Y-73545805D01*
X117555474Y-73592300D01*
X117575207Y-73660000D01*
X117555474Y-73727700D01*
X117502457Y-73774195D01*
X117463250Y-73792477D01*
X117275696Y-73923804D01*
X117113804Y-74085696D01*
X116982477Y-74273249D01*
X116885715Y-74480756D01*
X116826457Y-74701912D01*
X116806502Y-74930000D01*
X116826457Y-75158087D01*
X116885715Y-75379243D01*
X116982477Y-75586750D01*
X117113804Y-75774303D01*
X117275696Y-75936195D01*
X117275699Y-75936197D01*
X117275700Y-75936198D01*
X117463251Y-76067523D01*
X117502457Y-76085805D01*
X117555473Y-76132298D01*
X117575207Y-76199997D01*
X117555475Y-76267697D01*
X117502459Y-76314193D01*
X117463251Y-76332476D01*
X117275696Y-76463804D01*
X117113804Y-76625696D01*
X116982477Y-76813249D01*
X116885715Y-77020756D01*
X116826457Y-77241912D01*
X116806502Y-77470000D01*
X116826457Y-77698087D01*
X116885715Y-77919243D01*
X116982477Y-78126750D01*
X117113804Y-78314303D01*
X117275696Y-78476195D01*
X117275699Y-78476197D01*
X117275700Y-78476198D01*
X117463251Y-78607523D01*
X117498359Y-78623894D01*
X117502457Y-78625805D01*
X117555474Y-78672300D01*
X117575207Y-78740000D01*
X117555474Y-78807700D01*
X117502457Y-78854195D01*
X117463250Y-78872477D01*
X117275696Y-79003804D01*
X117113804Y-79165696D01*
X116982477Y-79353249D01*
X116885715Y-79560756D01*
X116826457Y-79781912D01*
X116806502Y-80010000D01*
X116826457Y-80238087D01*
X116885715Y-80459243D01*
X116982477Y-80666750D01*
X117113804Y-80854303D01*
X117275696Y-81016195D01*
X117275699Y-81016197D01*
X117275700Y-81016198D01*
X117463251Y-81147523D01*
X117498359Y-81163894D01*
X117502457Y-81165805D01*
X117555474Y-81212300D01*
X117575207Y-81280000D01*
X117555474Y-81347700D01*
X117502457Y-81394195D01*
X117463250Y-81412477D01*
X117275696Y-81543804D01*
X117113804Y-81705696D01*
X116982477Y-81893249D01*
X116885715Y-82100756D01*
X116826457Y-82321912D01*
X116806502Y-82550000D01*
X99952617Y-82550000D01*
X99935353Y-82543561D01*
X99866852Y-82518011D01*
X99806289Y-82511500D01*
X98109013Y-82511500D01*
X98048450Y-82518011D01*
X97911445Y-82569111D01*
X97794389Y-82656738D01*
X97706762Y-82773794D01*
X97655662Y-82910799D01*
X97649151Y-82971362D01*
X97649151Y-84668638D01*
X95647080Y-84668638D01*
X95157652Y-84179210D01*
X95157651Y-84179210D01*
X94429761Y-84907098D01*
X94429761Y-84907100D01*
X88265500Y-84907100D01*
X88265500Y-83820000D01*
X93844655Y-83820000D01*
X93864602Y-84047999D01*
X93923837Y-84269070D01*
X94020563Y-84476497D01*
X94070551Y-84547887D01*
X94798440Y-83820001D01*
X95516861Y-83820001D01*
X96244748Y-84547888D01*
X96244750Y-84547888D01*
X96294738Y-84476498D01*
X96391464Y-84269070D01*
X96450699Y-84047999D01*
X96470646Y-83820000D01*
X96450699Y-83592000D01*
X96391464Y-83370929D01*
X96294736Y-83163497D01*
X96244751Y-83092110D01*
X96244749Y-83092110D01*
X95516861Y-83820000D01*
X95516861Y-83820001D01*
X94798440Y-83820001D01*
X94798441Y-83820000D01*
X94798441Y-83819999D01*
X94070551Y-83092109D01*
X94020564Y-83163499D01*
X93923837Y-83370929D01*
X93864602Y-83592000D01*
X93844655Y-83820000D01*
X88265500Y-83820000D01*
X88265500Y-82732900D01*
X94429760Y-82732900D01*
X95157650Y-83460790D01*
X95157651Y-83460790D01*
X95885539Y-82732899D01*
X95814148Y-82682912D01*
X95606721Y-82586186D01*
X95385650Y-82526951D01*
X95157651Y-82507004D01*
X94929651Y-82526951D01*
X94708580Y-82586186D01*
X94501150Y-82682913D01*
X94429760Y-82732900D01*
X88265500Y-82732900D01*
X88265500Y-80010000D01*
X104106502Y-80010000D01*
X104126457Y-80238087D01*
X104185715Y-80459243D01*
X104282477Y-80666750D01*
X104413804Y-80854303D01*
X104575696Y-81016195D01*
X104575699Y-81016197D01*
X104575700Y-81016198D01*
X104763251Y-81147523D01*
X104803049Y-81166081D01*
X104856065Y-81212573D01*
X104875799Y-81280273D01*
X104856067Y-81347973D01*
X104803051Y-81394469D01*
X104763502Y-81412911D01*
X104576018Y-81544189D01*
X104414189Y-81706018D01*
X104282912Y-81893501D01*
X104186186Y-82100929D01*
X104133917Y-82296000D01*
X106706082Y-82296000D01*
X106653813Y-82100929D01*
X106557087Y-81893501D01*
X106425810Y-81706018D01*
X106263981Y-81544189D01*
X106076497Y-81412911D01*
X106036951Y-81394471D01*
X105983933Y-81347976D01*
X105964200Y-81280276D01*
X105983933Y-81212576D01*
X106036951Y-81166081D01*
X106037784Y-81165692D01*
X106076749Y-81147523D01*
X106264300Y-81016198D01*
X106426198Y-80854300D01*
X106557523Y-80666749D01*
X106654284Y-80459243D01*
X106713543Y-80238087D01*
X106733498Y-80010000D01*
X106713543Y-79781913D01*
X106654284Y-79560757D01*
X106649421Y-79550329D01*
X106557522Y-79353249D01*
X106426195Y-79165696D01*
X106264303Y-79003804D01*
X106076748Y-78872476D01*
X106037543Y-78854195D01*
X105984525Y-78807700D01*
X105964792Y-78740000D01*
X105984525Y-78672300D01*
X106037543Y-78625805D01*
X106042163Y-78623650D01*
X106076749Y-78607523D01*
X106264300Y-78476198D01*
X106426198Y-78314300D01*
X106557523Y-78126749D01*
X106654284Y-77919243D01*
X106713543Y-77698087D01*
X106733498Y-77470000D01*
X106713543Y-77241913D01*
X106654284Y-77020757D01*
X106557523Y-76813251D01*
X106426198Y-76625700D01*
X106426197Y-76625699D01*
X106426195Y-76625696D01*
X106264303Y-76463804D01*
X106076748Y-76332476D01*
X106037543Y-76314195D01*
X105984525Y-76267700D01*
X105964792Y-76200000D01*
X105984525Y-76132300D01*
X106037543Y-76085805D01*
X106042163Y-76083650D01*
X106076749Y-76067523D01*
X106264300Y-75936198D01*
X106426198Y-75774300D01*
X106557523Y-75586749D01*
X106654284Y-75379243D01*
X106713543Y-75158087D01*
X106733498Y-74930000D01*
X106713543Y-74701913D01*
X106661388Y-74507268D01*
X106654284Y-74480756D01*
X106557522Y-74273249D01*
X106426195Y-74085696D01*
X106264303Y-73923804D01*
X106076748Y-73792476D01*
X106037543Y-73774195D01*
X105984525Y-73727700D01*
X105964792Y-73660000D01*
X105984525Y-73592300D01*
X106037543Y-73545805D01*
X106042163Y-73543650D01*
X106076749Y-73527523D01*
X106264300Y-73396198D01*
X106426198Y-73234300D01*
X106557523Y-73046749D01*
X106654284Y-72839243D01*
X106713543Y-72618087D01*
X106733498Y-72390000D01*
X106713543Y-72161913D01*
X106654284Y-71940757D01*
X106557523Y-71733251D01*
X106515342Y-71673011D01*
X106426195Y-71545696D01*
X106264303Y-71383804D01*
X106076748Y-71252476D01*
X106037543Y-71234195D01*
X105984525Y-71187700D01*
X105964792Y-71120000D01*
X105984525Y-71052300D01*
X106037543Y-71005805D01*
X106042163Y-71003650D01*
X106076749Y-70987523D01*
X106264300Y-70856198D01*
X106426198Y-70694300D01*
X106557523Y-70506749D01*
X106654284Y-70299243D01*
X106713543Y-70078087D01*
X106733498Y-69850000D01*
X106713543Y-69621913D01*
X106654284Y-69400757D01*
X106651150Y-69394037D01*
X106557522Y-69193249D01*
X106426195Y-69005696D01*
X106264303Y-68843804D01*
X106260374Y-68841053D01*
X106220605Y-68795488D01*
X106206649Y-68736640D01*
X106221722Y-68678069D01*
X106262351Y-68633268D01*
X106319175Y-68612561D01*
X106329093Y-68611494D01*
X106465962Y-68560445D01*
X106582904Y-68472904D01*
X106670445Y-68355962D01*
X106721494Y-68219093D01*
X106728000Y-68158589D01*
X106728000Y-67564000D01*
X104112000Y-67564000D01*
X104112000Y-68158589D01*
X104118505Y-68219093D01*
X104169554Y-68355962D01*
X104257095Y-68472904D01*
X104374037Y-68560445D01*
X104510906Y-68611494D01*
X104520824Y-68612561D01*
X104577648Y-68633268D01*
X104618277Y-68678068D01*
X104633350Y-68736638D01*
X104619396Y-68795485D01*
X104579629Y-68841051D01*
X104575695Y-68843805D01*
X104413804Y-69005696D01*
X104282477Y-69193249D01*
X104185715Y-69400756D01*
X104126457Y-69621912D01*
X104106502Y-69850000D01*
X104126457Y-70078087D01*
X104185715Y-70299243D01*
X104282477Y-70506750D01*
X104413804Y-70694303D01*
X104575696Y-70856195D01*
X104575699Y-70856197D01*
X104575700Y-70856198D01*
X104763251Y-70987523D01*
X104798359Y-71003894D01*
X104802457Y-71005805D01*
X104855474Y-71052300D01*
X104875207Y-71120000D01*
X104855474Y-71187700D01*
X104802457Y-71234195D01*
X104763250Y-71252477D01*
X104575696Y-71383804D01*
X104413804Y-71545696D01*
X104282477Y-71733249D01*
X104185715Y-71940756D01*
X104126457Y-72161912D01*
X104106502Y-72390000D01*
X104126457Y-72618087D01*
X104185715Y-72839243D01*
X104282477Y-73046750D01*
X104413804Y-73234303D01*
X104575696Y-73396195D01*
X104575699Y-73396197D01*
X104575700Y-73396198D01*
X104763251Y-73527523D01*
X104798359Y-73543894D01*
X104802457Y-73545805D01*
X104855474Y-73592300D01*
X104875207Y-73660000D01*
X104855474Y-73727700D01*
X104802457Y-73774195D01*
X104763250Y-73792477D01*
X104575696Y-73923804D01*
X104413804Y-74085696D01*
X104282477Y-74273249D01*
X104185715Y-74480756D01*
X104126457Y-74701912D01*
X104106502Y-74930000D01*
X104126457Y-75158087D01*
X104185715Y-75379243D01*
X104282477Y-75586750D01*
X104413804Y-75774303D01*
X104575696Y-75936195D01*
X104575699Y-75936197D01*
X104575700Y-75936198D01*
X104763251Y-76067523D01*
X104802457Y-76085805D01*
X104855473Y-76132298D01*
X104875207Y-76199997D01*
X104855475Y-76267697D01*
X104802459Y-76314193D01*
X104763251Y-76332476D01*
X104575696Y-76463804D01*
X104413804Y-76625696D01*
X104282477Y-76813249D01*
X104185715Y-77020756D01*
X104126457Y-77241912D01*
X104106502Y-77470000D01*
X104126457Y-77698087D01*
X104185715Y-77919243D01*
X104282477Y-78126750D01*
X104413804Y-78314303D01*
X104575696Y-78476195D01*
X104575699Y-78476197D01*
X104575700Y-78476198D01*
X104763251Y-78607523D01*
X104798359Y-78623894D01*
X104802457Y-78625805D01*
X104855474Y-78672300D01*
X104875207Y-78740000D01*
X104855474Y-78807700D01*
X104802457Y-78854195D01*
X104763250Y-78872477D01*
X104575696Y-79003804D01*
X104413804Y-79165696D01*
X104282477Y-79353249D01*
X104185715Y-79560756D01*
X104126457Y-79781912D01*
X104106502Y-80010000D01*
X88265500Y-80010000D01*
X88265500Y-76210000D01*
X91346844Y-76210000D01*
X91365436Y-76434368D01*
X91365436Y-76434371D01*
X91365437Y-76434372D01*
X91420702Y-76652611D01*
X91511139Y-76858790D01*
X91634278Y-77047268D01*
X91786762Y-77212908D01*
X91828888Y-77245696D01*
X91964424Y-77351189D01*
X92162426Y-77458342D01*
X92375365Y-77531444D01*
X92597431Y-77568500D01*
X92822566Y-77568500D01*
X92822569Y-77568500D01*
X93044635Y-77531444D01*
X93257574Y-77458342D01*
X93455576Y-77351189D01*
X93633240Y-77212906D01*
X93785722Y-77047268D01*
X93908860Y-76858791D01*
X93999296Y-76652616D01*
X94054564Y-76434368D01*
X94073156Y-76210000D01*
X94054564Y-75985632D01*
X93999296Y-75767384D01*
X93908860Y-75561209D01*
X93785722Y-75372732D01*
X93633240Y-75207094D01*
X93633239Y-75207093D01*
X93633237Y-75207091D01*
X93455579Y-75068813D01*
X93455577Y-75068812D01*
X93455576Y-75068811D01*
X93422317Y-75050812D01*
X93374047Y-75004498D01*
X93356288Y-74940000D01*
X93374047Y-74875502D01*
X93422317Y-74829187D01*
X93455576Y-74811189D01*
X93633240Y-74672906D01*
X93785722Y-74507268D01*
X93908860Y-74318791D01*
X93999296Y-74112616D01*
X94054564Y-73894368D01*
X94073156Y-73670000D01*
X94054564Y-73445632D01*
X93999296Y-73227384D01*
X93908860Y-73021209D01*
X93785722Y-72832732D01*
X93633240Y-72667094D01*
X93633239Y-72667093D01*
X93633237Y-72667091D01*
X93455579Y-72528813D01*
X93455577Y-72528812D01*
X93455576Y-72528811D01*
X93422317Y-72510812D01*
X93374047Y-72464498D01*
X93356288Y-72400000D01*
X93374047Y-72335502D01*
X93422317Y-72289187D01*
X93455576Y-72271189D01*
X93633240Y-72132906D01*
X93785722Y-71967268D01*
X93908860Y-71778791D01*
X93999296Y-71572616D01*
X94054564Y-71354368D01*
X94073156Y-71130000D01*
X94054564Y-70905632D01*
X93999296Y-70687384D01*
X93908860Y-70481209D01*
X93785722Y-70292732D01*
X93642523Y-70137178D01*
X93613287Y-70083575D01*
X93612684Y-70022519D01*
X93640859Y-69968348D01*
X93691188Y-69933787D01*
X93806204Y-69890889D01*
X93923261Y-69803261D01*
X94010889Y-69686204D01*
X94061989Y-69549201D01*
X94068500Y-69488638D01*
X94068500Y-69210000D01*
X98966844Y-69210000D01*
X98985436Y-69434368D01*
X98985436Y-69434371D01*
X98985437Y-69434372D01*
X99040702Y-69652611D01*
X99131139Y-69858790D01*
X99254278Y-70047268D01*
X99406762Y-70212908D01*
X99584421Y-70351187D01*
X99584424Y-70351189D01*
X99782426Y-70458342D01*
X99995365Y-70531444D01*
X100217431Y-70568500D01*
X100442566Y-70568500D01*
X100442569Y-70568500D01*
X100664635Y-70531444D01*
X100877574Y-70458342D01*
X101075576Y-70351189D01*
X101253240Y-70212906D01*
X101405722Y-70047268D01*
X101528860Y-69858791D01*
X101619296Y-69652616D01*
X101674564Y-69434368D01*
X101693156Y-69210000D01*
X101674564Y-68985632D01*
X101619296Y-68767384D01*
X101528860Y-68561209D01*
X101405722Y-68372732D01*
X101262523Y-68217178D01*
X101233287Y-68163575D01*
X101232684Y-68102519D01*
X101260859Y-68048348D01*
X101311188Y-68013787D01*
X101426204Y-67970889D01*
X101543261Y-67883261D01*
X101630889Y-67766204D01*
X101681989Y-67629201D01*
X101688500Y-67568638D01*
X101688500Y-67056000D01*
X104112000Y-67056000D01*
X105166000Y-67056000D01*
X105166000Y-66002000D01*
X105674000Y-66002000D01*
X105674000Y-67056000D01*
X106728000Y-67056000D01*
X106728000Y-66461411D01*
X106721494Y-66400906D01*
X106670445Y-66264037D01*
X106582904Y-66147095D01*
X106465962Y-66059554D01*
X106329093Y-66008505D01*
X106268589Y-66002000D01*
X105674000Y-66002000D01*
X105166000Y-66002000D01*
X104571411Y-66002000D01*
X104510906Y-66008505D01*
X104374037Y-66059554D01*
X104257095Y-66147095D01*
X104169554Y-66264037D01*
X104118505Y-66400906D01*
X104112000Y-66461411D01*
X104112000Y-67056000D01*
X101688500Y-67056000D01*
X101688500Y-65771362D01*
X101681989Y-65710799D01*
X101630889Y-65573796D01*
X101630888Y-65573794D01*
X101543261Y-65456738D01*
X101426205Y-65369111D01*
X101357702Y-65343560D01*
X101289201Y-65318011D01*
X101228638Y-65311500D01*
X99431362Y-65311500D01*
X99370799Y-65318011D01*
X99233794Y-65369111D01*
X99116738Y-65456738D01*
X99029111Y-65573794D01*
X98978011Y-65710799D01*
X98971500Y-65771362D01*
X98971500Y-67568638D01*
X98978011Y-67629200D01*
X99029111Y-67766205D01*
X99116738Y-67883261D01*
X99233794Y-67970888D01*
X99233795Y-67970888D01*
X99233796Y-67970889D01*
X99348809Y-68013787D01*
X99399140Y-68048348D01*
X99427315Y-68102519D01*
X99426712Y-68163574D01*
X99397475Y-68217178D01*
X99254281Y-68372728D01*
X99254279Y-68372730D01*
X99254278Y-68372732D01*
X99241287Y-68392616D01*
X99131139Y-68561209D01*
X99040702Y-68767388D01*
X98996177Y-68943217D01*
X98985436Y-68985632D01*
X98966844Y-69210000D01*
X94068500Y-69210000D01*
X94068500Y-67691362D01*
X94061989Y-67630799D01*
X94010889Y-67493796D01*
X94010888Y-67493794D01*
X93923261Y-67376738D01*
X93806205Y-67289111D01*
X93737702Y-67263560D01*
X93669201Y-67238011D01*
X93608638Y-67231500D01*
X91811362Y-67231500D01*
X91750799Y-67238011D01*
X91613794Y-67289111D01*
X91496738Y-67376738D01*
X91409111Y-67493794D01*
X91358011Y-67630799D01*
X91351500Y-67691362D01*
X91351500Y-69488638D01*
X91358011Y-69549200D01*
X91409111Y-69686205D01*
X91496738Y-69803261D01*
X91613794Y-69890888D01*
X91613795Y-69890888D01*
X91613796Y-69890889D01*
X91728809Y-69933787D01*
X91779140Y-69968348D01*
X91807315Y-70022519D01*
X91806712Y-70083574D01*
X91777475Y-70137178D01*
X91634281Y-70292728D01*
X91511139Y-70481209D01*
X91420702Y-70687388D01*
X91377955Y-70856195D01*
X91365436Y-70905632D01*
X91346844Y-71130000D01*
X91365436Y-71354368D01*
X91365436Y-71354371D01*
X91365437Y-71354372D01*
X91420702Y-71572611D01*
X91511139Y-71778790D01*
X91634278Y-71967268D01*
X91786762Y-72132908D01*
X91964418Y-72271185D01*
X91964420Y-72271186D01*
X91964424Y-72271189D01*
X91997682Y-72289187D01*
X92045952Y-72335503D01*
X92063711Y-72400000D01*
X92045952Y-72464497D01*
X91997682Y-72510812D01*
X91972794Y-72524281D01*
X91964418Y-72528814D01*
X91786762Y-72667091D01*
X91634278Y-72832731D01*
X91511139Y-73021209D01*
X91420702Y-73227388D01*
X91385677Y-73365701D01*
X91365436Y-73445632D01*
X91346844Y-73670000D01*
X91365436Y-73894368D01*
X91365436Y-73894371D01*
X91365437Y-73894372D01*
X91420702Y-74112611D01*
X91420703Y-74112614D01*
X91420704Y-74112616D01*
X91432576Y-74139682D01*
X91511139Y-74318790D01*
X91634278Y-74507268D01*
X91786762Y-74672908D01*
X91964418Y-74811185D01*
X91964420Y-74811186D01*
X91964424Y-74811189D01*
X91997682Y-74829187D01*
X92045952Y-74875503D01*
X92063711Y-74940000D01*
X92045952Y-75004497D01*
X91997682Y-75050812D01*
X91972794Y-75064281D01*
X91964418Y-75068814D01*
X91786762Y-75207091D01*
X91634278Y-75372731D01*
X91511139Y-75561209D01*
X91420702Y-75767388D01*
X91377955Y-75936195D01*
X91365436Y-75985632D01*
X91346844Y-76210000D01*
X88265500Y-76210000D01*
X88265500Y-61808638D01*
X91401500Y-61808638D01*
X91408011Y-61869201D01*
X91433561Y-61937702D01*
X91459111Y-62006205D01*
X91546738Y-62123261D01*
X91663794Y-62210888D01*
X91663795Y-62210888D01*
X91663796Y-62210889D01*
X91800799Y-62261989D01*
X91861362Y-62268500D01*
X93558638Y-62268500D01*
X93619201Y-62261989D01*
X93756204Y-62210889D01*
X93873261Y-62123261D01*
X93960889Y-62006204D01*
X94011989Y-61869201D01*
X94012999Y-61859800D01*
X94033706Y-61802978D01*
X94078506Y-61762348D01*
X94137077Y-61747275D01*
X94195924Y-61761230D01*
X94241490Y-61800998D01*
X94243804Y-61804303D01*
X94405696Y-61966195D01*
X94593249Y-62097522D01*
X94800756Y-62194284D01*
X94860014Y-62210162D01*
X95021913Y-62253543D01*
X95250000Y-62273498D01*
X95478087Y-62253543D01*
X95699243Y-62194284D01*
X95906749Y-62097523D01*
X95978760Y-62047100D01*
X97062110Y-62047100D01*
X97133497Y-62097085D01*
X97340929Y-62193813D01*
X97562000Y-62253048D01*
X97790000Y-62272995D01*
X98017999Y-62253048D01*
X98239070Y-62193813D01*
X98446498Y-62097087D01*
X98517887Y-62047100D01*
X99602110Y-62047100D01*
X99673497Y-62097085D01*
X99880929Y-62193813D01*
X100102000Y-62253048D01*
X100330000Y-62272995D01*
X100557999Y-62253048D01*
X100779070Y-62193813D01*
X100986498Y-62097087D01*
X101057888Y-62047099D01*
X101057888Y-62047097D01*
X100330001Y-61319210D01*
X100330000Y-61319210D01*
X99602110Y-62047098D01*
X99602110Y-62047100D01*
X98517887Y-62047100D01*
X98517888Y-62047099D01*
X98517888Y-62047097D01*
X97790001Y-61319210D01*
X97790000Y-61319210D01*
X97062110Y-62047098D01*
X97062110Y-62047100D01*
X95978760Y-62047100D01*
X96094300Y-61966198D01*
X96256198Y-61804300D01*
X96387523Y-61616749D01*
X96406080Y-61576951D01*
X96452576Y-61523933D01*
X96520275Y-61504200D01*
X96587975Y-61523933D01*
X96634471Y-61576950D01*
X96652912Y-61616497D01*
X96702900Y-61687887D01*
X97430789Y-60960001D01*
X98149210Y-60960001D01*
X98877097Y-61687888D01*
X98877099Y-61687888D01*
X98927088Y-61616497D01*
X98945805Y-61576359D01*
X98992300Y-61523341D01*
X99060000Y-61503608D01*
X99127700Y-61523341D01*
X99174195Y-61576358D01*
X99192912Y-61616497D01*
X99242900Y-61687887D01*
X99970789Y-60960001D01*
X100689210Y-60960001D01*
X101417097Y-61687888D01*
X101417099Y-61687888D01*
X101467088Y-61616497D01*
X101485529Y-61576951D01*
X101532024Y-61523933D01*
X101599724Y-61504200D01*
X101667424Y-61523933D01*
X101713919Y-61576951D01*
X101732476Y-61616748D01*
X101863804Y-61804303D01*
X102025696Y-61966195D01*
X102213249Y-62097522D01*
X102420756Y-62194284D01*
X102480014Y-62210162D01*
X102641913Y-62253543D01*
X102870000Y-62273498D01*
X103098087Y-62253543D01*
X103319243Y-62194284D01*
X103526749Y-62097523D01*
X103714300Y-61966198D01*
X103876198Y-61804300D01*
X104007523Y-61616749D01*
X104025804Y-61577543D01*
X104072300Y-61524525D01*
X104140000Y-61504792D01*
X104207700Y-61524525D01*
X104254195Y-61577543D01*
X104272476Y-61616748D01*
X104403804Y-61804303D01*
X104565696Y-61966195D01*
X104753249Y-62097522D01*
X104960756Y-62194284D01*
X105020014Y-62210162D01*
X105181913Y-62253543D01*
X105410000Y-62273498D01*
X105638087Y-62253543D01*
X105859243Y-62194284D01*
X106066749Y-62097523D01*
X106254300Y-61966198D01*
X106416198Y-61804300D01*
X106547523Y-61616749D01*
X106565804Y-61577543D01*
X106612300Y-61524525D01*
X106680000Y-61504792D01*
X106747700Y-61524525D01*
X106794195Y-61577543D01*
X106812476Y-61616748D01*
X106943804Y-61804303D01*
X107105696Y-61966195D01*
X107293249Y-62097522D01*
X107500756Y-62194284D01*
X107560014Y-62210162D01*
X107721913Y-62253543D01*
X107950000Y-62273498D01*
X108178087Y-62253543D01*
X108399243Y-62194284D01*
X108606749Y-62097523D01*
X108794300Y-61966198D01*
X108956198Y-61804300D01*
X109087523Y-61616749D01*
X109105804Y-61577543D01*
X109152300Y-61524525D01*
X109220000Y-61504792D01*
X109287700Y-61524525D01*
X109334195Y-61577543D01*
X109352476Y-61616748D01*
X109483804Y-61804303D01*
X109645696Y-61966195D01*
X109833249Y-62097522D01*
X110040756Y-62194284D01*
X110100014Y-62210162D01*
X110261913Y-62253543D01*
X110490000Y-62273498D01*
X110718087Y-62253543D01*
X110939243Y-62194284D01*
X111146749Y-62097523D01*
X111334300Y-61966198D01*
X111496198Y-61804300D01*
X111627523Y-61616749D01*
X111645804Y-61577543D01*
X111692300Y-61524525D01*
X111760000Y-61504792D01*
X111827700Y-61524525D01*
X111874195Y-61577543D01*
X111892476Y-61616748D01*
X112023804Y-61804303D01*
X112185696Y-61966195D01*
X112373249Y-62097522D01*
X112580756Y-62194284D01*
X112640014Y-62210162D01*
X112801913Y-62253543D01*
X113030000Y-62273498D01*
X113258087Y-62253543D01*
X113479243Y-62194284D01*
X113686749Y-62097523D01*
X113874300Y-61966198D01*
X114036198Y-61804300D01*
X114167523Y-61616749D01*
X114185804Y-61577543D01*
X114232300Y-61524525D01*
X114300000Y-61504792D01*
X114367700Y-61524525D01*
X114414195Y-61577543D01*
X114432476Y-61616748D01*
X114563804Y-61804303D01*
X114725696Y-61966195D01*
X114913249Y-62097522D01*
X115120756Y-62194284D01*
X115180014Y-62210162D01*
X115341913Y-62253543D01*
X115570000Y-62273498D01*
X115798087Y-62253543D01*
X116019243Y-62194284D01*
X116226749Y-62097523D01*
X116414300Y-61966198D01*
X116576198Y-61804300D01*
X116707523Y-61616749D01*
X116725804Y-61577543D01*
X116772300Y-61524525D01*
X116840000Y-61504792D01*
X116907700Y-61524525D01*
X116954195Y-61577543D01*
X116972476Y-61616748D01*
X117103804Y-61804303D01*
X117265696Y-61966195D01*
X117453249Y-62097522D01*
X117660756Y-62194284D01*
X117720014Y-62210162D01*
X117881913Y-62253543D01*
X118110000Y-62273498D01*
X118338087Y-62253543D01*
X118559243Y-62194284D01*
X118766749Y-62097523D01*
X118954300Y-61966198D01*
X119116198Y-61804300D01*
X119247523Y-61616749D01*
X119265804Y-61577543D01*
X119312300Y-61524525D01*
X119380000Y-61504792D01*
X119447700Y-61524525D01*
X119494195Y-61577543D01*
X119512476Y-61616748D01*
X119643804Y-61804303D01*
X119805696Y-61966195D01*
X119993249Y-62097522D01*
X120200756Y-62194284D01*
X120260014Y-62210162D01*
X120421913Y-62253543D01*
X120650000Y-62273498D01*
X120878087Y-62253543D01*
X121099243Y-62194284D01*
X121306749Y-62097523D01*
X121494300Y-61966198D01*
X121656198Y-61804300D01*
X121787523Y-61616749D01*
X121884284Y-61409243D01*
X121943543Y-61188087D01*
X121963498Y-60960000D01*
X121943543Y-60731913D01*
X121884284Y-60510757D01*
X121881500Y-60504787D01*
X121797665Y-60325000D01*
X131986844Y-60325000D01*
X132005436Y-60549368D01*
X132005436Y-60549371D01*
X132005437Y-60549372D01*
X132060702Y-60767611D01*
X132151139Y-60973790D01*
X132274278Y-61162268D01*
X132417841Y-61318217D01*
X132447078Y-61371821D01*
X132447681Y-61432877D01*
X132419507Y-61487047D01*
X132369173Y-61521611D01*
X132254036Y-61564554D01*
X132137095Y-61652095D01*
X132049554Y-61769037D01*
X131998505Y-61905906D01*
X131992000Y-61966411D01*
X131992000Y-62611000D01*
X134708000Y-62611000D01*
X134708000Y-61966411D01*
X134701494Y-61905906D01*
X134650445Y-61769037D01*
X134562904Y-61652095D01*
X134445962Y-61564554D01*
X134330827Y-61521611D01*
X134280492Y-61487047D01*
X134252318Y-61432877D01*
X134252921Y-61371821D01*
X134282155Y-61318220D01*
X134425722Y-61162268D01*
X134548860Y-60973791D01*
X134639296Y-60767616D01*
X134694564Y-60549368D01*
X134713156Y-60325000D01*
X134694564Y-60100632D01*
X134639296Y-59882384D01*
X134548860Y-59676209D01*
X134425722Y-59487732D01*
X134273240Y-59322094D01*
X134273239Y-59322093D01*
X134273237Y-59322091D01*
X134095578Y-59183812D01*
X133897573Y-59076657D01*
X133753427Y-59027172D01*
X133684635Y-59003556D01*
X133462569Y-58966500D01*
X133237431Y-58966500D01*
X133015365Y-59003556D01*
X133015362Y-59003556D01*
X133015362Y-59003557D01*
X132802426Y-59076657D01*
X132604421Y-59183812D01*
X132426762Y-59322091D01*
X132274278Y-59487731D01*
X132151139Y-59676209D01*
X132060702Y-59882388D01*
X132005437Y-60100627D01*
X132005436Y-60100632D01*
X131986844Y-60325000D01*
X121797665Y-60325000D01*
X121787522Y-60303249D01*
X121656195Y-60115696D01*
X121494303Y-59953804D01*
X121306750Y-59822477D01*
X121099243Y-59725715D01*
X120878087Y-59666457D01*
X120650000Y-59646502D01*
X120421912Y-59666457D01*
X120200756Y-59725715D01*
X119993249Y-59822477D01*
X119805696Y-59953804D01*
X119643804Y-60115696D01*
X119512477Y-60303250D01*
X119494195Y-60342457D01*
X119447700Y-60395474D01*
X119380000Y-60415207D01*
X119312300Y-60395474D01*
X119265805Y-60342457D01*
X119263894Y-60338359D01*
X119247523Y-60303251D01*
X119116198Y-60115700D01*
X119116196Y-60115698D01*
X119116195Y-60115696D01*
X118954303Y-59953804D01*
X118766750Y-59822477D01*
X118559243Y-59725715D01*
X118338087Y-59666457D01*
X118110000Y-59646502D01*
X117881912Y-59666457D01*
X117660756Y-59725715D01*
X117453249Y-59822477D01*
X117265696Y-59953804D01*
X117103804Y-60115696D01*
X116972477Y-60303250D01*
X116954195Y-60342457D01*
X116907700Y-60395474D01*
X116840000Y-60415207D01*
X116772300Y-60395474D01*
X116725805Y-60342457D01*
X116723894Y-60338359D01*
X116707523Y-60303251D01*
X116576198Y-60115700D01*
X116576196Y-60115698D01*
X116576195Y-60115696D01*
X116414303Y-59953804D01*
X116226750Y-59822477D01*
X116019243Y-59725715D01*
X115798087Y-59666457D01*
X115570000Y-59646502D01*
X115341912Y-59666457D01*
X115120756Y-59725715D01*
X114913249Y-59822477D01*
X114725696Y-59953804D01*
X114563804Y-60115696D01*
X114432477Y-60303250D01*
X114414195Y-60342457D01*
X114367700Y-60395474D01*
X114300000Y-60415207D01*
X114232300Y-60395474D01*
X114185805Y-60342457D01*
X114183894Y-60338359D01*
X114167523Y-60303251D01*
X114036198Y-60115700D01*
X114036196Y-60115698D01*
X114036195Y-60115696D01*
X113874303Y-59953804D01*
X113686750Y-59822477D01*
X113479243Y-59725715D01*
X113258087Y-59666457D01*
X113030000Y-59646502D01*
X112801912Y-59666457D01*
X112580756Y-59725715D01*
X112373249Y-59822477D01*
X112185696Y-59953804D01*
X112023804Y-60115696D01*
X111892477Y-60303250D01*
X111874195Y-60342457D01*
X111827700Y-60395474D01*
X111760000Y-60415207D01*
X111692300Y-60395474D01*
X111645805Y-60342457D01*
X111643894Y-60338359D01*
X111627523Y-60303251D01*
X111496198Y-60115700D01*
X111496196Y-60115698D01*
X111496195Y-60115696D01*
X111334303Y-59953804D01*
X111146750Y-59822477D01*
X110939243Y-59725715D01*
X110718087Y-59666457D01*
X110490000Y-59646502D01*
X110261912Y-59666457D01*
X110040756Y-59725715D01*
X109833249Y-59822477D01*
X109645696Y-59953804D01*
X109483804Y-60115696D01*
X109352477Y-60303250D01*
X109334195Y-60342457D01*
X109287700Y-60395474D01*
X109220000Y-60415207D01*
X109152300Y-60395474D01*
X109105805Y-60342457D01*
X109103894Y-60338359D01*
X109087523Y-60303251D01*
X108956198Y-60115700D01*
X108956196Y-60115698D01*
X108956195Y-60115696D01*
X108794303Y-59953804D01*
X108606750Y-59822477D01*
X108399243Y-59725715D01*
X108178087Y-59666457D01*
X107950000Y-59646502D01*
X107721912Y-59666457D01*
X107500756Y-59725715D01*
X107293249Y-59822477D01*
X107105696Y-59953804D01*
X106943804Y-60115696D01*
X106812477Y-60303250D01*
X106794195Y-60342457D01*
X106747700Y-60395474D01*
X106680000Y-60415207D01*
X106612300Y-60395474D01*
X106565805Y-60342457D01*
X106563894Y-60338359D01*
X106547523Y-60303251D01*
X106416198Y-60115700D01*
X106416196Y-60115698D01*
X106416195Y-60115696D01*
X106254303Y-59953804D01*
X106066750Y-59822477D01*
X105859243Y-59725715D01*
X105638087Y-59666457D01*
X105410000Y-59646502D01*
X105181912Y-59666457D01*
X104960756Y-59725715D01*
X104753249Y-59822477D01*
X104565696Y-59953804D01*
X104403804Y-60115696D01*
X104272477Y-60303250D01*
X104254195Y-60342457D01*
X104207700Y-60395474D01*
X104140000Y-60415207D01*
X104072300Y-60395474D01*
X104025805Y-60342457D01*
X104023894Y-60338359D01*
X104007523Y-60303251D01*
X103876198Y-60115700D01*
X103876196Y-60115698D01*
X103876195Y-60115696D01*
X103714303Y-59953804D01*
X103526750Y-59822477D01*
X103319243Y-59725715D01*
X103098087Y-59666457D01*
X102870000Y-59646502D01*
X102641912Y-59666457D01*
X102420756Y-59725715D01*
X102213249Y-59822477D01*
X102025696Y-59953804D01*
X101863804Y-60115696D01*
X101732477Y-60303250D01*
X101713919Y-60343049D01*
X101667424Y-60396066D01*
X101599724Y-60415799D01*
X101532024Y-60396066D01*
X101485529Y-60343049D01*
X101467085Y-60303497D01*
X101417100Y-60232110D01*
X101417098Y-60232110D01*
X100689210Y-60960000D01*
X100689210Y-60960001D01*
X99970789Y-60960001D01*
X99970790Y-60960000D01*
X99970790Y-60959999D01*
X99242900Y-60232109D01*
X99192911Y-60303502D01*
X99174194Y-60343642D01*
X99127699Y-60396659D01*
X99060000Y-60416391D01*
X98992300Y-60396658D01*
X98945805Y-60343641D01*
X98927085Y-60303497D01*
X98877100Y-60232110D01*
X98877098Y-60232110D01*
X98149210Y-60960000D01*
X98149210Y-60960001D01*
X97430789Y-60960001D01*
X97430790Y-60960000D01*
X97430790Y-60959999D01*
X96702900Y-60232109D01*
X96652911Y-60303502D01*
X96634470Y-60343050D01*
X96587975Y-60396067D01*
X96520275Y-60415799D01*
X96452576Y-60396066D01*
X96406081Y-60343049D01*
X96405740Y-60342318D01*
X96387523Y-60303251D01*
X96256198Y-60115700D01*
X96256196Y-60115698D01*
X96256195Y-60115696D01*
X96094303Y-59953804D01*
X95978761Y-59872900D01*
X97062109Y-59872900D01*
X97789999Y-60600790D01*
X97790000Y-60600790D01*
X98517887Y-59872900D01*
X99602109Y-59872900D01*
X100329999Y-60600790D01*
X100330000Y-60600790D01*
X101057888Y-59872899D01*
X100986497Y-59822912D01*
X100779070Y-59726186D01*
X100557999Y-59666951D01*
X100330000Y-59647004D01*
X100102000Y-59666951D01*
X99880929Y-59726186D01*
X99673499Y-59822913D01*
X99602109Y-59872900D01*
X98517887Y-59872900D01*
X98517888Y-59872899D01*
X98446497Y-59822912D01*
X98239070Y-59726186D01*
X98017999Y-59666951D01*
X97790000Y-59647004D01*
X97562000Y-59666951D01*
X97340929Y-59726186D01*
X97133499Y-59822913D01*
X97062109Y-59872900D01*
X95978761Y-59872900D01*
X95906750Y-59822477D01*
X95699243Y-59725715D01*
X95478087Y-59666457D01*
X95250000Y-59646502D01*
X95021912Y-59666457D01*
X94800756Y-59725715D01*
X94593249Y-59822477D01*
X94405696Y-59953804D01*
X94243802Y-60115698D01*
X94241487Y-60119005D01*
X94195921Y-60158771D01*
X94137074Y-60172724D01*
X94078504Y-60157650D01*
X94033705Y-60117021D01*
X94012999Y-60060197D01*
X94011989Y-60050799D01*
X93960889Y-59913796D01*
X93960888Y-59913794D01*
X93873261Y-59796738D01*
X93756205Y-59709111D01*
X93667991Y-59676209D01*
X93619201Y-59658011D01*
X93558638Y-59651500D01*
X91861362Y-59651500D01*
X91800799Y-59658011D01*
X91663794Y-59709111D01*
X91546738Y-59796738D01*
X91459111Y-59913794D01*
X91408011Y-60050798D01*
X91408011Y-60050799D01*
X91401500Y-60111362D01*
X91401500Y-61808638D01*
X88265500Y-61808638D01*
X88265500Y-57150000D01*
X127691884Y-57150000D01*
X127710314Y-57360655D01*
X127765043Y-57564909D01*
X127854411Y-57756559D01*
X127975701Y-57929779D01*
X128125220Y-58079298D01*
X128298440Y-58200588D01*
X128298441Y-58200588D01*
X128298442Y-58200589D01*
X128490090Y-58289956D01*
X128694345Y-58344686D01*
X128905000Y-58363116D01*
X129115655Y-58344686D01*
X129319910Y-58289956D01*
X129511558Y-58200589D01*
X129684776Y-58079301D01*
X129834301Y-57929776D01*
X129955589Y-57756558D01*
X130044956Y-57564910D01*
X130099686Y-57360655D01*
X130118116Y-57150000D01*
X133346502Y-57150000D01*
X133366457Y-57378087D01*
X133425715Y-57599243D01*
X133522477Y-57806750D01*
X133653804Y-57994303D01*
X133815696Y-58156195D01*
X134003249Y-58287522D01*
X134210756Y-58384284D01*
X134270015Y-58400162D01*
X134431913Y-58443543D01*
X134660000Y-58463498D01*
X134888087Y-58443543D01*
X135109243Y-58384284D01*
X135316749Y-58287523D01*
X135388760Y-58237100D01*
X138932110Y-58237100D01*
X139003497Y-58287085D01*
X139210929Y-58383813D01*
X139432000Y-58443048D01*
X139660000Y-58462995D01*
X139887999Y-58443048D01*
X140109070Y-58383813D01*
X140316498Y-58287087D01*
X140387888Y-58237099D01*
X140387888Y-58237097D01*
X139660001Y-57509210D01*
X139660000Y-57509210D01*
X138932110Y-58237098D01*
X138932110Y-58237100D01*
X135388760Y-58237100D01*
X135504300Y-58156198D01*
X135666198Y-57994300D01*
X135797523Y-57806749D01*
X135894284Y-57599243D01*
X135953543Y-57378087D01*
X135973498Y-57150000D01*
X135973498Y-57149999D01*
X138347004Y-57149999D01*
X138366951Y-57377999D01*
X138426186Y-57599070D01*
X138522912Y-57806497D01*
X138572900Y-57877887D01*
X139300789Y-57150001D01*
X140019210Y-57150001D01*
X140747097Y-57877888D01*
X140747099Y-57877888D01*
X140797087Y-57806498D01*
X140893813Y-57599070D01*
X140953048Y-57377999D01*
X140972995Y-57149999D01*
X140953048Y-56922000D01*
X140893813Y-56700929D01*
X140797085Y-56493497D01*
X140747100Y-56422110D01*
X140747098Y-56422110D01*
X140019210Y-57150000D01*
X140019210Y-57150001D01*
X139300789Y-57150001D01*
X139300790Y-57150000D01*
X139300790Y-57149999D01*
X138572900Y-56422109D01*
X138522913Y-56493499D01*
X138426186Y-56700929D01*
X138366951Y-56922000D01*
X138347004Y-57149999D01*
X135973498Y-57149999D01*
X135953543Y-56921913D01*
X135894284Y-56700757D01*
X135797523Y-56493251D01*
X135747709Y-56422110D01*
X135666195Y-56305696D01*
X135504303Y-56143804D01*
X135388761Y-56062900D01*
X138932109Y-56062900D01*
X139659999Y-56790790D01*
X139660000Y-56790790D01*
X140387888Y-56062899D01*
X140316497Y-56012912D01*
X140109070Y-55916186D01*
X139887999Y-55856951D01*
X139660000Y-55837004D01*
X139432000Y-55856951D01*
X139210929Y-55916186D01*
X139003499Y-56012913D01*
X138932109Y-56062900D01*
X135388761Y-56062900D01*
X135316750Y-56012477D01*
X135109243Y-55915715D01*
X134888087Y-55856457D01*
X134660000Y-55836502D01*
X134431912Y-55856457D01*
X134210756Y-55915715D01*
X134003249Y-56012477D01*
X133815696Y-56143804D01*
X133653804Y-56305696D01*
X133522477Y-56493249D01*
X133425715Y-56700756D01*
X133366457Y-56921912D01*
X133346502Y-57150000D01*
X130118116Y-57150000D01*
X130099686Y-56939345D01*
X130044956Y-56735090D01*
X129955589Y-56543442D01*
X129920617Y-56493497D01*
X129834298Y-56370220D01*
X129684779Y-56220701D01*
X129511559Y-56099411D01*
X129319909Y-56010043D01*
X129115655Y-55955314D01*
X128905000Y-55936884D01*
X128694344Y-55955314D01*
X128490090Y-56010043D01*
X128298440Y-56099411D01*
X128125220Y-56220701D01*
X127975701Y-56370220D01*
X127854411Y-56543440D01*
X127765043Y-56735090D01*
X127710314Y-56939344D01*
X127691884Y-57150000D01*
X88265500Y-57150000D01*
X88265500Y-52826062D01*
X125151500Y-52826062D01*
X125191352Y-53064883D01*
X125191353Y-53064885D01*
X125269969Y-53293887D01*
X125385209Y-53506833D01*
X125533923Y-53697900D01*
X125685840Y-53837749D01*
X125712060Y-53861886D01*
X125914758Y-53994315D01*
X126136488Y-54091575D01*
X126371203Y-54151013D01*
X126552073Y-54166000D01*
X126767922Y-54166000D01*
X126767927Y-54166000D01*
X126948797Y-54151013D01*
X127183512Y-54091575D01*
X127405242Y-53994315D01*
X127607940Y-53861886D01*
X127786076Y-53697900D01*
X127934792Y-53506830D01*
X128050030Y-53293888D01*
X128128648Y-53064883D01*
X128168500Y-52826062D01*
X128168500Y-52583938D01*
X128128648Y-52345117D01*
X128050030Y-52116112D01*
X127934792Y-51903170D01*
X127934790Y-51903166D01*
X127786076Y-51712099D01*
X127607943Y-51548117D01*
X127607940Y-51548114D01*
X127595799Y-51540182D01*
X127553903Y-51494670D01*
X127538717Y-51434699D01*
X127553904Y-51374730D01*
X127595804Y-51329216D01*
X127607637Y-51321485D01*
X127785703Y-51157563D01*
X127934373Y-50966553D01*
X128049570Y-50753686D01*
X128128159Y-50524762D01*
X128145808Y-50419000D01*
X125174192Y-50419000D01*
X125191840Y-50524762D01*
X125270429Y-50753686D01*
X125385626Y-50966553D01*
X125534296Y-51157563D01*
X125712366Y-51321488D01*
X125724197Y-51329218D01*
X125766095Y-51374731D01*
X125781282Y-51434699D01*
X125766097Y-51494668D01*
X125724200Y-51540182D01*
X125712059Y-51548113D01*
X125533923Y-51712099D01*
X125385209Y-51903166D01*
X125269969Y-52116112D01*
X125206414Y-52301243D01*
X125191352Y-52345117D01*
X125151500Y-52583938D01*
X125151500Y-52826062D01*
X88265500Y-52826062D01*
X88265500Y-50164999D01*
X141056653Y-50164999D01*
X141058619Y-50194983D01*
X141058819Y-50207430D01*
X141057709Y-50240640D01*
X141068686Y-50349759D01*
X141069049Y-50354128D01*
X141076016Y-50460420D01*
X141082529Y-50493165D01*
X141084316Y-50505128D01*
X141087975Y-50541495D01*
X141112630Y-50644953D01*
X141113641Y-50649578D01*
X141133776Y-50750800D01*
X141145576Y-50785562D01*
X141148829Y-50796850D01*
X141158072Y-50835633D01*
X141195110Y-50931800D01*
X141196842Y-50936584D01*
X141220318Y-51005744D01*
X141228941Y-51031145D01*
X141246651Y-51067058D01*
X141251224Y-51077499D01*
X141266747Y-51117805D01*
X141314670Y-51205252D01*
X141317176Y-51210069D01*
X141359885Y-51296673D01*
X141359886Y-51296675D01*
X141359887Y-51296676D01*
X141383979Y-51332734D01*
X141389707Y-51342178D01*
X141412068Y-51382981D01*
X141469244Y-51460581D01*
X141472570Y-51465319D01*
X141524367Y-51542838D01*
X141555152Y-51577942D01*
X141561848Y-51586265D01*
X141591431Y-51626414D01*
X141591433Y-51626416D01*
X141656130Y-51693312D01*
X141660291Y-51697829D01*
X141719576Y-51765431D01*
X141757180Y-51798409D01*
X141764673Y-51805545D01*
X141801642Y-51843770D01*
X141872075Y-51899391D01*
X141877051Y-51903532D01*
X141942162Y-51960633D01*
X141986527Y-51990276D01*
X141994603Y-51996150D01*
X142038946Y-52031168D01*
X142113306Y-52075211D01*
X142119096Y-52078857D01*
X142169542Y-52112563D01*
X142188327Y-52125115D01*
X142239179Y-52150192D01*
X142247616Y-52154762D01*
X142299114Y-52185265D01*
X142364284Y-52212899D01*
X142375604Y-52217699D01*
X142382144Y-52220695D01*
X142417698Y-52238228D01*
X142453855Y-52256059D01*
X142510693Y-52275353D01*
X142519328Y-52278643D01*
X142577498Y-52303310D01*
X142577501Y-52303310D01*
X142577504Y-52303312D01*
X142654438Y-52324386D01*
X142661645Y-52326594D01*
X142734203Y-52351224D01*
X142796314Y-52363578D01*
X142804991Y-52365626D01*
X142869132Y-52383197D01*
X142944918Y-52393389D01*
X142952668Y-52394679D01*
X143024574Y-52408983D01*
X143091078Y-52413341D01*
X143099617Y-52414194D01*
X143168811Y-52423500D01*
X143241942Y-52423500D01*
X143250182Y-52423770D01*
X143320000Y-52428346D01*
X143389817Y-52423770D01*
X143393058Y-52423663D01*
X143395493Y-52423500D01*
X143395511Y-52423500D01*
X143468580Y-52418608D01*
X143469178Y-52418568D01*
X143469180Y-52418608D01*
X143469351Y-52418556D01*
X143615426Y-52408983D01*
X143615428Y-52408982D01*
X143620152Y-52408673D01*
X143621702Y-52408358D01*
X143765168Y-52379196D01*
X143765349Y-52379160D01*
X143905797Y-52351224D01*
X143905797Y-52351223D01*
X143908813Y-52350624D01*
X143917928Y-52348160D01*
X143918012Y-52348130D01*
X143918021Y-52348129D01*
X144053251Y-52301170D01*
X144053705Y-52301015D01*
X144186145Y-52256059D01*
X144186192Y-52256035D01*
X144200612Y-52250002D01*
X144203668Y-52248942D01*
X144328398Y-52185911D01*
X144329379Y-52185423D01*
X144451663Y-52125120D01*
X144451663Y-52125119D01*
X144451673Y-52125115D01*
X144454509Y-52123219D01*
X144467681Y-52115528D01*
X144473545Y-52112566D01*
X144585976Y-52035385D01*
X144587056Y-52034654D01*
X144697838Y-51960633D01*
X144702901Y-51956191D01*
X144714675Y-51947039D01*
X144722838Y-51941437D01*
X144821557Y-51852149D01*
X144822727Y-51851106D01*
X144920427Y-51765427D01*
X144927070Y-51757851D01*
X144937273Y-51747490D01*
X144947097Y-51738606D01*
X145030784Y-51639617D01*
X145032252Y-51637914D01*
X145077536Y-51586278D01*
X145115633Y-51542838D01*
X145123085Y-51531683D01*
X145131608Y-51520364D01*
X145142320Y-51507695D01*
X145210291Y-51401218D01*
X145211716Y-51399038D01*
X145222445Y-51382981D01*
X145280115Y-51296673D01*
X145287524Y-51281647D01*
X145294316Y-51269594D01*
X145305024Y-51252823D01*
X145356790Y-51141270D01*
X145358078Y-51138578D01*
X145411059Y-51031145D01*
X145417509Y-51012140D01*
X145422523Y-50999619D01*
X145432306Y-50978539D01*
X145467775Y-50864195D01*
X145468771Y-50861128D01*
X145506224Y-50750797D01*
X145510788Y-50727845D01*
X145514018Y-50715119D01*
X145521893Y-50689738D01*
X145541251Y-50574971D01*
X145541894Y-50571470D01*
X145563983Y-50460426D01*
X145565730Y-50433756D01*
X145567213Y-50421057D01*
X145572187Y-50391572D01*
X145575963Y-50278603D01*
X145576163Y-50274583D01*
X145583346Y-50164999D01*
X145581380Y-50135019D01*
X145581180Y-50122562D01*
X145582291Y-50089363D01*
X145571309Y-49980201D01*
X145570949Y-49975863D01*
X145568495Y-49938427D01*
X145563983Y-49869574D01*
X145557469Y-49836826D01*
X145555681Y-49824856D01*
X145552024Y-49788508D01*
X145552024Y-49788504D01*
X145527364Y-49685029D01*
X145526355Y-49680407D01*
X145506224Y-49579202D01*
X145494426Y-49544449D01*
X145491173Y-49533166D01*
X145481927Y-49494364D01*
X145444886Y-49398190D01*
X145443166Y-49393441D01*
X145411059Y-49298855D01*
X145393353Y-49262950D01*
X145388779Y-49252509D01*
X145373250Y-49212192D01*
X145373250Y-49212191D01*
X145325324Y-49124737D01*
X145322814Y-49119913D01*
X145280115Y-49033327D01*
X145256018Y-48997263D01*
X145250299Y-48987835D01*
X145227933Y-48947021D01*
X145170747Y-48869407D01*
X145167421Y-48864669D01*
X145140049Y-48823704D01*
X145115633Y-48787162D01*
X145084849Y-48752060D01*
X145078146Y-48743728D01*
X145048568Y-48703585D01*
X144983867Y-48636684D01*
X144979709Y-48632169D01*
X144920427Y-48564572D01*
X144882818Y-48531589D01*
X144875325Y-48524453D01*
X144838358Y-48486230D01*
X144827640Y-48477766D01*
X144767905Y-48430593D01*
X144762966Y-48426483D01*
X144697838Y-48369367D01*
X144653481Y-48339728D01*
X144645396Y-48333849D01*
X144601050Y-48298829D01*
X144526691Y-48254786D01*
X144520902Y-48251142D01*
X144502599Y-48238912D01*
X144451673Y-48204885D01*
X144451667Y-48204882D01*
X144400846Y-48179819D01*
X144392364Y-48175225D01*
X144340889Y-48144737D01*
X144340890Y-48144737D01*
X144340886Y-48144735D01*
X144264371Y-48112290D01*
X144257842Y-48109298D01*
X144186143Y-48073940D01*
X144129323Y-48054651D01*
X144120639Y-48051341D01*
X144062505Y-48026690D01*
X143985554Y-48005611D01*
X143978343Y-48003401D01*
X143905795Y-47978774D01*
X143843684Y-47966419D01*
X143834981Y-47964365D01*
X143826374Y-47962007D01*
X143770868Y-47946803D01*
X143770863Y-47946802D01*
X143770862Y-47946802D01*
X143695089Y-47936610D01*
X143687306Y-47935314D01*
X143615427Y-47921016D01*
X143548921Y-47916657D01*
X143540372Y-47915803D01*
X143471190Y-47906500D01*
X143471189Y-47906500D01*
X143398058Y-47906500D01*
X143389818Y-47906230D01*
X143320000Y-47901654D01*
X143250182Y-47906230D01*
X143246941Y-47906336D01*
X143244491Y-47906500D01*
X143244489Y-47906500D01*
X143170821Y-47911431D01*
X143170822Y-47911431D01*
X143170649Y-47911442D01*
X143053516Y-47919119D01*
X143024574Y-47921017D01*
X143024573Y-47921017D01*
X143019846Y-47921327D01*
X142875112Y-47950745D01*
X142874597Y-47950849D01*
X142731212Y-47979370D01*
X142722055Y-47981844D01*
X142586914Y-48028770D01*
X142586086Y-48029054D01*
X142453856Y-48073940D01*
X142453784Y-48073976D01*
X142439402Y-48079991D01*
X142436334Y-48081056D01*
X142339940Y-48129766D01*
X142311758Y-48144007D01*
X142310703Y-48144534D01*
X142188329Y-48204883D01*
X142185486Y-48206783D01*
X142172333Y-48214463D01*
X142166457Y-48217432D01*
X142054103Y-48294557D01*
X142052798Y-48295440D01*
X141942163Y-48369365D01*
X141937092Y-48373813D01*
X141925332Y-48382954D01*
X141917163Y-48388561D01*
X141818533Y-48477766D01*
X141817093Y-48479048D01*
X141719573Y-48564571D01*
X141712922Y-48572155D01*
X141702727Y-48582507D01*
X141692906Y-48591391D01*
X141609243Y-48690347D01*
X141607755Y-48692074D01*
X141524365Y-48787162D01*
X141516913Y-48798315D01*
X141508378Y-48809649D01*
X141497679Y-48822304D01*
X141429735Y-48928735D01*
X141428298Y-48930935D01*
X141359887Y-49033323D01*
X141352479Y-49048343D01*
X141345684Y-49060401D01*
X141334976Y-49077176D01*
X141283209Y-49188729D01*
X141281922Y-49191418D01*
X141228941Y-49298853D01*
X141222489Y-49317858D01*
X141217475Y-49330379D01*
X141207694Y-49351459D01*
X141172235Y-49465763D01*
X141171207Y-49468930D01*
X141133775Y-49579206D01*
X141129210Y-49602151D01*
X141125976Y-49614892D01*
X141118107Y-49640259D01*
X141098755Y-49754984D01*
X141098089Y-49758606D01*
X141076016Y-49869573D01*
X141074267Y-49896251D01*
X141072783Y-49908957D01*
X141067813Y-49938427D01*
X141064035Y-50051389D01*
X141063835Y-50055416D01*
X141056653Y-50164999D01*
X88265500Y-50164999D01*
X88265500Y-48626138D01*
X125151500Y-48626138D01*
X125158011Y-48686701D01*
X125164309Y-48703586D01*
X125209111Y-48823705D01*
X125296738Y-48940761D01*
X125413794Y-49028388D01*
X125413795Y-49028388D01*
X125413796Y-49028389D01*
X125424753Y-49032476D01*
X125433244Y-49035643D01*
X125481833Y-49068274D01*
X125510436Y-49119338D01*
X125512882Y-49177816D01*
X125488644Y-49231090D01*
X125385626Y-49363446D01*
X125270429Y-49576313D01*
X125191840Y-49805237D01*
X125174192Y-49911000D01*
X128145808Y-49911000D01*
X128128159Y-49805237D01*
X128049570Y-49576313D01*
X127934370Y-49363442D01*
X127831356Y-49231090D01*
X127807117Y-49177816D01*
X127809563Y-49119338D01*
X127838167Y-49068274D01*
X127886756Y-49035643D01*
X127906205Y-49028389D01*
X128023261Y-48940761D01*
X128110888Y-48823705D01*
X128110887Y-48823705D01*
X128110889Y-48823704D01*
X128161989Y-48686701D01*
X128168500Y-48626138D01*
X128168500Y-46623862D01*
X128161989Y-46563299D01*
X128110889Y-46426296D01*
X128110888Y-46426294D01*
X128023261Y-46309238D01*
X127906205Y-46221611D01*
X127837702Y-46196061D01*
X127769201Y-46170511D01*
X127708638Y-46164000D01*
X125611362Y-46164000D01*
X125550799Y-46170511D01*
X125413794Y-46221611D01*
X125296738Y-46309238D01*
X125209111Y-46426294D01*
X125158010Y-46563299D01*
X125158011Y-46563299D01*
X125151500Y-46623862D01*
X125151500Y-48626138D01*
X88265500Y-48626138D01*
X88265500Y-45719999D01*
X91396502Y-45719999D01*
X91416457Y-45948087D01*
X91475715Y-46169243D01*
X91572477Y-46376750D01*
X91703804Y-46564303D01*
X91865696Y-46726195D01*
X92053249Y-46857522D01*
X92260756Y-46954284D01*
X92320014Y-46970162D01*
X92481913Y-47013543D01*
X92710000Y-47033498D01*
X92938087Y-47013543D01*
X93159243Y-46954284D01*
X93366749Y-46857523D01*
X93438760Y-46807100D01*
X94522110Y-46807100D01*
X94593497Y-46857085D01*
X94800929Y-46953813D01*
X95022000Y-47013048D01*
X95250000Y-47032995D01*
X95477999Y-47013048D01*
X95699070Y-46953813D01*
X95906498Y-46857087D01*
X95977888Y-46807099D01*
X95977888Y-46807097D01*
X95250001Y-46079210D01*
X95250000Y-46079210D01*
X94522110Y-46807098D01*
X94522110Y-46807100D01*
X93438760Y-46807100D01*
X93554300Y-46726198D01*
X93716198Y-46564300D01*
X93847523Y-46376749D01*
X93866080Y-46336951D01*
X93912576Y-46283933D01*
X93980275Y-46264200D01*
X94047975Y-46283933D01*
X94094471Y-46336950D01*
X94112912Y-46376497D01*
X94162900Y-46447887D01*
X94890789Y-45720001D01*
X95609210Y-45720001D01*
X96337097Y-46447888D01*
X96337099Y-46447888D01*
X96387088Y-46376497D01*
X96405529Y-46336951D01*
X96452024Y-46283933D01*
X96519724Y-46264200D01*
X96587424Y-46283933D01*
X96633919Y-46336951D01*
X96652476Y-46376748D01*
X96783804Y-46564303D01*
X96945696Y-46726195D01*
X97133249Y-46857522D01*
X97340756Y-46954284D01*
X97400014Y-46970162D01*
X97561913Y-47013543D01*
X97790000Y-47033498D01*
X98018087Y-47013543D01*
X98239243Y-46954284D01*
X98446749Y-46857523D01*
X98634300Y-46726198D01*
X98796198Y-46564300D01*
X98927523Y-46376749D01*
X98945804Y-46337543D01*
X98992300Y-46284525D01*
X99060000Y-46264792D01*
X99127700Y-46284525D01*
X99174195Y-46337543D01*
X99192476Y-46376748D01*
X99323804Y-46564303D01*
X99485696Y-46726195D01*
X99673249Y-46857522D01*
X99880756Y-46954284D01*
X99940014Y-46970162D01*
X100101913Y-47013543D01*
X100330000Y-47033498D01*
X100558087Y-47013543D01*
X100779243Y-46954284D01*
X100986749Y-46857523D01*
X101174300Y-46726198D01*
X101336198Y-46564300D01*
X101467523Y-46376749D01*
X101485804Y-46337543D01*
X101532300Y-46284525D01*
X101600000Y-46264792D01*
X101667700Y-46284525D01*
X101714195Y-46337543D01*
X101732476Y-46376748D01*
X101863804Y-46564303D01*
X102025696Y-46726195D01*
X102213249Y-46857522D01*
X102420756Y-46954284D01*
X102480014Y-46970162D01*
X102641913Y-47013543D01*
X102870000Y-47033498D01*
X103098087Y-47013543D01*
X103319243Y-46954284D01*
X103526749Y-46857523D01*
X103714300Y-46726198D01*
X103876198Y-46564300D01*
X104007523Y-46376749D01*
X104025804Y-46337543D01*
X104072300Y-46284525D01*
X104140000Y-46264792D01*
X104207700Y-46284525D01*
X104254195Y-46337543D01*
X104272476Y-46376748D01*
X104403804Y-46564303D01*
X104565696Y-46726195D01*
X104753249Y-46857522D01*
X104960756Y-46954284D01*
X105020014Y-46970162D01*
X105181913Y-47013543D01*
X105410000Y-47033498D01*
X105638087Y-47013543D01*
X105859243Y-46954284D01*
X106066749Y-46857523D01*
X106254300Y-46726198D01*
X106416198Y-46564300D01*
X106547523Y-46376749D01*
X106565804Y-46337543D01*
X106612300Y-46284525D01*
X106680000Y-46264792D01*
X106747700Y-46284525D01*
X106794195Y-46337543D01*
X106812476Y-46376748D01*
X106943804Y-46564303D01*
X107105696Y-46726195D01*
X107293249Y-46857522D01*
X107500756Y-46954284D01*
X107560014Y-46970162D01*
X107721913Y-47013543D01*
X107950000Y-47033498D01*
X108178087Y-47013543D01*
X108399243Y-46954284D01*
X108606749Y-46857523D01*
X108794300Y-46726198D01*
X108956198Y-46564300D01*
X109087523Y-46376749D01*
X109105804Y-46337543D01*
X109152300Y-46284525D01*
X109220000Y-46264792D01*
X109287700Y-46284525D01*
X109334195Y-46337543D01*
X109352476Y-46376748D01*
X109483804Y-46564303D01*
X109645696Y-46726195D01*
X109833249Y-46857522D01*
X110040756Y-46954284D01*
X110100014Y-46970162D01*
X110261913Y-47013543D01*
X110490000Y-47033498D01*
X110718087Y-47013543D01*
X110939243Y-46954284D01*
X111146749Y-46857523D01*
X111334300Y-46726198D01*
X111496198Y-46564300D01*
X111627523Y-46376749D01*
X111645804Y-46337543D01*
X111692300Y-46284525D01*
X111760000Y-46264792D01*
X111827700Y-46284525D01*
X111874195Y-46337543D01*
X111892476Y-46376748D01*
X112023804Y-46564303D01*
X112185696Y-46726195D01*
X112373249Y-46857522D01*
X112580756Y-46954284D01*
X112640014Y-46970162D01*
X112801913Y-47013543D01*
X113030000Y-47033498D01*
X113258087Y-47013543D01*
X113479243Y-46954284D01*
X113686749Y-46857523D01*
X113874300Y-46726198D01*
X114036198Y-46564300D01*
X114167523Y-46376749D01*
X114185804Y-46337543D01*
X114232300Y-46284525D01*
X114300000Y-46264792D01*
X114367700Y-46284525D01*
X114414195Y-46337543D01*
X114432476Y-46376748D01*
X114563804Y-46564303D01*
X114725696Y-46726195D01*
X114913249Y-46857522D01*
X115120756Y-46954284D01*
X115180014Y-46970162D01*
X115341913Y-47013543D01*
X115570000Y-47033498D01*
X115798087Y-47013543D01*
X116019243Y-46954284D01*
X116226749Y-46857523D01*
X116414300Y-46726198D01*
X116576198Y-46564300D01*
X116707523Y-46376749D01*
X116725804Y-46337543D01*
X116772300Y-46284525D01*
X116840000Y-46264792D01*
X116907700Y-46284525D01*
X116954195Y-46337543D01*
X116972476Y-46376748D01*
X117103804Y-46564303D01*
X117265696Y-46726195D01*
X117453249Y-46857522D01*
X117660756Y-46954284D01*
X117720014Y-46970162D01*
X117881913Y-47013543D01*
X118110000Y-47033498D01*
X118338087Y-47013543D01*
X118559243Y-46954284D01*
X118766749Y-46857523D01*
X118954300Y-46726198D01*
X119116198Y-46564300D01*
X119247523Y-46376749D01*
X119265804Y-46337543D01*
X119312300Y-46284525D01*
X119380000Y-46264792D01*
X119447700Y-46284525D01*
X119494195Y-46337543D01*
X119512476Y-46376748D01*
X119643804Y-46564303D01*
X119805696Y-46726195D01*
X119993249Y-46857522D01*
X120200756Y-46954284D01*
X120260014Y-46970162D01*
X120421913Y-47013543D01*
X120650000Y-47033498D01*
X120878087Y-47013543D01*
X121099243Y-46954284D01*
X121306749Y-46857523D01*
X121494300Y-46726198D01*
X121656198Y-46564300D01*
X121787523Y-46376749D01*
X121884284Y-46169243D01*
X121943543Y-45948087D01*
X121963498Y-45720000D01*
X121943543Y-45491913D01*
X121884284Y-45270757D01*
X121787523Y-45063251D01*
X121737709Y-44992110D01*
X121656195Y-44875696D01*
X121494303Y-44713804D01*
X121306750Y-44582477D01*
X121099243Y-44485715D01*
X120878087Y-44426457D01*
X120650000Y-44406502D01*
X120649999Y-44406502D01*
X120421912Y-44426457D01*
X120200756Y-44485715D01*
X119993249Y-44582477D01*
X119805696Y-44713804D01*
X119643804Y-44875696D01*
X119512477Y-45063250D01*
X119494195Y-45102457D01*
X119447700Y-45155474D01*
X119380000Y-45175207D01*
X119312300Y-45155474D01*
X119265805Y-45102457D01*
X119247640Y-45063502D01*
X119247523Y-45063251D01*
X119116198Y-44875700D01*
X119116197Y-44875699D01*
X119116195Y-44875696D01*
X118954303Y-44713804D01*
X118766750Y-44582477D01*
X118559243Y-44485715D01*
X118338087Y-44426457D01*
X118110000Y-44406502D01*
X118109999Y-44406502D01*
X117881912Y-44426457D01*
X117660756Y-44485715D01*
X117453249Y-44582477D01*
X117265696Y-44713804D01*
X117103804Y-44875696D01*
X116972477Y-45063250D01*
X116954195Y-45102457D01*
X116907700Y-45155474D01*
X116840000Y-45175207D01*
X116772300Y-45155474D01*
X116725805Y-45102457D01*
X116707640Y-45063502D01*
X116707523Y-45063251D01*
X116576198Y-44875700D01*
X116576197Y-44875699D01*
X116576195Y-44875696D01*
X116414303Y-44713804D01*
X116226750Y-44582477D01*
X116019243Y-44485715D01*
X115798087Y-44426457D01*
X115570000Y-44406502D01*
X115569999Y-44406502D01*
X115341912Y-44426457D01*
X115120756Y-44485715D01*
X114913249Y-44582477D01*
X114725696Y-44713804D01*
X114563804Y-44875696D01*
X114432477Y-45063250D01*
X114414195Y-45102457D01*
X114367700Y-45155474D01*
X114300000Y-45175207D01*
X114232300Y-45155474D01*
X114185805Y-45102457D01*
X114167640Y-45063502D01*
X114167523Y-45063251D01*
X114036198Y-44875700D01*
X114036197Y-44875699D01*
X114036195Y-44875696D01*
X113874303Y-44713804D01*
X113686750Y-44582477D01*
X113479243Y-44485715D01*
X113258087Y-44426457D01*
X113030000Y-44406502D01*
X113029999Y-44406502D01*
X112801912Y-44426457D01*
X112580756Y-44485715D01*
X112373249Y-44582477D01*
X112185696Y-44713804D01*
X112023804Y-44875696D01*
X111892477Y-45063250D01*
X111874195Y-45102457D01*
X111827700Y-45155474D01*
X111760000Y-45175207D01*
X111692300Y-45155474D01*
X111645805Y-45102457D01*
X111627640Y-45063502D01*
X111627523Y-45063251D01*
X111496198Y-44875700D01*
X111496197Y-44875699D01*
X111496195Y-44875696D01*
X111334303Y-44713804D01*
X111146750Y-44582477D01*
X110939243Y-44485715D01*
X110718087Y-44426457D01*
X110490000Y-44406502D01*
X110489999Y-44406502D01*
X110261912Y-44426457D01*
X110040756Y-44485715D01*
X109833249Y-44582477D01*
X109645696Y-44713804D01*
X109483804Y-44875696D01*
X109352477Y-45063250D01*
X109334195Y-45102457D01*
X109287700Y-45155474D01*
X109220000Y-45175207D01*
X109152300Y-45155474D01*
X109105805Y-45102457D01*
X109087640Y-45063502D01*
X109087523Y-45063251D01*
X108956198Y-44875700D01*
X108956197Y-44875699D01*
X108956195Y-44875696D01*
X108794303Y-44713804D01*
X108606750Y-44582477D01*
X108399243Y-44485715D01*
X108178087Y-44426457D01*
X107950000Y-44406502D01*
X107949999Y-44406502D01*
X107721912Y-44426457D01*
X107500756Y-44485715D01*
X107293249Y-44582477D01*
X107105696Y-44713804D01*
X106943804Y-44875696D01*
X106812477Y-45063250D01*
X106794195Y-45102457D01*
X106747700Y-45155474D01*
X106680000Y-45175207D01*
X106612300Y-45155474D01*
X106565805Y-45102457D01*
X106547640Y-45063502D01*
X106547523Y-45063251D01*
X106416198Y-44875700D01*
X106416197Y-44875699D01*
X106416195Y-44875696D01*
X106254303Y-44713804D01*
X106066750Y-44582477D01*
X105859243Y-44485715D01*
X105638087Y-44426457D01*
X105410000Y-44406502D01*
X105409999Y-44406502D01*
X105181912Y-44426457D01*
X104960756Y-44485715D01*
X104753249Y-44582477D01*
X104565696Y-44713804D01*
X104403804Y-44875696D01*
X104272477Y-45063250D01*
X104254195Y-45102457D01*
X104207700Y-45155474D01*
X104140000Y-45175207D01*
X104072300Y-45155474D01*
X104025805Y-45102457D01*
X104007640Y-45063502D01*
X104007523Y-45063251D01*
X103876198Y-44875700D01*
X103876197Y-44875699D01*
X103876195Y-44875696D01*
X103714303Y-44713804D01*
X103526750Y-44582477D01*
X103319243Y-44485715D01*
X103098087Y-44426457D01*
X102870000Y-44406502D01*
X102869999Y-44406502D01*
X102641912Y-44426457D01*
X102420756Y-44485715D01*
X102213249Y-44582477D01*
X102025696Y-44713804D01*
X101863804Y-44875696D01*
X101732477Y-45063250D01*
X101714195Y-45102457D01*
X101667700Y-45155474D01*
X101600000Y-45175207D01*
X101532300Y-45155474D01*
X101485805Y-45102457D01*
X101467640Y-45063502D01*
X101467523Y-45063251D01*
X101336198Y-44875700D01*
X101336197Y-44875699D01*
X101336195Y-44875696D01*
X101174303Y-44713804D01*
X100986750Y-44582477D01*
X100779243Y-44485715D01*
X100558087Y-44426457D01*
X100330000Y-44406502D01*
X100329999Y-44406502D01*
X100101912Y-44426457D01*
X99880756Y-44485715D01*
X99673249Y-44582477D01*
X99485696Y-44713804D01*
X99323804Y-44875696D01*
X99192477Y-45063250D01*
X99174195Y-45102457D01*
X99127700Y-45155474D01*
X99060000Y-45175207D01*
X98992300Y-45155474D01*
X98945805Y-45102457D01*
X98927640Y-45063502D01*
X98927523Y-45063251D01*
X98796198Y-44875700D01*
X98796197Y-44875699D01*
X98796195Y-44875696D01*
X98634303Y-44713804D01*
X98446750Y-44582477D01*
X98239243Y-44485715D01*
X98018087Y-44426457D01*
X97790000Y-44406502D01*
X97789999Y-44406502D01*
X97561912Y-44426457D01*
X97340756Y-44485715D01*
X97133249Y-44582477D01*
X96945696Y-44713804D01*
X96783804Y-44875696D01*
X96652477Y-45063250D01*
X96633919Y-45103049D01*
X96587424Y-45156066D01*
X96519724Y-45175799D01*
X96452024Y-45156066D01*
X96405529Y-45103049D01*
X96387085Y-45063497D01*
X96337100Y-44992110D01*
X96337098Y-44992110D01*
X95609210Y-45720000D01*
X95609210Y-45720001D01*
X94890789Y-45720001D01*
X94890790Y-45720000D01*
X94890790Y-45719999D01*
X94162900Y-44992109D01*
X94112911Y-45063502D01*
X94094470Y-45103050D01*
X94047975Y-45156067D01*
X93980275Y-45175799D01*
X93912576Y-45156066D01*
X93866081Y-45103049D01*
X93847640Y-45063502D01*
X93847523Y-45063251D01*
X93716198Y-44875700D01*
X93716197Y-44875699D01*
X93716195Y-44875696D01*
X93554303Y-44713804D01*
X93438761Y-44632900D01*
X94522109Y-44632900D01*
X95249999Y-45360790D01*
X95250000Y-45360790D01*
X95977888Y-44632899D01*
X95906497Y-44582912D01*
X95699070Y-44486186D01*
X95477999Y-44426951D01*
X95250000Y-44407004D01*
X95022000Y-44426951D01*
X94800929Y-44486186D01*
X94593499Y-44582913D01*
X94522109Y-44632900D01*
X93438761Y-44632900D01*
X93366750Y-44582477D01*
X93159243Y-44485715D01*
X92938087Y-44426457D01*
X92710000Y-44406502D01*
X92709999Y-44406502D01*
X92481912Y-44426457D01*
X92260756Y-44485715D01*
X92053249Y-44582477D01*
X91865696Y-44713804D01*
X91703804Y-44875696D01*
X91572477Y-45063249D01*
X91475715Y-45270756D01*
X91416457Y-45491912D01*
X91396502Y-45719999D01*
X88265500Y-45719999D01*
X88265500Y-44267100D01*
X133932110Y-44267100D01*
X134003497Y-44317085D01*
X134210929Y-44413813D01*
X134432000Y-44473048D01*
X134660000Y-44492995D01*
X134887999Y-44473048D01*
X135109070Y-44413813D01*
X135316498Y-44317087D01*
X135387888Y-44267099D01*
X135387888Y-44267097D01*
X134660001Y-43539210D01*
X134660000Y-43539210D01*
X133932110Y-44267098D01*
X133932110Y-44267100D01*
X88265500Y-44267100D01*
X88265500Y-40004999D01*
X88761640Y-40004999D01*
X88781064Y-40363237D01*
X88839104Y-40717273D01*
X88935083Y-41062957D01*
X88935085Y-41062961D01*
X89067877Y-41396243D01*
X89128490Y-41510572D01*
X89235923Y-41713213D01*
X89313188Y-41827169D01*
X89437258Y-42010159D01*
X89669516Y-42283595D01*
X89929977Y-42530317D01*
X90215586Y-42747431D01*
X90522995Y-42932393D01*
X90848599Y-43083033D01*
X90848605Y-43083035D01*
X91188582Y-43197587D01*
X91538958Y-43274711D01*
X91895614Y-43313500D01*
X91895618Y-43313500D01*
X92254382Y-43313500D01*
X92254386Y-43313500D01*
X92539710Y-43282468D01*
X92611042Y-43274711D01*
X92961417Y-43197587D01*
X93013613Y-43180000D01*
X133347004Y-43180000D01*
X133366951Y-43407999D01*
X133426186Y-43629070D01*
X133522912Y-43836497D01*
X133572900Y-43907887D01*
X134300789Y-43180001D01*
X135019210Y-43180001D01*
X135747097Y-43907888D01*
X135747099Y-43907888D01*
X135797087Y-43836498D01*
X135893813Y-43629070D01*
X135953048Y-43407999D01*
X135972995Y-43180000D01*
X135972995Y-43179999D01*
X138346502Y-43179999D01*
X138366457Y-43408087D01*
X138425715Y-43629243D01*
X138522477Y-43836750D01*
X138653804Y-44024303D01*
X138815696Y-44186195D01*
X139003249Y-44317522D01*
X139210756Y-44414284D01*
X139270014Y-44430162D01*
X139431913Y-44473543D01*
X139660000Y-44493498D01*
X139888087Y-44473543D01*
X140109243Y-44414284D01*
X140316749Y-44317523D01*
X140504300Y-44186198D01*
X140666198Y-44024300D01*
X140797523Y-43836749D01*
X140894284Y-43629243D01*
X140953543Y-43408087D01*
X140973498Y-43180000D01*
X140953543Y-42951913D01*
X140894284Y-42730757D01*
X140797523Y-42523251D01*
X140747709Y-42452110D01*
X140666195Y-42335696D01*
X140504303Y-42173804D01*
X140316750Y-42042477D01*
X140109243Y-41945715D01*
X139888087Y-41886457D01*
X139660000Y-41866502D01*
X139431912Y-41886457D01*
X139210756Y-41945715D01*
X139003249Y-42042477D01*
X138815696Y-42173804D01*
X138653804Y-42335696D01*
X138522477Y-42523249D01*
X138425715Y-42730756D01*
X138366457Y-42951912D01*
X138346502Y-43179999D01*
X135972995Y-43179999D01*
X135953048Y-42952000D01*
X135893813Y-42730929D01*
X135797085Y-42523497D01*
X135747100Y-42452110D01*
X135747098Y-42452110D01*
X135019210Y-43180000D01*
X135019210Y-43180001D01*
X134300789Y-43180001D01*
X134300790Y-43180000D01*
X134300790Y-43179999D01*
X133572900Y-42452109D01*
X133522913Y-42523499D01*
X133426186Y-42730929D01*
X133366951Y-42952000D01*
X133347004Y-43180000D01*
X93013613Y-43180000D01*
X93301401Y-43083033D01*
X93627005Y-42932393D01*
X93934414Y-42747431D01*
X94220023Y-42530317D01*
X94480484Y-42283595D01*
X94642461Y-42092900D01*
X133932109Y-42092900D01*
X134659999Y-42820790D01*
X134660000Y-42820790D01*
X135387888Y-42092899D01*
X135316497Y-42042912D01*
X135109070Y-41946186D01*
X134887999Y-41886951D01*
X134659999Y-41867004D01*
X134432000Y-41886951D01*
X134210929Y-41946186D01*
X134003499Y-42042913D01*
X133932109Y-42092900D01*
X94642461Y-42092900D01*
X94712742Y-42010159D01*
X94914075Y-41713215D01*
X95082123Y-41396243D01*
X95214915Y-41062961D01*
X95310895Y-40717274D01*
X95368936Y-40363237D01*
X95388359Y-40005000D01*
X95388359Y-40004999D01*
X142101640Y-40004999D01*
X142121064Y-40363237D01*
X142179104Y-40717273D01*
X142275083Y-41062957D01*
X142275085Y-41062961D01*
X142407877Y-41396243D01*
X142468490Y-41510572D01*
X142575923Y-41713213D01*
X142653188Y-41827169D01*
X142777258Y-42010159D01*
X143009516Y-42283595D01*
X143269977Y-42530317D01*
X143555586Y-42747431D01*
X143862995Y-42932393D01*
X144188599Y-43083033D01*
X144188605Y-43083035D01*
X144528582Y-43197587D01*
X144878958Y-43274711D01*
X145235614Y-43313500D01*
X145235618Y-43313500D01*
X145594382Y-43313500D01*
X145594386Y-43313500D01*
X145879710Y-43282468D01*
X145951042Y-43274711D01*
X146301417Y-43197587D01*
X146641401Y-43083033D01*
X146967005Y-42932393D01*
X147274414Y-42747431D01*
X147560023Y-42530317D01*
X147820484Y-42283595D01*
X148052742Y-42010159D01*
X148254075Y-41713215D01*
X148422123Y-41396243D01*
X148554915Y-41062961D01*
X148650895Y-40717274D01*
X148708936Y-40363237D01*
X148728359Y-40005000D01*
X148708936Y-39646763D01*
X148650895Y-39292726D01*
X148554915Y-38947039D01*
X148422123Y-38613757D01*
X148254075Y-38296785D01*
X148052742Y-37999841D01*
X147820484Y-37726405D01*
X147560023Y-37479683D01*
X147274414Y-37262569D01*
X147116392Y-37167490D01*
X146967007Y-37077608D01*
X146883749Y-37039089D01*
X146641401Y-36926967D01*
X146641399Y-36926966D01*
X146641394Y-36926964D01*
X146301417Y-36812412D01*
X145951041Y-36735288D01*
X145594386Y-36696500D01*
X145594382Y-36696500D01*
X145235618Y-36696500D01*
X145235614Y-36696500D01*
X144878958Y-36735288D01*
X144528582Y-36812412D01*
X144188605Y-36926964D01*
X143862992Y-37077608D01*
X143555587Y-37262568D01*
X143487092Y-37314636D01*
X143269977Y-37479683D01*
X143009516Y-37726405D01*
X142777258Y-37999841D01*
X142777257Y-37999843D01*
X142575923Y-38296786D01*
X142407877Y-38613757D01*
X142275083Y-38947042D01*
X142179104Y-39292726D01*
X142121064Y-39646762D01*
X142101640Y-40004999D01*
X95388359Y-40004999D01*
X95368936Y-39646763D01*
X95310895Y-39292726D01*
X95214915Y-38947039D01*
X95082123Y-38613757D01*
X94914075Y-38296785D01*
X94712742Y-37999841D01*
X94480484Y-37726405D01*
X94220023Y-37479683D01*
X93934414Y-37262569D01*
X93776392Y-37167490D01*
X93627007Y-37077608D01*
X93543749Y-37039089D01*
X93301401Y-36926967D01*
X93301399Y-36926966D01*
X93301394Y-36926964D01*
X92961417Y-36812412D01*
X92611041Y-36735288D01*
X92254386Y-36696500D01*
X92254382Y-36696500D01*
X91895618Y-36696500D01*
X91895614Y-36696500D01*
X91538958Y-36735288D01*
X91188582Y-36812412D01*
X90848605Y-36926964D01*
X90522992Y-37077608D01*
X90215587Y-37262568D01*
X90147092Y-37314636D01*
X89929977Y-37479683D01*
X89669516Y-37726405D01*
X89437258Y-37999841D01*
X89437257Y-37999843D01*
X89235923Y-38296786D01*
X89067877Y-38613757D01*
X88935083Y-38947042D01*
X88839104Y-39292726D01*
X88781064Y-39646762D01*
X88761640Y-40004999D01*
X88265500Y-40004999D01*
X88265500Y-37469954D01*
X88265888Y-37460070D01*
X88269950Y-37408450D01*
X88270026Y-37407551D01*
X88282273Y-37267575D01*
X88285274Y-37249144D01*
X88290448Y-37227593D01*
X88304148Y-37170527D01*
X88304917Y-37167498D01*
X88333102Y-37062309D01*
X88338386Y-37046743D01*
X88371616Y-36966519D01*
X88373772Y-36961620D01*
X88417289Y-36868298D01*
X88424017Y-36855776D01*
X88470547Y-36779847D01*
X88474693Y-36773523D01*
X88532549Y-36690896D01*
X88539919Y-36681378D01*
X88598265Y-36613064D01*
X88604943Y-36605840D01*
X88675840Y-36534943D01*
X88683064Y-36528265D01*
X88751378Y-36469919D01*
X88760896Y-36462549D01*
X88843523Y-36404693D01*
X88849847Y-36400547D01*
X88925776Y-36354017D01*
X88938298Y-36347289D01*
X89031620Y-36303772D01*
X89036519Y-36301616D01*
X89116743Y-36268386D01*
X89132309Y-36263102D01*
X89237498Y-36234917D01*
X89240527Y-36234148D01*
X89319147Y-36215273D01*
X89337575Y-36212273D01*
X89459390Y-36201614D01*
X89477578Y-36200023D01*
X89478419Y-36199953D01*
X89530070Y-36195887D01*
X89539954Y-36195500D01*
X147315880Y-36195500D01*
X147324118Y-36195770D01*
G37*
%TD.AperFunction*%
%TD*%
M02*
