G04 #@! TF.GenerationSoftware,KiCad,Pcbnew,7.0.1*
G04 #@! TF.CreationDate,2024-08-10T04:39:01+08:00*
G04 #@! TF.ProjectId,BDST,42445354-2e6b-4696-9361-645f70636258,rev?*
G04 #@! TF.SameCoordinates,Original*
G04 #@! TF.FileFunction,Other,User*
%FSLAX46Y46*%
G04 Gerber Fmt 4.6, Leading zero omitted, Abs format (unit mm)*
G04 Created by KiCad (PCBNEW 7.0.1) date 2024-08-10 04:39:01*
%MOMM*%
%LPD*%
G01*
G04 APERTURE LIST*
%ADD10C,0.050000*%
G04 APERTURE END LIST*
D10*
X138240000Y-70655000D02*
X146240000Y-70655000D01*
X138240000Y-70655000D02*
X138240000Y-60155000D01*
X146240000Y-60155000D02*
X146240000Y-70655000D01*
X146240000Y-60155000D02*
X138240000Y-60155000D01*
X140710000Y-44380000D02*
X140710000Y-41980000D01*
X140710000Y-41980000D02*
X133610000Y-41980000D01*
X133610000Y-44380000D02*
X140710000Y-44380000D01*
X133610000Y-41980000D02*
X133610000Y-44380000D01*
X90910000Y-66790000D02*
X90910000Y-77990000D01*
X90910000Y-77990000D02*
X94510000Y-77990000D01*
X94510000Y-66790000D02*
X90910000Y-66790000D01*
X94510000Y-77990000D02*
X94510000Y-66790000D01*
X135150000Y-72290000D02*
X135150000Y-66140000D01*
X135150000Y-66140000D02*
X131550000Y-66140000D01*
X131550000Y-72290000D02*
X135150000Y-72290000D01*
X131550000Y-66140000D02*
X131550000Y-72290000D01*
X122660000Y-61695000D02*
X122660000Y-67845000D01*
X122660000Y-67845000D02*
X126260000Y-67845000D01*
X126260000Y-61695000D02*
X122660000Y-61695000D01*
X126260000Y-67845000D02*
X126260000Y-61695000D01*
X135150000Y-64665000D02*
X135150000Y-58515000D01*
X135150000Y-58515000D02*
X131550000Y-58515000D01*
X131550000Y-64665000D02*
X135150000Y-64665000D01*
X131550000Y-58515000D02*
X131550000Y-64665000D01*
X129955000Y-56200000D02*
X127855000Y-56200000D01*
X127855000Y-56200000D02*
X127855000Y-65720000D01*
X129955000Y-65720000D02*
X129955000Y-56200000D01*
X127855000Y-65720000D02*
X129955000Y-65720000D01*
X148465000Y-40005000D02*
G75*
G03*
X148465000Y-40005000I-3050000J0D01*
G01*
X103890000Y-65790000D02*
X103890000Y-86610000D01*
X103890000Y-65790000D02*
X119630000Y-65790000D01*
X119630000Y-86610000D02*
X103890000Y-86610000D01*
X119630000Y-86610000D02*
X119630000Y-65790000D01*
X95125000Y-40005000D02*
G75*
G03*
X95125000Y-40005000I-3050000J0D01*
G01*
X95125000Y-91440000D02*
G75*
G03*
X95125000Y-91440000I-3050000J0D01*
G01*
X146370000Y-44915000D02*
X125410000Y-44915000D01*
X125410000Y-44915000D02*
X125410000Y-55415000D01*
X146370000Y-55415000D02*
X146370000Y-44915000D01*
X125410000Y-55415000D02*
X146370000Y-55415000D01*
X101307651Y-83820000D02*
G75*
G03*
X101307651Y-83820000I-4250000J0D01*
G01*
X148970000Y-76217500D02*
X148970000Y-85717500D01*
X139970000Y-76217500D02*
X148970000Y-76217500D01*
X139970000Y-74217500D02*
X139970000Y-76217500D01*
X135970000Y-76217500D02*
X135970000Y-74217500D01*
X135970000Y-74217500D02*
X139970000Y-74217500D01*
X133970000Y-85717500D02*
X148970000Y-85717500D01*
X133970000Y-85467500D02*
X133970000Y-85717500D01*
X133970000Y-85467500D02*
X133970000Y-82967500D01*
X133970000Y-82967500D02*
X132970000Y-82967500D01*
X133970000Y-78967500D02*
X133970000Y-76217500D01*
X133970000Y-76217500D02*
X135970000Y-76217500D01*
X132970000Y-82967500D02*
X132970000Y-78967500D01*
X132970000Y-78967500D02*
X133970000Y-78967500D01*
X148465000Y-91440000D02*
G75*
G03*
X148465000Y-91440000I-3050000J0D01*
G01*
X126260000Y-74825000D02*
X126260000Y-68675000D01*
X126260000Y-68675000D02*
X122660000Y-68675000D01*
X122660000Y-74825000D02*
X126260000Y-74825000D01*
X122660000Y-68675000D02*
X122660000Y-74825000D01*
X98530000Y-64870000D02*
X98530000Y-71020000D01*
X98530000Y-71020000D02*
X102130000Y-71020000D01*
X102130000Y-64870000D02*
X98530000Y-64870000D01*
X102130000Y-71020000D02*
X102130000Y-64870000D01*
X127855000Y-75245000D02*
X129955000Y-75245000D01*
X129955000Y-75245000D02*
X129955000Y-65725000D01*
X127855000Y-65725000D02*
X127855000Y-75245000D01*
X129955000Y-65725000D02*
X127855000Y-65725000D01*
X131525000Y-85870000D02*
X131525000Y-75420000D01*
X131525000Y-75420000D02*
X121225000Y-75420000D01*
X121225000Y-85870000D02*
X131525000Y-85870000D01*
X121225000Y-75420000D02*
X121225000Y-85870000D01*
X133610000Y-55950000D02*
X133610000Y-58350000D01*
X133610000Y-58350000D02*
X140710000Y-58350000D01*
X140710000Y-55950000D02*
X133610000Y-55950000D01*
X140710000Y-58350000D02*
X140710000Y-55950000D01*
M02*
