M48
INCH,TZ
T1C0.0276
T2C0.0315
T3C0.0394
T4C0.0433
T5C0.0598
T6C0.1260
%
G90
G05
T1
X50750Y-22500
X50750Y-25500
X50750Y-26250
X50750Y-29250
T2
X37464Y-33000
X38960Y-33000
X41504Y-26500
X41504Y-27500
X41504Y-28500
X41504Y-29500
X41504Y-30500
X41504Y-31500
X41504Y-32500
X41504Y-33500
X46504Y-26500
X46504Y-27500
X46504Y-28500
X46504Y-29500
X46504Y-30500
X46504Y-31500
X46504Y-32500
X46504Y-33500
X48250Y-30744
X48250Y-31744
X48250Y-32744
X51250Y-30744
X51250Y-31744
X51250Y-32744
X53016Y-17000
X53016Y-22500
X54984Y-17000
X54984Y-22500
T3
X36500Y-27004
X36500Y-28004
X36500Y-29004
X36500Y-30004
X39500Y-26248
X39500Y-27248
X49000Y-24998
X49000Y-25998
X49000Y-27750
X49000Y-28750
X52500Y-23750
X52500Y-24750
X52500Y-26752
X52500Y-27752
T4
X36500Y-18000
X36500Y-24000
X37500Y-18000
X37500Y-24000
X38500Y-18000
X38500Y-24000
X39500Y-18000
X39500Y-24000
X40500Y-18000
X40500Y-24000
X41500Y-18000
X41500Y-24000
X42500Y-18000
X42500Y-24000
X43500Y-18000
X43500Y-24000
X44500Y-18000
X44500Y-24000
X45500Y-18000
X45500Y-24000
X46500Y-18000
X46500Y-24000
X47500Y-18000
X47500Y-24000
X49866Y-18750
X49866Y-19750
X49866Y-20750
T5
X56000Y-24750
X56000Y-26750
T6
X36250Y-15750
X36250Y-36000
X57250Y-15750
X57250Y-36000
T3
G00X53138Y-32271
M15
G01X53138Y-31483
M16
G05
G00X54713Y-30027
M15
G01X53925Y-30027
M16
G05
G00X55500Y-32271
M15
G01X55500Y-31483
M16
G05
T0
M30
