G04 #@! TF.GenerationSoftware,KiCad,Pcbnew,7.0.1*
G04 #@! TF.CreationDate,2024-08-10T04:39:01+08:00*
G04 #@! TF.ProjectId,BDST,42445354-2e6b-4696-9361-645f70636258,rev?*
G04 #@! TF.SameCoordinates,Original*
G04 #@! TF.FileFunction,Legend,Top*
G04 #@! TF.FilePolarity,Positive*
%FSLAX46Y46*%
G04 Gerber Fmt 4.6, Leading zero omitted, Abs format (unit mm)*
G04 Created by KiCad (PCBNEW 7.0.1) date 2024-08-10 04:39:01*
%MOMM*%
%LPD*%
G01*
G04 APERTURE LIST*
G04 Aperture macros list*
%AMRoundRect*
0 Rectangle with rounded corners*
0 $1 Rounding radius*
0 $2 $3 $4 $5 $6 $7 $8 $9 X,Y pos of 4 corners*
0 Add a 4 corners polygon primitive as box body*
4,1,4,$2,$3,$4,$5,$6,$7,$8,$9,$2,$3,0*
0 Add four circle primitives for the rounded corners*
1,1,$1+$1,$2,$3*
1,1,$1+$1,$4,$5*
1,1,$1+$1,$6,$7*
1,1,$1+$1,$8,$9*
0 Add four rect primitives between the rounded corners*
20,1,$1+$1,$2,$3,$4,$5,0*
20,1,$1+$1,$4,$5,$6,$7,0*
20,1,$1+$1,$6,$7,$8,$9,0*
20,1,$1+$1,$8,$9,$2,$3,0*%
G04 Aperture macros list end*
%ADD10C,0.150000*%
%ADD11C,0.250000*%
%ADD12C,0.300000*%
%ADD13C,0.120000*%
%ADD14R,1.600000X1.600000*%
%ADD15C,1.600000*%
%ADD16R,3.000000X3.000000*%
%ADD17C,3.000000*%
%ADD18R,1.700000X1.700000*%
%ADD19O,1.700000X1.700000*%
%ADD20C,1.400000*%
%ADD21O,1.400000X1.400000*%
%ADD22C,3.600000*%
%ADD23C,5.600000*%
%ADD24O,1.600000X1.600000*%
%ADD25O,3.500000X3.500000*%
%ADD26R,2.000000X1.905000*%
%ADD27O,2.000000X1.905000*%
%ADD28R,3.500000X3.500000*%
%ADD29RoundRect,0.750000X0.750000X1.000000X-0.750000X1.000000X-0.750000X-1.000000X0.750000X-1.000000X0*%
%ADD30RoundRect,0.875000X0.875000X0.875000X-0.875000X0.875000X-0.875000X-0.875000X0.875000X-0.875000X0*%
G04 APERTURE END LIST*
D10*
X107275476Y-80472619D02*
X107275476Y-79472619D01*
X107275476Y-79472619D02*
X107608809Y-80186904D01*
X107608809Y-80186904D02*
X107942142Y-79472619D01*
X107942142Y-79472619D02*
X107942142Y-80472619D01*
X108370714Y-79567857D02*
X108418333Y-79520238D01*
X108418333Y-79520238D02*
X108513571Y-79472619D01*
X108513571Y-79472619D02*
X108751666Y-79472619D01*
X108751666Y-79472619D02*
X108846904Y-79520238D01*
X108846904Y-79520238D02*
X108894523Y-79567857D01*
X108894523Y-79567857D02*
X108942142Y-79663095D01*
X108942142Y-79663095D02*
X108942142Y-79758333D01*
X108942142Y-79758333D02*
X108894523Y-79901190D01*
X108894523Y-79901190D02*
X108323095Y-80472619D01*
X108323095Y-80472619D02*
X108942142Y-80472619D01*
X109704047Y-79948809D02*
X109846904Y-79996428D01*
X109846904Y-79996428D02*
X109894523Y-80044047D01*
X109894523Y-80044047D02*
X109942142Y-80139285D01*
X109942142Y-80139285D02*
X109942142Y-80282142D01*
X109942142Y-80282142D02*
X109894523Y-80377380D01*
X109894523Y-80377380D02*
X109846904Y-80425000D01*
X109846904Y-80425000D02*
X109751666Y-80472619D01*
X109751666Y-80472619D02*
X109370714Y-80472619D01*
X109370714Y-80472619D02*
X109370714Y-79472619D01*
X109370714Y-79472619D02*
X109704047Y-79472619D01*
X109704047Y-79472619D02*
X109799285Y-79520238D01*
X109799285Y-79520238D02*
X109846904Y-79567857D01*
X109846904Y-79567857D02*
X109894523Y-79663095D01*
X109894523Y-79663095D02*
X109894523Y-79758333D01*
X109894523Y-79758333D02*
X109846904Y-79853571D01*
X109846904Y-79853571D02*
X109799285Y-79901190D01*
X109799285Y-79901190D02*
X109704047Y-79948809D01*
X109704047Y-79948809D02*
X109370714Y-79948809D01*
X107346905Y-77932619D02*
X107346905Y-76932619D01*
X107346905Y-76932619D02*
X107680238Y-77646904D01*
X107680238Y-77646904D02*
X108013571Y-76932619D01*
X108013571Y-76932619D02*
X108013571Y-77932619D01*
X108442143Y-77027857D02*
X108489762Y-76980238D01*
X108489762Y-76980238D02*
X108585000Y-76932619D01*
X108585000Y-76932619D02*
X108823095Y-76932619D01*
X108823095Y-76932619D02*
X108918333Y-76980238D01*
X108918333Y-76980238D02*
X108965952Y-77027857D01*
X108965952Y-77027857D02*
X109013571Y-77123095D01*
X109013571Y-77123095D02*
X109013571Y-77218333D01*
X109013571Y-77218333D02*
X108965952Y-77361190D01*
X108965952Y-77361190D02*
X108394524Y-77932619D01*
X108394524Y-77932619D02*
X109013571Y-77932619D01*
X109394524Y-77646904D02*
X109870714Y-77646904D01*
X109299286Y-77932619D02*
X109632619Y-76932619D01*
X109632619Y-76932619D02*
X109965952Y-77932619D01*
X136581190Y-87457619D02*
X136581190Y-86457619D01*
X136581190Y-86457619D02*
X136962142Y-86457619D01*
X136962142Y-86457619D02*
X137057380Y-86505238D01*
X137057380Y-86505238D02*
X137104999Y-86552857D01*
X137104999Y-86552857D02*
X137152618Y-86648095D01*
X137152618Y-86648095D02*
X137152618Y-86790952D01*
X137152618Y-86790952D02*
X137104999Y-86886190D01*
X137104999Y-86886190D02*
X137057380Y-86933809D01*
X137057380Y-86933809D02*
X136962142Y-86981428D01*
X136962142Y-86981428D02*
X136581190Y-86981428D01*
X137724047Y-87457619D02*
X137628809Y-87410000D01*
X137628809Y-87410000D02*
X137581190Y-87362380D01*
X137581190Y-87362380D02*
X137533571Y-87267142D01*
X137533571Y-87267142D02*
X137533571Y-86981428D01*
X137533571Y-86981428D02*
X137581190Y-86886190D01*
X137581190Y-86886190D02*
X137628809Y-86838571D01*
X137628809Y-86838571D02*
X137724047Y-86790952D01*
X137724047Y-86790952D02*
X137866904Y-86790952D01*
X137866904Y-86790952D02*
X137962142Y-86838571D01*
X137962142Y-86838571D02*
X138009761Y-86886190D01*
X138009761Y-86886190D02*
X138057380Y-86981428D01*
X138057380Y-86981428D02*
X138057380Y-87267142D01*
X138057380Y-87267142D02*
X138009761Y-87362380D01*
X138009761Y-87362380D02*
X137962142Y-87410000D01*
X137962142Y-87410000D02*
X137866904Y-87457619D01*
X137866904Y-87457619D02*
X137724047Y-87457619D01*
X138390714Y-86790952D02*
X138581190Y-87457619D01*
X138581190Y-87457619D02*
X138771666Y-86981428D01*
X138771666Y-86981428D02*
X138962142Y-87457619D01*
X138962142Y-87457619D02*
X139152618Y-86790952D01*
X139914523Y-87410000D02*
X139819285Y-87457619D01*
X139819285Y-87457619D02*
X139628809Y-87457619D01*
X139628809Y-87457619D02*
X139533571Y-87410000D01*
X139533571Y-87410000D02*
X139485952Y-87314761D01*
X139485952Y-87314761D02*
X139485952Y-86933809D01*
X139485952Y-86933809D02*
X139533571Y-86838571D01*
X139533571Y-86838571D02*
X139628809Y-86790952D01*
X139628809Y-86790952D02*
X139819285Y-86790952D01*
X139819285Y-86790952D02*
X139914523Y-86838571D01*
X139914523Y-86838571D02*
X139962142Y-86933809D01*
X139962142Y-86933809D02*
X139962142Y-87029047D01*
X139962142Y-87029047D02*
X139485952Y-87124285D01*
X140390714Y-87457619D02*
X140390714Y-86790952D01*
X140390714Y-86981428D02*
X140438333Y-86886190D01*
X140438333Y-86886190D02*
X140485952Y-86838571D01*
X140485952Y-86838571D02*
X140581190Y-86790952D01*
X140581190Y-86790952D02*
X140676428Y-86790952D01*
X142057381Y-87838571D02*
X142009762Y-87790952D01*
X142009762Y-87790952D02*
X141914524Y-87648095D01*
X141914524Y-87648095D02*
X141866905Y-87552857D01*
X141866905Y-87552857D02*
X141819286Y-87410000D01*
X141819286Y-87410000D02*
X141771667Y-87171904D01*
X141771667Y-87171904D02*
X141771667Y-86981428D01*
X141771667Y-86981428D02*
X141819286Y-86743333D01*
X141819286Y-86743333D02*
X141866905Y-86600476D01*
X141866905Y-86600476D02*
X141914524Y-86505238D01*
X141914524Y-86505238D02*
X142009762Y-86362380D01*
X142009762Y-86362380D02*
X142057381Y-86314761D01*
X142438334Y-87076666D02*
X143200239Y-87076666D01*
X142819286Y-87457619D02*
X142819286Y-86695714D01*
X144200238Y-87457619D02*
X143628810Y-87457619D01*
X143914524Y-87457619D02*
X143914524Y-86457619D01*
X143914524Y-86457619D02*
X143819286Y-86600476D01*
X143819286Y-86600476D02*
X143724048Y-86695714D01*
X143724048Y-86695714D02*
X143628810Y-86743333D01*
X144581191Y-86552857D02*
X144628810Y-86505238D01*
X144628810Y-86505238D02*
X144724048Y-86457619D01*
X144724048Y-86457619D02*
X144962143Y-86457619D01*
X144962143Y-86457619D02*
X145057381Y-86505238D01*
X145057381Y-86505238D02*
X145105000Y-86552857D01*
X145105000Y-86552857D02*
X145152619Y-86648095D01*
X145152619Y-86648095D02*
X145152619Y-86743333D01*
X145152619Y-86743333D02*
X145105000Y-86886190D01*
X145105000Y-86886190D02*
X144533572Y-87457619D01*
X144533572Y-87457619D02*
X145152619Y-87457619D01*
X145438334Y-86457619D02*
X145771667Y-87457619D01*
X145771667Y-87457619D02*
X146105000Y-86457619D01*
X146343096Y-87838571D02*
X146390715Y-87790952D01*
X146390715Y-87790952D02*
X146485953Y-87648095D01*
X146485953Y-87648095D02*
X146533572Y-87552857D01*
X146533572Y-87552857D02*
X146581191Y-87410000D01*
X146581191Y-87410000D02*
X146628810Y-87171904D01*
X146628810Y-87171904D02*
X146628810Y-86981428D01*
X146628810Y-86981428D02*
X146581191Y-86743333D01*
X146581191Y-86743333D02*
X146533572Y-86600476D01*
X146533572Y-86600476D02*
X146485953Y-86505238D01*
X146485953Y-86505238D02*
X146390715Y-86362380D01*
X146390715Y-86362380D02*
X146343096Y-86314761D01*
X135352619Y-71381666D02*
X135352619Y-71191190D01*
X135352619Y-71191190D02*
X135400238Y-71095952D01*
X135400238Y-71095952D02*
X135495476Y-71000714D01*
X135495476Y-71000714D02*
X135685952Y-70953095D01*
X135685952Y-70953095D02*
X136019285Y-70953095D01*
X136019285Y-70953095D02*
X136209761Y-71000714D01*
X136209761Y-71000714D02*
X136305000Y-71095952D01*
X136305000Y-71095952D02*
X136352619Y-71191190D01*
X136352619Y-71191190D02*
X136352619Y-71381666D01*
X136352619Y-71381666D02*
X136305000Y-71476904D01*
X136305000Y-71476904D02*
X136209761Y-71572142D01*
X136209761Y-71572142D02*
X136019285Y-71619761D01*
X136019285Y-71619761D02*
X135685952Y-71619761D01*
X135685952Y-71619761D02*
X135495476Y-71572142D01*
X135495476Y-71572142D02*
X135400238Y-71476904D01*
X135400238Y-71476904D02*
X135352619Y-71381666D01*
X135685952Y-70524523D02*
X136352619Y-70524523D01*
X135781190Y-70524523D02*
X135733571Y-70476904D01*
X135733571Y-70476904D02*
X135685952Y-70381666D01*
X135685952Y-70381666D02*
X135685952Y-70238809D01*
X135685952Y-70238809D02*
X135733571Y-70143571D01*
X135733571Y-70143571D02*
X135828809Y-70095952D01*
X135828809Y-70095952D02*
X136352619Y-70095952D01*
X135305000Y-68905476D02*
X136590714Y-69762618D01*
X135352619Y-68381666D02*
X135352619Y-68191190D01*
X135352619Y-68191190D02*
X135400238Y-68095952D01*
X135400238Y-68095952D02*
X135495476Y-68000714D01*
X135495476Y-68000714D02*
X135685952Y-67953095D01*
X135685952Y-67953095D02*
X136019285Y-67953095D01*
X136019285Y-67953095D02*
X136209761Y-68000714D01*
X136209761Y-68000714D02*
X136305000Y-68095952D01*
X136305000Y-68095952D02*
X136352619Y-68191190D01*
X136352619Y-68191190D02*
X136352619Y-68381666D01*
X136352619Y-68381666D02*
X136305000Y-68476904D01*
X136305000Y-68476904D02*
X136209761Y-68572142D01*
X136209761Y-68572142D02*
X136019285Y-68619761D01*
X136019285Y-68619761D02*
X135685952Y-68619761D01*
X135685952Y-68619761D02*
X135495476Y-68572142D01*
X135495476Y-68572142D02*
X135400238Y-68476904D01*
X135400238Y-68476904D02*
X135352619Y-68381666D01*
X135685952Y-67667380D02*
X135685952Y-67286428D01*
X136352619Y-67524523D02*
X135495476Y-67524523D01*
X135495476Y-67524523D02*
X135400238Y-67476904D01*
X135400238Y-67476904D02*
X135352619Y-67381666D01*
X135352619Y-67381666D02*
X135352619Y-67286428D01*
X135685952Y-67095951D02*
X135685952Y-66714999D01*
X136352619Y-66953094D02*
X135495476Y-66953094D01*
X135495476Y-66953094D02*
X135400238Y-66905475D01*
X135400238Y-66905475D02*
X135352619Y-66810237D01*
X135352619Y-66810237D02*
X135352619Y-66714999D01*
X107823095Y-66820238D02*
X107727857Y-66772619D01*
X107727857Y-66772619D02*
X107585000Y-66772619D01*
X107585000Y-66772619D02*
X107442143Y-66820238D01*
X107442143Y-66820238D02*
X107346905Y-66915476D01*
X107346905Y-66915476D02*
X107299286Y-67010714D01*
X107299286Y-67010714D02*
X107251667Y-67201190D01*
X107251667Y-67201190D02*
X107251667Y-67344047D01*
X107251667Y-67344047D02*
X107299286Y-67534523D01*
X107299286Y-67534523D02*
X107346905Y-67629761D01*
X107346905Y-67629761D02*
X107442143Y-67725000D01*
X107442143Y-67725000D02*
X107585000Y-67772619D01*
X107585000Y-67772619D02*
X107680238Y-67772619D01*
X107680238Y-67772619D02*
X107823095Y-67725000D01*
X107823095Y-67725000D02*
X107870714Y-67677380D01*
X107870714Y-67677380D02*
X107870714Y-67344047D01*
X107870714Y-67344047D02*
X107680238Y-67344047D01*
X108299286Y-67772619D02*
X108299286Y-66772619D01*
X108299286Y-66772619D02*
X108870714Y-67772619D01*
X108870714Y-67772619D02*
X108870714Y-66772619D01*
X109346905Y-67772619D02*
X109346905Y-66772619D01*
X109346905Y-66772619D02*
X109585000Y-66772619D01*
X109585000Y-66772619D02*
X109727857Y-66820238D01*
X109727857Y-66820238D02*
X109823095Y-66915476D01*
X109823095Y-66915476D02*
X109870714Y-67010714D01*
X109870714Y-67010714D02*
X109918333Y-67201190D01*
X109918333Y-67201190D02*
X109918333Y-67344047D01*
X109918333Y-67344047D02*
X109870714Y-67534523D01*
X109870714Y-67534523D02*
X109823095Y-67629761D01*
X109823095Y-67629761D02*
X109727857Y-67725000D01*
X109727857Y-67725000D02*
X109585000Y-67772619D01*
X109585000Y-67772619D02*
X109346905Y-67772619D01*
X90612142Y-72945714D02*
X90659761Y-72993333D01*
X90659761Y-72993333D02*
X90707380Y-73088571D01*
X90707380Y-73088571D02*
X90707380Y-73326666D01*
X90707380Y-73326666D02*
X90659761Y-73421904D01*
X90659761Y-73421904D02*
X90612142Y-73469523D01*
X90612142Y-73469523D02*
X90516904Y-73517142D01*
X90516904Y-73517142D02*
X90421666Y-73517142D01*
X90421666Y-73517142D02*
X90278809Y-73469523D01*
X90278809Y-73469523D02*
X89707380Y-72898095D01*
X89707380Y-72898095D02*
X89707380Y-73517142D01*
X89993095Y-73898095D02*
X89993095Y-74374285D01*
X89707380Y-73802857D02*
X90707380Y-74136190D01*
X90707380Y-74136190D02*
X89707380Y-74469523D01*
X89707380Y-70905714D02*
X89707380Y-70334286D01*
X89707380Y-70620000D02*
X90707380Y-70620000D01*
X90707380Y-70620000D02*
X90564523Y-70524762D01*
X90564523Y-70524762D02*
X90469285Y-70429524D01*
X90469285Y-70429524D02*
X90421666Y-70334286D01*
X90231190Y-71667619D02*
X90183571Y-71810476D01*
X90183571Y-71810476D02*
X90135952Y-71858095D01*
X90135952Y-71858095D02*
X90040714Y-71905714D01*
X90040714Y-71905714D02*
X89897857Y-71905714D01*
X89897857Y-71905714D02*
X89802619Y-71858095D01*
X89802619Y-71858095D02*
X89755000Y-71810476D01*
X89755000Y-71810476D02*
X89707380Y-71715238D01*
X89707380Y-71715238D02*
X89707380Y-71334286D01*
X89707380Y-71334286D02*
X90707380Y-71334286D01*
X90707380Y-71334286D02*
X90707380Y-71667619D01*
X90707380Y-71667619D02*
X90659761Y-71762857D01*
X90659761Y-71762857D02*
X90612142Y-71810476D01*
X90612142Y-71810476D02*
X90516904Y-71858095D01*
X90516904Y-71858095D02*
X90421666Y-71858095D01*
X90421666Y-71858095D02*
X90326428Y-71810476D01*
X90326428Y-71810476D02*
X90278809Y-71762857D01*
X90278809Y-71762857D02*
X90231190Y-71667619D01*
X90231190Y-71667619D02*
X90231190Y-71334286D01*
X107346905Y-72852619D02*
X107346905Y-71852619D01*
X107346905Y-71852619D02*
X107680238Y-72566904D01*
X107680238Y-72566904D02*
X108013571Y-71852619D01*
X108013571Y-71852619D02*
X108013571Y-72852619D01*
X109013571Y-72852619D02*
X108442143Y-72852619D01*
X108727857Y-72852619D02*
X108727857Y-71852619D01*
X108727857Y-71852619D02*
X108632619Y-71995476D01*
X108632619Y-71995476D02*
X108537381Y-72090714D01*
X108537381Y-72090714D02*
X108442143Y-72138333D01*
X109394524Y-72566904D02*
X109870714Y-72566904D01*
X109299286Y-72852619D02*
X109632619Y-71852619D01*
X109632619Y-71852619D02*
X109965952Y-72852619D01*
X107251667Y-69312619D02*
X107585000Y-70312619D01*
X107585000Y-70312619D02*
X107918333Y-69312619D01*
X108251667Y-70312619D02*
X108251667Y-69312619D01*
X108251667Y-69312619D02*
X108489762Y-69312619D01*
X108489762Y-69312619D02*
X108632619Y-69360238D01*
X108632619Y-69360238D02*
X108727857Y-69455476D01*
X108727857Y-69455476D02*
X108775476Y-69550714D01*
X108775476Y-69550714D02*
X108823095Y-69741190D01*
X108823095Y-69741190D02*
X108823095Y-69884047D01*
X108823095Y-69884047D02*
X108775476Y-70074523D01*
X108775476Y-70074523D02*
X108727857Y-70169761D01*
X108727857Y-70169761D02*
X108632619Y-70265000D01*
X108632619Y-70265000D02*
X108489762Y-70312619D01*
X108489762Y-70312619D02*
X108251667Y-70312619D01*
X109251667Y-70312619D02*
X109251667Y-69312619D01*
X109251667Y-69312619D02*
X109489762Y-69312619D01*
X109489762Y-69312619D02*
X109632619Y-69360238D01*
X109632619Y-69360238D02*
X109727857Y-69455476D01*
X109727857Y-69455476D02*
X109775476Y-69550714D01*
X109775476Y-69550714D02*
X109823095Y-69741190D01*
X109823095Y-69741190D02*
X109823095Y-69884047D01*
X109823095Y-69884047D02*
X109775476Y-70074523D01*
X109775476Y-70074523D02*
X109727857Y-70169761D01*
X109727857Y-70169761D02*
X109632619Y-70265000D01*
X109632619Y-70265000D02*
X109489762Y-70312619D01*
X109489762Y-70312619D02*
X109251667Y-70312619D01*
X107823095Y-82060238D02*
X107727857Y-82012619D01*
X107727857Y-82012619D02*
X107585000Y-82012619D01*
X107585000Y-82012619D02*
X107442143Y-82060238D01*
X107442143Y-82060238D02*
X107346905Y-82155476D01*
X107346905Y-82155476D02*
X107299286Y-82250714D01*
X107299286Y-82250714D02*
X107251667Y-82441190D01*
X107251667Y-82441190D02*
X107251667Y-82584047D01*
X107251667Y-82584047D02*
X107299286Y-82774523D01*
X107299286Y-82774523D02*
X107346905Y-82869761D01*
X107346905Y-82869761D02*
X107442143Y-82965000D01*
X107442143Y-82965000D02*
X107585000Y-83012619D01*
X107585000Y-83012619D02*
X107680238Y-83012619D01*
X107680238Y-83012619D02*
X107823095Y-82965000D01*
X107823095Y-82965000D02*
X107870714Y-82917380D01*
X107870714Y-82917380D02*
X107870714Y-82584047D01*
X107870714Y-82584047D02*
X107680238Y-82584047D01*
X108299286Y-83012619D02*
X108299286Y-82012619D01*
X108299286Y-82012619D02*
X108870714Y-83012619D01*
X108870714Y-83012619D02*
X108870714Y-82012619D01*
X109346905Y-83012619D02*
X109346905Y-82012619D01*
X109346905Y-82012619D02*
X109585000Y-82012619D01*
X109585000Y-82012619D02*
X109727857Y-82060238D01*
X109727857Y-82060238D02*
X109823095Y-82155476D01*
X109823095Y-82155476D02*
X109870714Y-82250714D01*
X109870714Y-82250714D02*
X109918333Y-82441190D01*
X109918333Y-82441190D02*
X109918333Y-82584047D01*
X109918333Y-82584047D02*
X109870714Y-82774523D01*
X109870714Y-82774523D02*
X109823095Y-82869761D01*
X109823095Y-82869761D02*
X109727857Y-82965000D01*
X109727857Y-82965000D02*
X109585000Y-83012619D01*
X109585000Y-83012619D02*
X109346905Y-83012619D01*
X112847618Y-72852619D02*
X112514285Y-72376428D01*
X112276190Y-72852619D02*
X112276190Y-71852619D01*
X112276190Y-71852619D02*
X112657142Y-71852619D01*
X112657142Y-71852619D02*
X112752380Y-71900238D01*
X112752380Y-71900238D02*
X112799999Y-71947857D01*
X112799999Y-71947857D02*
X112847618Y-72043095D01*
X112847618Y-72043095D02*
X112847618Y-72185952D01*
X112847618Y-72185952D02*
X112799999Y-72281190D01*
X112799999Y-72281190D02*
X112752380Y-72328809D01*
X112752380Y-72328809D02*
X112657142Y-72376428D01*
X112657142Y-72376428D02*
X112276190Y-72376428D01*
X113276190Y-72328809D02*
X113609523Y-72328809D01*
X113752380Y-72852619D02*
X113276190Y-72852619D01*
X113276190Y-72852619D02*
X113276190Y-71852619D01*
X113276190Y-71852619D02*
X113752380Y-71852619D01*
X114133333Y-72805000D02*
X114276190Y-72852619D01*
X114276190Y-72852619D02*
X114514285Y-72852619D01*
X114514285Y-72852619D02*
X114609523Y-72805000D01*
X114609523Y-72805000D02*
X114657142Y-72757380D01*
X114657142Y-72757380D02*
X114704761Y-72662142D01*
X114704761Y-72662142D02*
X114704761Y-72566904D01*
X114704761Y-72566904D02*
X114657142Y-72471666D01*
X114657142Y-72471666D02*
X114609523Y-72424047D01*
X114609523Y-72424047D02*
X114514285Y-72376428D01*
X114514285Y-72376428D02*
X114323809Y-72328809D01*
X114323809Y-72328809D02*
X114228571Y-72281190D01*
X114228571Y-72281190D02*
X114180952Y-72233571D01*
X114180952Y-72233571D02*
X114133333Y-72138333D01*
X114133333Y-72138333D02*
X114133333Y-72043095D01*
X114133333Y-72043095D02*
X114180952Y-71947857D01*
X114180952Y-71947857D02*
X114228571Y-71900238D01*
X114228571Y-71900238D02*
X114323809Y-71852619D01*
X114323809Y-71852619D02*
X114561904Y-71852619D01*
X114561904Y-71852619D02*
X114704761Y-71900238D01*
X115133333Y-72328809D02*
X115466666Y-72328809D01*
X115609523Y-72852619D02*
X115133333Y-72852619D01*
X115133333Y-72852619D02*
X115133333Y-71852619D01*
X115133333Y-71852619D02*
X115609523Y-71852619D01*
X115895238Y-71852619D02*
X116466666Y-71852619D01*
X116180952Y-72852619D02*
X116180952Y-71852619D01*
X112138095Y-71405000D02*
X116461905Y-71405000D01*
D11*
X105844285Y-90918928D02*
X105844285Y-89418928D01*
X105844285Y-89418928D02*
X106344285Y-90490357D01*
X106344285Y-90490357D02*
X106844285Y-89418928D01*
X106844285Y-89418928D02*
X106844285Y-90918928D01*
X108201429Y-90918928D02*
X108201429Y-90133214D01*
X108201429Y-90133214D02*
X108130000Y-89990357D01*
X108130000Y-89990357D02*
X107987143Y-89918928D01*
X107987143Y-89918928D02*
X107701429Y-89918928D01*
X107701429Y-89918928D02*
X107558571Y-89990357D01*
X108201429Y-90847500D02*
X108058571Y-90918928D01*
X108058571Y-90918928D02*
X107701429Y-90918928D01*
X107701429Y-90918928D02*
X107558571Y-90847500D01*
X107558571Y-90847500D02*
X107487143Y-90704642D01*
X107487143Y-90704642D02*
X107487143Y-90561785D01*
X107487143Y-90561785D02*
X107558571Y-90418928D01*
X107558571Y-90418928D02*
X107701429Y-90347500D01*
X107701429Y-90347500D02*
X108058571Y-90347500D01*
X108058571Y-90347500D02*
X108201429Y-90276071D01*
X108701429Y-89918928D02*
X109272857Y-89918928D01*
X108915714Y-89418928D02*
X108915714Y-90704642D01*
X108915714Y-90704642D02*
X108987143Y-90847500D01*
X108987143Y-90847500D02*
X109130000Y-90918928D01*
X109130000Y-90918928D02*
X109272857Y-90918928D01*
X109772857Y-90918928D02*
X109772857Y-89418928D01*
X110415715Y-90918928D02*
X110415715Y-90133214D01*
X110415715Y-90133214D02*
X110344286Y-89990357D01*
X110344286Y-89990357D02*
X110201429Y-89918928D01*
X110201429Y-89918928D02*
X109987143Y-89918928D01*
X109987143Y-89918928D02*
X109844286Y-89990357D01*
X109844286Y-89990357D02*
X109772857Y-90061785D01*
X111344286Y-90918928D02*
X111201429Y-90847500D01*
X111201429Y-90847500D02*
X111130000Y-90776071D01*
X111130000Y-90776071D02*
X111058572Y-90633214D01*
X111058572Y-90633214D02*
X111058572Y-90204642D01*
X111058572Y-90204642D02*
X111130000Y-90061785D01*
X111130000Y-90061785D02*
X111201429Y-89990357D01*
X111201429Y-89990357D02*
X111344286Y-89918928D01*
X111344286Y-89918928D02*
X111558572Y-89918928D01*
X111558572Y-89918928D02*
X111701429Y-89990357D01*
X111701429Y-89990357D02*
X111772858Y-90061785D01*
X111772858Y-90061785D02*
X111844286Y-90204642D01*
X111844286Y-90204642D02*
X111844286Y-90633214D01*
X111844286Y-90633214D02*
X111772858Y-90776071D01*
X111772858Y-90776071D02*
X111701429Y-90847500D01*
X111701429Y-90847500D02*
X111558572Y-90918928D01*
X111558572Y-90918928D02*
X111344286Y-90918928D01*
X112415715Y-90847500D02*
X112558572Y-90918928D01*
X112558572Y-90918928D02*
X112844286Y-90918928D01*
X112844286Y-90918928D02*
X112987143Y-90847500D01*
X112987143Y-90847500D02*
X113058572Y-90704642D01*
X113058572Y-90704642D02*
X113058572Y-90633214D01*
X113058572Y-90633214D02*
X112987143Y-90490357D01*
X112987143Y-90490357D02*
X112844286Y-90418928D01*
X112844286Y-90418928D02*
X112630001Y-90418928D01*
X112630001Y-90418928D02*
X112487143Y-90347500D01*
X112487143Y-90347500D02*
X112415715Y-90204642D01*
X112415715Y-90204642D02*
X112415715Y-90133214D01*
X112415715Y-90133214D02*
X112487143Y-89990357D01*
X112487143Y-89990357D02*
X112630001Y-89918928D01*
X112630001Y-89918928D02*
X112844286Y-89918928D01*
X112844286Y-89918928D02*
X112987143Y-89990357D01*
X115701429Y-90918928D02*
X115201429Y-90204642D01*
X114844286Y-90918928D02*
X114844286Y-89418928D01*
X114844286Y-89418928D02*
X115415715Y-89418928D01*
X115415715Y-89418928D02*
X115558572Y-89490357D01*
X115558572Y-89490357D02*
X115630001Y-89561785D01*
X115630001Y-89561785D02*
X115701429Y-89704642D01*
X115701429Y-89704642D02*
X115701429Y-89918928D01*
X115701429Y-89918928D02*
X115630001Y-90061785D01*
X115630001Y-90061785D02*
X115558572Y-90133214D01*
X115558572Y-90133214D02*
X115415715Y-90204642D01*
X115415715Y-90204642D02*
X114844286Y-90204642D01*
X116915715Y-90847500D02*
X116772858Y-90918928D01*
X116772858Y-90918928D02*
X116487144Y-90918928D01*
X116487144Y-90918928D02*
X116344286Y-90847500D01*
X116344286Y-90847500D02*
X116272858Y-90704642D01*
X116272858Y-90704642D02*
X116272858Y-90133214D01*
X116272858Y-90133214D02*
X116344286Y-89990357D01*
X116344286Y-89990357D02*
X116487144Y-89918928D01*
X116487144Y-89918928D02*
X116772858Y-89918928D01*
X116772858Y-89918928D02*
X116915715Y-89990357D01*
X116915715Y-89990357D02*
X116987144Y-90133214D01*
X116987144Y-90133214D02*
X116987144Y-90276071D01*
X116987144Y-90276071D02*
X116272858Y-90418928D01*
X117558572Y-90847500D02*
X117701429Y-90918928D01*
X117701429Y-90918928D02*
X117987143Y-90918928D01*
X117987143Y-90918928D02*
X118130000Y-90847500D01*
X118130000Y-90847500D02*
X118201429Y-90704642D01*
X118201429Y-90704642D02*
X118201429Y-90633214D01*
X118201429Y-90633214D02*
X118130000Y-90490357D01*
X118130000Y-90490357D02*
X117987143Y-90418928D01*
X117987143Y-90418928D02*
X117772858Y-90418928D01*
X117772858Y-90418928D02*
X117630000Y-90347500D01*
X117630000Y-90347500D02*
X117558572Y-90204642D01*
X117558572Y-90204642D02*
X117558572Y-90133214D01*
X117558572Y-90133214D02*
X117630000Y-89990357D01*
X117630000Y-89990357D02*
X117772858Y-89918928D01*
X117772858Y-89918928D02*
X117987143Y-89918928D01*
X117987143Y-89918928D02*
X118130000Y-89990357D01*
X119415715Y-90847500D02*
X119272858Y-90918928D01*
X119272858Y-90918928D02*
X118987144Y-90918928D01*
X118987144Y-90918928D02*
X118844286Y-90847500D01*
X118844286Y-90847500D02*
X118772858Y-90704642D01*
X118772858Y-90704642D02*
X118772858Y-90133214D01*
X118772858Y-90133214D02*
X118844286Y-89990357D01*
X118844286Y-89990357D02*
X118987144Y-89918928D01*
X118987144Y-89918928D02*
X119272858Y-89918928D01*
X119272858Y-89918928D02*
X119415715Y-89990357D01*
X119415715Y-89990357D02*
X119487144Y-90133214D01*
X119487144Y-90133214D02*
X119487144Y-90276071D01*
X119487144Y-90276071D02*
X118772858Y-90418928D01*
X120772858Y-90918928D02*
X120772858Y-90133214D01*
X120772858Y-90133214D02*
X120701429Y-89990357D01*
X120701429Y-89990357D02*
X120558572Y-89918928D01*
X120558572Y-89918928D02*
X120272858Y-89918928D01*
X120272858Y-89918928D02*
X120130000Y-89990357D01*
X120772858Y-90847500D02*
X120630000Y-90918928D01*
X120630000Y-90918928D02*
X120272858Y-90918928D01*
X120272858Y-90918928D02*
X120130000Y-90847500D01*
X120130000Y-90847500D02*
X120058572Y-90704642D01*
X120058572Y-90704642D02*
X120058572Y-90561785D01*
X120058572Y-90561785D02*
X120130000Y-90418928D01*
X120130000Y-90418928D02*
X120272858Y-90347500D01*
X120272858Y-90347500D02*
X120630000Y-90347500D01*
X120630000Y-90347500D02*
X120772858Y-90276071D01*
X121487143Y-90918928D02*
X121487143Y-89918928D01*
X121487143Y-90204642D02*
X121558572Y-90061785D01*
X121558572Y-90061785D02*
X121630001Y-89990357D01*
X121630001Y-89990357D02*
X121772858Y-89918928D01*
X121772858Y-89918928D02*
X121915715Y-89918928D01*
X123058572Y-90847500D02*
X122915714Y-90918928D01*
X122915714Y-90918928D02*
X122630000Y-90918928D01*
X122630000Y-90918928D02*
X122487143Y-90847500D01*
X122487143Y-90847500D02*
X122415714Y-90776071D01*
X122415714Y-90776071D02*
X122344286Y-90633214D01*
X122344286Y-90633214D02*
X122344286Y-90204642D01*
X122344286Y-90204642D02*
X122415714Y-90061785D01*
X122415714Y-90061785D02*
X122487143Y-89990357D01*
X122487143Y-89990357D02*
X122630000Y-89918928D01*
X122630000Y-89918928D02*
X122915714Y-89918928D01*
X122915714Y-89918928D02*
X123058572Y-89990357D01*
X123701428Y-90918928D02*
X123701428Y-89418928D01*
X124344286Y-90918928D02*
X124344286Y-90133214D01*
X124344286Y-90133214D02*
X124272857Y-89990357D01*
X124272857Y-89990357D02*
X124130000Y-89918928D01*
X124130000Y-89918928D02*
X123915714Y-89918928D01*
X123915714Y-89918928D02*
X123772857Y-89990357D01*
X123772857Y-89990357D02*
X123701428Y-90061785D01*
X126201428Y-90918928D02*
X126201428Y-89418928D01*
X126201428Y-89418928D02*
X126558571Y-89418928D01*
X126558571Y-89418928D02*
X126772857Y-89490357D01*
X126772857Y-89490357D02*
X126915714Y-89633214D01*
X126915714Y-89633214D02*
X126987143Y-89776071D01*
X126987143Y-89776071D02*
X127058571Y-90061785D01*
X127058571Y-90061785D02*
X127058571Y-90276071D01*
X127058571Y-90276071D02*
X126987143Y-90561785D01*
X126987143Y-90561785D02*
X126915714Y-90704642D01*
X126915714Y-90704642D02*
X126772857Y-90847500D01*
X126772857Y-90847500D02*
X126558571Y-90918928D01*
X126558571Y-90918928D02*
X126201428Y-90918928D01*
X128272857Y-90847500D02*
X128130000Y-90918928D01*
X128130000Y-90918928D02*
X127844286Y-90918928D01*
X127844286Y-90918928D02*
X127701428Y-90847500D01*
X127701428Y-90847500D02*
X127630000Y-90704642D01*
X127630000Y-90704642D02*
X127630000Y-90133214D01*
X127630000Y-90133214D02*
X127701428Y-89990357D01*
X127701428Y-89990357D02*
X127844286Y-89918928D01*
X127844286Y-89918928D02*
X128130000Y-89918928D01*
X128130000Y-89918928D02*
X128272857Y-89990357D01*
X128272857Y-89990357D02*
X128344286Y-90133214D01*
X128344286Y-90133214D02*
X128344286Y-90276071D01*
X128344286Y-90276071D02*
X127630000Y-90418928D01*
X128915714Y-90847500D02*
X129058571Y-90918928D01*
X129058571Y-90918928D02*
X129344285Y-90918928D01*
X129344285Y-90918928D02*
X129487142Y-90847500D01*
X129487142Y-90847500D02*
X129558571Y-90704642D01*
X129558571Y-90704642D02*
X129558571Y-90633214D01*
X129558571Y-90633214D02*
X129487142Y-90490357D01*
X129487142Y-90490357D02*
X129344285Y-90418928D01*
X129344285Y-90418928D02*
X129130000Y-90418928D01*
X129130000Y-90418928D02*
X128987142Y-90347500D01*
X128987142Y-90347500D02*
X128915714Y-90204642D01*
X128915714Y-90204642D02*
X128915714Y-90133214D01*
X128915714Y-90133214D02*
X128987142Y-89990357D01*
X128987142Y-89990357D02*
X129130000Y-89918928D01*
X129130000Y-89918928D02*
X129344285Y-89918928D01*
X129344285Y-89918928D02*
X129487142Y-89990357D01*
X130201428Y-90918928D02*
X130201428Y-89918928D01*
X130201428Y-89418928D02*
X130130000Y-89490357D01*
X130130000Y-89490357D02*
X130201428Y-89561785D01*
X130201428Y-89561785D02*
X130272857Y-89490357D01*
X130272857Y-89490357D02*
X130201428Y-89418928D01*
X130201428Y-89418928D02*
X130201428Y-89561785D01*
X131558572Y-89918928D02*
X131558572Y-91133214D01*
X131558572Y-91133214D02*
X131487143Y-91276071D01*
X131487143Y-91276071D02*
X131415714Y-91347500D01*
X131415714Y-91347500D02*
X131272857Y-91418928D01*
X131272857Y-91418928D02*
X131058572Y-91418928D01*
X131058572Y-91418928D02*
X130915714Y-91347500D01*
X131558572Y-90847500D02*
X131415714Y-90918928D01*
X131415714Y-90918928D02*
X131130000Y-90918928D01*
X131130000Y-90918928D02*
X130987143Y-90847500D01*
X130987143Y-90847500D02*
X130915714Y-90776071D01*
X130915714Y-90776071D02*
X130844286Y-90633214D01*
X130844286Y-90633214D02*
X130844286Y-90204642D01*
X130844286Y-90204642D02*
X130915714Y-90061785D01*
X130915714Y-90061785D02*
X130987143Y-89990357D01*
X130987143Y-89990357D02*
X131130000Y-89918928D01*
X131130000Y-89918928D02*
X131415714Y-89918928D01*
X131415714Y-89918928D02*
X131558572Y-89990357D01*
X132272857Y-89918928D02*
X132272857Y-90918928D01*
X132272857Y-90061785D02*
X132344286Y-89990357D01*
X132344286Y-89990357D02*
X132487143Y-89918928D01*
X132487143Y-89918928D02*
X132701429Y-89918928D01*
X132701429Y-89918928D02*
X132844286Y-89990357D01*
X132844286Y-89990357D02*
X132915715Y-90133214D01*
X132915715Y-90133214D02*
X132915715Y-90918928D01*
X112987143Y-93348928D02*
X112987143Y-91848928D01*
X112987143Y-91848928D02*
X113487143Y-92920357D01*
X113487143Y-92920357D02*
X113987143Y-91848928D01*
X113987143Y-91848928D02*
X113987143Y-93348928D01*
X115344287Y-93348928D02*
X115344287Y-92563214D01*
X115344287Y-92563214D02*
X115272858Y-92420357D01*
X115272858Y-92420357D02*
X115130001Y-92348928D01*
X115130001Y-92348928D02*
X114844287Y-92348928D01*
X114844287Y-92348928D02*
X114701429Y-92420357D01*
X115344287Y-93277500D02*
X115201429Y-93348928D01*
X115201429Y-93348928D02*
X114844287Y-93348928D01*
X114844287Y-93348928D02*
X114701429Y-93277500D01*
X114701429Y-93277500D02*
X114630001Y-93134642D01*
X114630001Y-93134642D02*
X114630001Y-92991785D01*
X114630001Y-92991785D02*
X114701429Y-92848928D01*
X114701429Y-92848928D02*
X114844287Y-92777500D01*
X114844287Y-92777500D02*
X115201429Y-92777500D01*
X115201429Y-92777500D02*
X115344287Y-92706071D01*
X116058572Y-93348928D02*
X116058572Y-92348928D01*
X116058572Y-92634642D02*
X116130001Y-92491785D01*
X116130001Y-92491785D02*
X116201430Y-92420357D01*
X116201430Y-92420357D02*
X116344287Y-92348928D01*
X116344287Y-92348928D02*
X116487144Y-92348928D01*
X117630001Y-93277500D02*
X117487143Y-93348928D01*
X117487143Y-93348928D02*
X117201429Y-93348928D01*
X117201429Y-93348928D02*
X117058572Y-93277500D01*
X117058572Y-93277500D02*
X116987143Y-93206071D01*
X116987143Y-93206071D02*
X116915715Y-93063214D01*
X116915715Y-93063214D02*
X116915715Y-92634642D01*
X116915715Y-92634642D02*
X116987143Y-92491785D01*
X116987143Y-92491785D02*
X117058572Y-92420357D01*
X117058572Y-92420357D02*
X117201429Y-92348928D01*
X117201429Y-92348928D02*
X117487143Y-92348928D01*
X117487143Y-92348928D02*
X117630001Y-92420357D01*
X118272857Y-93348928D02*
X118272857Y-91848928D01*
X118915715Y-93348928D02*
X118915715Y-92563214D01*
X118915715Y-92563214D02*
X118844286Y-92420357D01*
X118844286Y-92420357D02*
X118701429Y-92348928D01*
X118701429Y-92348928D02*
X118487143Y-92348928D01*
X118487143Y-92348928D02*
X118344286Y-92420357D01*
X118344286Y-92420357D02*
X118272857Y-92491785D01*
X120701429Y-91991785D02*
X120772857Y-91920357D01*
X120772857Y-91920357D02*
X120915715Y-91848928D01*
X120915715Y-91848928D02*
X121272857Y-91848928D01*
X121272857Y-91848928D02*
X121415715Y-91920357D01*
X121415715Y-91920357D02*
X121487143Y-91991785D01*
X121487143Y-91991785D02*
X121558572Y-92134642D01*
X121558572Y-92134642D02*
X121558572Y-92277500D01*
X121558572Y-92277500D02*
X121487143Y-92491785D01*
X121487143Y-92491785D02*
X120630000Y-93348928D01*
X120630000Y-93348928D02*
X121558572Y-93348928D01*
X122487143Y-91848928D02*
X122630000Y-91848928D01*
X122630000Y-91848928D02*
X122772857Y-91920357D01*
X122772857Y-91920357D02*
X122844286Y-91991785D01*
X122844286Y-91991785D02*
X122915714Y-92134642D01*
X122915714Y-92134642D02*
X122987143Y-92420357D01*
X122987143Y-92420357D02*
X122987143Y-92777500D01*
X122987143Y-92777500D02*
X122915714Y-93063214D01*
X122915714Y-93063214D02*
X122844286Y-93206071D01*
X122844286Y-93206071D02*
X122772857Y-93277500D01*
X122772857Y-93277500D02*
X122630000Y-93348928D01*
X122630000Y-93348928D02*
X122487143Y-93348928D01*
X122487143Y-93348928D02*
X122344286Y-93277500D01*
X122344286Y-93277500D02*
X122272857Y-93206071D01*
X122272857Y-93206071D02*
X122201428Y-93063214D01*
X122201428Y-93063214D02*
X122130000Y-92777500D01*
X122130000Y-92777500D02*
X122130000Y-92420357D01*
X122130000Y-92420357D02*
X122201428Y-92134642D01*
X122201428Y-92134642D02*
X122272857Y-91991785D01*
X122272857Y-91991785D02*
X122344286Y-91920357D01*
X122344286Y-91920357D02*
X122487143Y-91848928D01*
X123558571Y-91991785D02*
X123629999Y-91920357D01*
X123629999Y-91920357D02*
X123772857Y-91848928D01*
X123772857Y-91848928D02*
X124129999Y-91848928D01*
X124129999Y-91848928D02*
X124272857Y-91920357D01*
X124272857Y-91920357D02*
X124344285Y-91991785D01*
X124344285Y-91991785D02*
X124415714Y-92134642D01*
X124415714Y-92134642D02*
X124415714Y-92277500D01*
X124415714Y-92277500D02*
X124344285Y-92491785D01*
X124344285Y-92491785D02*
X123487142Y-93348928D01*
X123487142Y-93348928D02*
X124415714Y-93348928D01*
X124915713Y-91848928D02*
X125844285Y-91848928D01*
X125844285Y-91848928D02*
X125344285Y-92420357D01*
X125344285Y-92420357D02*
X125558570Y-92420357D01*
X125558570Y-92420357D02*
X125701428Y-92491785D01*
X125701428Y-92491785D02*
X125772856Y-92563214D01*
X125772856Y-92563214D02*
X125844285Y-92706071D01*
X125844285Y-92706071D02*
X125844285Y-93063214D01*
X125844285Y-93063214D02*
X125772856Y-93206071D01*
X125772856Y-93206071D02*
X125701428Y-93277500D01*
X125701428Y-93277500D02*
X125558570Y-93348928D01*
X125558570Y-93348928D02*
X125129999Y-93348928D01*
X125129999Y-93348928D02*
X124987142Y-93277500D01*
X124987142Y-93277500D02*
X124915713Y-93206071D01*
D10*
X113649286Y-80472619D02*
X113649286Y-79472619D01*
X113649286Y-79472619D02*
X113982619Y-80186904D01*
X113982619Y-80186904D02*
X114315952Y-79472619D01*
X114315952Y-79472619D02*
X114315952Y-80472619D01*
X114744524Y-80425000D02*
X114887381Y-80472619D01*
X114887381Y-80472619D02*
X115125476Y-80472619D01*
X115125476Y-80472619D02*
X115220714Y-80425000D01*
X115220714Y-80425000D02*
X115268333Y-80377380D01*
X115268333Y-80377380D02*
X115315952Y-80282142D01*
X115315952Y-80282142D02*
X115315952Y-80186904D01*
X115315952Y-80186904D02*
X115268333Y-80091666D01*
X115268333Y-80091666D02*
X115220714Y-80044047D01*
X115220714Y-80044047D02*
X115125476Y-79996428D01*
X115125476Y-79996428D02*
X114935000Y-79948809D01*
X114935000Y-79948809D02*
X114839762Y-79901190D01*
X114839762Y-79901190D02*
X114792143Y-79853571D01*
X114792143Y-79853571D02*
X114744524Y-79758333D01*
X114744524Y-79758333D02*
X114744524Y-79663095D01*
X114744524Y-79663095D02*
X114792143Y-79567857D01*
X114792143Y-79567857D02*
X114839762Y-79520238D01*
X114839762Y-79520238D02*
X114935000Y-79472619D01*
X114935000Y-79472619D02*
X115173095Y-79472619D01*
X115173095Y-79472619D02*
X115315952Y-79520238D01*
X115696905Y-79567857D02*
X115744524Y-79520238D01*
X115744524Y-79520238D02*
X115839762Y-79472619D01*
X115839762Y-79472619D02*
X116077857Y-79472619D01*
X116077857Y-79472619D02*
X116173095Y-79520238D01*
X116173095Y-79520238D02*
X116220714Y-79567857D01*
X116220714Y-79567857D02*
X116268333Y-79663095D01*
X116268333Y-79663095D02*
X116268333Y-79758333D01*
X116268333Y-79758333D02*
X116220714Y-79901190D01*
X116220714Y-79901190D02*
X115649286Y-80472619D01*
X115649286Y-80472619D02*
X116268333Y-80472619D01*
X90612142Y-75414286D02*
X90659761Y-75461905D01*
X90659761Y-75461905D02*
X90707380Y-75557143D01*
X90707380Y-75557143D02*
X90707380Y-75795238D01*
X90707380Y-75795238D02*
X90659761Y-75890476D01*
X90659761Y-75890476D02*
X90612142Y-75938095D01*
X90612142Y-75938095D02*
X90516904Y-75985714D01*
X90516904Y-75985714D02*
X90421666Y-75985714D01*
X90421666Y-75985714D02*
X90278809Y-75938095D01*
X90278809Y-75938095D02*
X89707380Y-75366667D01*
X89707380Y-75366667D02*
X89707380Y-75985714D01*
X90231190Y-76747619D02*
X90183571Y-76890476D01*
X90183571Y-76890476D02*
X90135952Y-76938095D01*
X90135952Y-76938095D02*
X90040714Y-76985714D01*
X90040714Y-76985714D02*
X89897857Y-76985714D01*
X89897857Y-76985714D02*
X89802619Y-76938095D01*
X89802619Y-76938095D02*
X89755000Y-76890476D01*
X89755000Y-76890476D02*
X89707380Y-76795238D01*
X89707380Y-76795238D02*
X89707380Y-76414286D01*
X89707380Y-76414286D02*
X90707380Y-76414286D01*
X90707380Y-76414286D02*
X90707380Y-76747619D01*
X90707380Y-76747619D02*
X90659761Y-76842857D01*
X90659761Y-76842857D02*
X90612142Y-76890476D01*
X90612142Y-76890476D02*
X90516904Y-76938095D01*
X90516904Y-76938095D02*
X90421666Y-76938095D01*
X90421666Y-76938095D02*
X90326428Y-76890476D01*
X90326428Y-76890476D02*
X90278809Y-76842857D01*
X90278809Y-76842857D02*
X90231190Y-76747619D01*
X90231190Y-76747619D02*
X90231190Y-76414286D01*
D12*
X106125951Y-40835000D02*
X106411665Y-40930238D01*
X106411665Y-40930238D02*
X106887856Y-40930238D01*
X106887856Y-40930238D02*
X107078332Y-40835000D01*
X107078332Y-40835000D02*
X107173570Y-40739761D01*
X107173570Y-40739761D02*
X107268808Y-40549285D01*
X107268808Y-40549285D02*
X107268808Y-40358809D01*
X107268808Y-40358809D02*
X107173570Y-40168333D01*
X107173570Y-40168333D02*
X107078332Y-40073095D01*
X107078332Y-40073095D02*
X106887856Y-39977857D01*
X106887856Y-39977857D02*
X106506903Y-39882619D01*
X106506903Y-39882619D02*
X106316427Y-39787380D01*
X106316427Y-39787380D02*
X106221189Y-39692142D01*
X106221189Y-39692142D02*
X106125951Y-39501666D01*
X106125951Y-39501666D02*
X106125951Y-39311190D01*
X106125951Y-39311190D02*
X106221189Y-39120714D01*
X106221189Y-39120714D02*
X106316427Y-39025476D01*
X106316427Y-39025476D02*
X106506903Y-38930238D01*
X106506903Y-38930238D02*
X106983094Y-38930238D01*
X106983094Y-38930238D02*
X107268808Y-39025476D01*
X107840237Y-39596904D02*
X108602141Y-39596904D01*
X108125951Y-38930238D02*
X108125951Y-40644523D01*
X108125951Y-40644523D02*
X108221189Y-40835000D01*
X108221189Y-40835000D02*
X108411665Y-40930238D01*
X108411665Y-40930238D02*
X108602141Y-40930238D01*
X110125951Y-40930238D02*
X110125951Y-39882619D01*
X110125951Y-39882619D02*
X110030713Y-39692142D01*
X110030713Y-39692142D02*
X109840237Y-39596904D01*
X109840237Y-39596904D02*
X109459284Y-39596904D01*
X109459284Y-39596904D02*
X109268808Y-39692142D01*
X110125951Y-40835000D02*
X109935475Y-40930238D01*
X109935475Y-40930238D02*
X109459284Y-40930238D01*
X109459284Y-40930238D02*
X109268808Y-40835000D01*
X109268808Y-40835000D02*
X109173570Y-40644523D01*
X109173570Y-40644523D02*
X109173570Y-40454047D01*
X109173570Y-40454047D02*
X109268808Y-40263571D01*
X109268808Y-40263571D02*
X109459284Y-40168333D01*
X109459284Y-40168333D02*
X109935475Y-40168333D01*
X109935475Y-40168333D02*
X110125951Y-40073095D01*
X111078332Y-40930238D02*
X111078332Y-39596904D01*
X111078332Y-39977857D02*
X111173570Y-39787380D01*
X111173570Y-39787380D02*
X111268808Y-39692142D01*
X111268808Y-39692142D02*
X111459284Y-39596904D01*
X111459284Y-39596904D02*
X111649761Y-39596904D01*
X112316427Y-40930238D02*
X112316427Y-39596904D01*
X112316427Y-39977857D02*
X112411665Y-39787380D01*
X112411665Y-39787380D02*
X112506903Y-39692142D01*
X112506903Y-39692142D02*
X112697379Y-39596904D01*
X112697379Y-39596904D02*
X112887856Y-39596904D01*
X113364046Y-39596904D02*
X113840236Y-40930238D01*
X114316427Y-39596904D02*
X113840236Y-40930238D01*
X113840236Y-40930238D02*
X113649760Y-41406428D01*
X113649760Y-41406428D02*
X113554522Y-41501666D01*
X113554522Y-41501666D02*
X113364046Y-41596904D01*
X116602142Y-40930238D02*
X116602142Y-38930238D01*
X116602142Y-38930238D02*
X117744999Y-40930238D01*
X117744999Y-40930238D02*
X117744999Y-38930238D01*
X118697380Y-40930238D02*
X118697380Y-39596904D01*
X118697380Y-38930238D02*
X118602142Y-39025476D01*
X118602142Y-39025476D02*
X118697380Y-39120714D01*
X118697380Y-39120714D02*
X118792618Y-39025476D01*
X118792618Y-39025476D02*
X118697380Y-38930238D01*
X118697380Y-38930238D02*
X118697380Y-39120714D01*
X120506904Y-39596904D02*
X120506904Y-41215952D01*
X120506904Y-41215952D02*
X120411666Y-41406428D01*
X120411666Y-41406428D02*
X120316428Y-41501666D01*
X120316428Y-41501666D02*
X120125951Y-41596904D01*
X120125951Y-41596904D02*
X119840237Y-41596904D01*
X119840237Y-41596904D02*
X119649761Y-41501666D01*
X120506904Y-40835000D02*
X120316428Y-40930238D01*
X120316428Y-40930238D02*
X119935475Y-40930238D01*
X119935475Y-40930238D02*
X119744999Y-40835000D01*
X119744999Y-40835000D02*
X119649761Y-40739761D01*
X119649761Y-40739761D02*
X119554523Y-40549285D01*
X119554523Y-40549285D02*
X119554523Y-39977857D01*
X119554523Y-39977857D02*
X119649761Y-39787380D01*
X119649761Y-39787380D02*
X119744999Y-39692142D01*
X119744999Y-39692142D02*
X119935475Y-39596904D01*
X119935475Y-39596904D02*
X120316428Y-39596904D01*
X120316428Y-39596904D02*
X120506904Y-39692142D01*
X121459285Y-40930238D02*
X121459285Y-38930238D01*
X122316428Y-40930238D02*
X122316428Y-39882619D01*
X122316428Y-39882619D02*
X122221190Y-39692142D01*
X122221190Y-39692142D02*
X122030714Y-39596904D01*
X122030714Y-39596904D02*
X121744999Y-39596904D01*
X121744999Y-39596904D02*
X121554523Y-39692142D01*
X121554523Y-39692142D02*
X121459285Y-39787380D01*
X122983095Y-39596904D02*
X123744999Y-39596904D01*
X123268809Y-38930238D02*
X123268809Y-40644523D01*
X123268809Y-40644523D02*
X123364047Y-40835000D01*
X123364047Y-40835000D02*
X123554523Y-40930238D01*
X123554523Y-40930238D02*
X123744999Y-40930238D01*
X125745000Y-39596904D02*
X126221190Y-40930238D01*
X126221190Y-40930238D02*
X126697381Y-39596904D01*
X128506905Y-40930238D02*
X127364048Y-40930238D01*
X127935476Y-40930238D02*
X127935476Y-38930238D01*
X127935476Y-38930238D02*
X127745000Y-39215952D01*
X127745000Y-39215952D02*
X127554524Y-39406428D01*
X127554524Y-39406428D02*
X127364048Y-39501666D01*
X129364048Y-40739761D02*
X129459286Y-40835000D01*
X129459286Y-40835000D02*
X129364048Y-40930238D01*
X129364048Y-40930238D02*
X129268810Y-40835000D01*
X129268810Y-40835000D02*
X129364048Y-40739761D01*
X129364048Y-40739761D02*
X129364048Y-40930238D01*
X131364048Y-40930238D02*
X130221191Y-40930238D01*
X130792619Y-40930238D02*
X130792619Y-38930238D01*
X130792619Y-38930238D02*
X130602143Y-39215952D01*
X130602143Y-39215952D02*
X130411667Y-39406428D01*
X130411667Y-39406428D02*
X130221191Y-39501666D01*
D10*
X107275476Y-75392619D02*
X107275476Y-74392619D01*
X107275476Y-74392619D02*
X107608809Y-75106904D01*
X107608809Y-75106904D02*
X107942142Y-74392619D01*
X107942142Y-74392619D02*
X107942142Y-75392619D01*
X108942142Y-75392619D02*
X108370714Y-75392619D01*
X108656428Y-75392619D02*
X108656428Y-74392619D01*
X108656428Y-74392619D02*
X108561190Y-74535476D01*
X108561190Y-74535476D02*
X108465952Y-74630714D01*
X108465952Y-74630714D02*
X108370714Y-74678333D01*
X109704047Y-74868809D02*
X109846904Y-74916428D01*
X109846904Y-74916428D02*
X109894523Y-74964047D01*
X109894523Y-74964047D02*
X109942142Y-75059285D01*
X109942142Y-75059285D02*
X109942142Y-75202142D01*
X109942142Y-75202142D02*
X109894523Y-75297380D01*
X109894523Y-75297380D02*
X109846904Y-75345000D01*
X109846904Y-75345000D02*
X109751666Y-75392619D01*
X109751666Y-75392619D02*
X109370714Y-75392619D01*
X109370714Y-75392619D02*
X109370714Y-74392619D01*
X109370714Y-74392619D02*
X109704047Y-74392619D01*
X109704047Y-74392619D02*
X109799285Y-74440238D01*
X109799285Y-74440238D02*
X109846904Y-74487857D01*
X109846904Y-74487857D02*
X109894523Y-74583095D01*
X109894523Y-74583095D02*
X109894523Y-74678333D01*
X109894523Y-74678333D02*
X109846904Y-74773571D01*
X109846904Y-74773571D02*
X109799285Y-74821190D01*
X109799285Y-74821190D02*
X109704047Y-74868809D01*
X109704047Y-74868809D02*
X109370714Y-74868809D01*
X89707380Y-68437142D02*
X89707380Y-67865714D01*
X89707380Y-68151428D02*
X90707380Y-68151428D01*
X90707380Y-68151428D02*
X90564523Y-68056190D01*
X90564523Y-68056190D02*
X90469285Y-67960952D01*
X90469285Y-67960952D02*
X90421666Y-67865714D01*
X89993095Y-68818095D02*
X89993095Y-69294285D01*
X89707380Y-68722857D02*
X90707380Y-69056190D01*
X90707380Y-69056190D02*
X89707380Y-69389523D01*
X114570000Y-67772619D02*
X114570000Y-66772619D01*
X114570000Y-66772619D02*
X114808095Y-66772619D01*
X114808095Y-66772619D02*
X114950952Y-66820238D01*
X114950952Y-66820238D02*
X115046190Y-66915476D01*
X115046190Y-66915476D02*
X115093809Y-67010714D01*
X115093809Y-67010714D02*
X115141428Y-67201190D01*
X115141428Y-67201190D02*
X115141428Y-67344047D01*
X115141428Y-67344047D02*
X115093809Y-67534523D01*
X115093809Y-67534523D02*
X115046190Y-67629761D01*
X115046190Y-67629761D02*
X114950952Y-67725000D01*
X114950952Y-67725000D02*
X114808095Y-67772619D01*
X114808095Y-67772619D02*
X114570000Y-67772619D01*
X115570000Y-67772619D02*
X115570000Y-66772619D01*
X116617618Y-67772619D02*
X116284285Y-67296428D01*
X116046190Y-67772619D02*
X116046190Y-66772619D01*
X116046190Y-66772619D02*
X116427142Y-66772619D01*
X116427142Y-66772619D02*
X116522380Y-66820238D01*
X116522380Y-66820238D02*
X116569999Y-66867857D01*
X116569999Y-66867857D02*
X116617618Y-66963095D01*
X116617618Y-66963095D02*
X116617618Y-67105952D01*
X116617618Y-67105952D02*
X116569999Y-67201190D01*
X116569999Y-67201190D02*
X116522380Y-67248809D01*
X116522380Y-67248809D02*
X116427142Y-67296428D01*
X116427142Y-67296428D02*
X116046190Y-67296428D01*
X145288095Y-71265238D02*
X145192857Y-71217619D01*
X145192857Y-71217619D02*
X145050000Y-71217619D01*
X145050000Y-71217619D02*
X144907143Y-71265238D01*
X144907143Y-71265238D02*
X144811905Y-71360476D01*
X144811905Y-71360476D02*
X144764286Y-71455714D01*
X144764286Y-71455714D02*
X144716667Y-71646190D01*
X144716667Y-71646190D02*
X144716667Y-71789047D01*
X144716667Y-71789047D02*
X144764286Y-71979523D01*
X144764286Y-71979523D02*
X144811905Y-72074761D01*
X144811905Y-72074761D02*
X144907143Y-72170000D01*
X144907143Y-72170000D02*
X145050000Y-72217619D01*
X145050000Y-72217619D02*
X145145238Y-72217619D01*
X145145238Y-72217619D02*
X145288095Y-72170000D01*
X145288095Y-72170000D02*
X145335714Y-72122380D01*
X145335714Y-72122380D02*
X145335714Y-71789047D01*
X145335714Y-71789047D02*
X145145238Y-71789047D01*
X145764286Y-72217619D02*
X145764286Y-71217619D01*
X145764286Y-71217619D02*
X146335714Y-72217619D01*
X146335714Y-72217619D02*
X146335714Y-71217619D01*
X146811905Y-72217619D02*
X146811905Y-71217619D01*
X146811905Y-71217619D02*
X147050000Y-71217619D01*
X147050000Y-71217619D02*
X147192857Y-71265238D01*
X147192857Y-71265238D02*
X147288095Y-71360476D01*
X147288095Y-71360476D02*
X147335714Y-71455714D01*
X147335714Y-71455714D02*
X147383333Y-71646190D01*
X147383333Y-71646190D02*
X147383333Y-71789047D01*
X147383333Y-71789047D02*
X147335714Y-71979523D01*
X147335714Y-71979523D02*
X147288095Y-72074761D01*
X147288095Y-72074761D02*
X147192857Y-72170000D01*
X147192857Y-72170000D02*
X147050000Y-72217619D01*
X147050000Y-72217619D02*
X146811905Y-72217619D01*
X121092142Y-80359286D02*
X121139761Y-80406905D01*
X121139761Y-80406905D02*
X121187380Y-80502143D01*
X121187380Y-80502143D02*
X121187380Y-80740238D01*
X121187380Y-80740238D02*
X121139761Y-80835476D01*
X121139761Y-80835476D02*
X121092142Y-80883095D01*
X121092142Y-80883095D02*
X120996904Y-80930714D01*
X120996904Y-80930714D02*
X120901666Y-80930714D01*
X120901666Y-80930714D02*
X120758809Y-80883095D01*
X120758809Y-80883095D02*
X120187380Y-80311667D01*
X120187380Y-80311667D02*
X120187380Y-80930714D01*
X136305000Y-64166428D02*
X136352619Y-64023571D01*
X136352619Y-64023571D02*
X136352619Y-63785476D01*
X136352619Y-63785476D02*
X136305000Y-63690238D01*
X136305000Y-63690238D02*
X136257380Y-63642619D01*
X136257380Y-63642619D02*
X136162142Y-63595000D01*
X136162142Y-63595000D02*
X136066904Y-63595000D01*
X136066904Y-63595000D02*
X135971666Y-63642619D01*
X135971666Y-63642619D02*
X135924047Y-63690238D01*
X135924047Y-63690238D02*
X135876428Y-63785476D01*
X135876428Y-63785476D02*
X135828809Y-63975952D01*
X135828809Y-63975952D02*
X135781190Y-64071190D01*
X135781190Y-64071190D02*
X135733571Y-64118809D01*
X135733571Y-64118809D02*
X135638333Y-64166428D01*
X135638333Y-64166428D02*
X135543095Y-64166428D01*
X135543095Y-64166428D02*
X135447857Y-64118809D01*
X135447857Y-64118809D02*
X135400238Y-64071190D01*
X135400238Y-64071190D02*
X135352619Y-63975952D01*
X135352619Y-63975952D02*
X135352619Y-63737857D01*
X135352619Y-63737857D02*
X135400238Y-63595000D01*
X135685952Y-63309285D02*
X135685952Y-62928333D01*
X135352619Y-63166428D02*
X136209761Y-63166428D01*
X136209761Y-63166428D02*
X136305000Y-63118809D01*
X136305000Y-63118809D02*
X136352619Y-63023571D01*
X136352619Y-63023571D02*
X136352619Y-62928333D01*
X135305000Y-61880714D02*
X136590714Y-62737856D01*
X136352619Y-60975952D02*
X135876428Y-61309285D01*
X136352619Y-61547380D02*
X135352619Y-61547380D01*
X135352619Y-61547380D02*
X135352619Y-61166428D01*
X135352619Y-61166428D02*
X135400238Y-61071190D01*
X135400238Y-61071190D02*
X135447857Y-61023571D01*
X135447857Y-61023571D02*
X135543095Y-60975952D01*
X135543095Y-60975952D02*
X135685952Y-60975952D01*
X135685952Y-60975952D02*
X135781190Y-61023571D01*
X135781190Y-61023571D02*
X135828809Y-61071190D01*
X135828809Y-61071190D02*
X135876428Y-61166428D01*
X135876428Y-61166428D02*
X135876428Y-61547380D01*
X135685952Y-60642618D02*
X136352619Y-60452142D01*
X136352619Y-60452142D02*
X135876428Y-60261666D01*
X135876428Y-60261666D02*
X136352619Y-60071190D01*
X136352619Y-60071190D02*
X135685952Y-59880714D01*
X136352619Y-59071190D02*
X135352619Y-59071190D01*
X136305000Y-59071190D02*
X136352619Y-59166428D01*
X136352619Y-59166428D02*
X136352619Y-59356904D01*
X136352619Y-59356904D02*
X136305000Y-59452142D01*
X136305000Y-59452142D02*
X136257380Y-59499761D01*
X136257380Y-59499761D02*
X136162142Y-59547380D01*
X136162142Y-59547380D02*
X135876428Y-59547380D01*
X135876428Y-59547380D02*
X135781190Y-59499761D01*
X135781190Y-59499761D02*
X135733571Y-59452142D01*
X135733571Y-59452142D02*
X135685952Y-59356904D01*
X135685952Y-59356904D02*
X135685952Y-59166428D01*
X135685952Y-59166428D02*
X135733571Y-59071190D01*
X121187380Y-82851667D02*
X121187380Y-83470714D01*
X121187380Y-83470714D02*
X120806428Y-83137381D01*
X120806428Y-83137381D02*
X120806428Y-83280238D01*
X120806428Y-83280238D02*
X120758809Y-83375476D01*
X120758809Y-83375476D02*
X120711190Y-83423095D01*
X120711190Y-83423095D02*
X120615952Y-83470714D01*
X120615952Y-83470714D02*
X120377857Y-83470714D01*
X120377857Y-83470714D02*
X120282619Y-83423095D01*
X120282619Y-83423095D02*
X120235000Y-83375476D01*
X120235000Y-83375476D02*
X120187380Y-83280238D01*
X120187380Y-83280238D02*
X120187380Y-82994524D01*
X120187380Y-82994524D02*
X120235000Y-82899286D01*
X120235000Y-82899286D02*
X120282619Y-82851667D01*
X113649286Y-83012619D02*
X113649286Y-82012619D01*
X113649286Y-82012619D02*
X113982619Y-82726904D01*
X113982619Y-82726904D02*
X114315952Y-82012619D01*
X114315952Y-82012619D02*
X114315952Y-83012619D01*
X114744524Y-82965000D02*
X114887381Y-83012619D01*
X114887381Y-83012619D02*
X115125476Y-83012619D01*
X115125476Y-83012619D02*
X115220714Y-82965000D01*
X115220714Y-82965000D02*
X115268333Y-82917380D01*
X115268333Y-82917380D02*
X115315952Y-82822142D01*
X115315952Y-82822142D02*
X115315952Y-82726904D01*
X115315952Y-82726904D02*
X115268333Y-82631666D01*
X115268333Y-82631666D02*
X115220714Y-82584047D01*
X115220714Y-82584047D02*
X115125476Y-82536428D01*
X115125476Y-82536428D02*
X114935000Y-82488809D01*
X114935000Y-82488809D02*
X114839762Y-82441190D01*
X114839762Y-82441190D02*
X114792143Y-82393571D01*
X114792143Y-82393571D02*
X114744524Y-82298333D01*
X114744524Y-82298333D02*
X114744524Y-82203095D01*
X114744524Y-82203095D02*
X114792143Y-82107857D01*
X114792143Y-82107857D02*
X114839762Y-82060238D01*
X114839762Y-82060238D02*
X114935000Y-82012619D01*
X114935000Y-82012619D02*
X115173095Y-82012619D01*
X115173095Y-82012619D02*
X115315952Y-82060238D01*
X116268333Y-83012619D02*
X115696905Y-83012619D01*
X115982619Y-83012619D02*
X115982619Y-82012619D01*
X115982619Y-82012619D02*
X115887381Y-82155476D01*
X115887381Y-82155476D02*
X115792143Y-82250714D01*
X115792143Y-82250714D02*
X115696905Y-82298333D01*
X120187380Y-78390714D02*
X120187380Y-77819286D01*
X120187380Y-78105000D02*
X121187380Y-78105000D01*
X121187380Y-78105000D02*
X121044523Y-78009762D01*
X121044523Y-78009762D02*
X120949285Y-77914524D01*
X120949285Y-77914524D02*
X120901666Y-77819286D01*
X95665000Y-77485238D02*
X95712619Y-77342381D01*
X95712619Y-77342381D02*
X95712619Y-77104286D01*
X95712619Y-77104286D02*
X95665000Y-77009048D01*
X95665000Y-77009048D02*
X95617380Y-76961429D01*
X95617380Y-76961429D02*
X95522142Y-76913810D01*
X95522142Y-76913810D02*
X95426904Y-76913810D01*
X95426904Y-76913810D02*
X95331666Y-76961429D01*
X95331666Y-76961429D02*
X95284047Y-77009048D01*
X95284047Y-77009048D02*
X95236428Y-77104286D01*
X95236428Y-77104286D02*
X95188809Y-77294762D01*
X95188809Y-77294762D02*
X95141190Y-77390000D01*
X95141190Y-77390000D02*
X95093571Y-77437619D01*
X95093571Y-77437619D02*
X94998333Y-77485238D01*
X94998333Y-77485238D02*
X94903095Y-77485238D01*
X94903095Y-77485238D02*
X94807857Y-77437619D01*
X94807857Y-77437619D02*
X94760238Y-77390000D01*
X94760238Y-77390000D02*
X94712619Y-77294762D01*
X94712619Y-77294762D02*
X94712619Y-77056667D01*
X94712619Y-77056667D02*
X94760238Y-76913810D01*
X95045952Y-76628095D02*
X95045952Y-76247143D01*
X94712619Y-76485238D02*
X95569761Y-76485238D01*
X95569761Y-76485238D02*
X95665000Y-76437619D01*
X95665000Y-76437619D02*
X95712619Y-76342381D01*
X95712619Y-76342381D02*
X95712619Y-76247143D01*
X95665000Y-75532857D02*
X95712619Y-75628095D01*
X95712619Y-75628095D02*
X95712619Y-75818571D01*
X95712619Y-75818571D02*
X95665000Y-75913809D01*
X95665000Y-75913809D02*
X95569761Y-75961428D01*
X95569761Y-75961428D02*
X95188809Y-75961428D01*
X95188809Y-75961428D02*
X95093571Y-75913809D01*
X95093571Y-75913809D02*
X95045952Y-75818571D01*
X95045952Y-75818571D02*
X95045952Y-75628095D01*
X95045952Y-75628095D02*
X95093571Y-75532857D01*
X95093571Y-75532857D02*
X95188809Y-75485238D01*
X95188809Y-75485238D02*
X95284047Y-75485238D01*
X95284047Y-75485238D02*
X95379285Y-75961428D01*
X95045952Y-75056666D02*
X96045952Y-75056666D01*
X95093571Y-75056666D02*
X95045952Y-74961428D01*
X95045952Y-74961428D02*
X95045952Y-74770952D01*
X95045952Y-74770952D02*
X95093571Y-74675714D01*
X95093571Y-74675714D02*
X95141190Y-74628095D01*
X95141190Y-74628095D02*
X95236428Y-74580476D01*
X95236428Y-74580476D02*
X95522142Y-74580476D01*
X95522142Y-74580476D02*
X95617380Y-74628095D01*
X95617380Y-74628095D02*
X95665000Y-74675714D01*
X95665000Y-74675714D02*
X95712619Y-74770952D01*
X95712619Y-74770952D02*
X95712619Y-74961428D01*
X95712619Y-74961428D02*
X95665000Y-75056666D01*
X95045952Y-74151904D02*
X96045952Y-74151904D01*
X95093571Y-74151904D02*
X95045952Y-74056666D01*
X95045952Y-74056666D02*
X95045952Y-73866190D01*
X95045952Y-73866190D02*
X95093571Y-73770952D01*
X95093571Y-73770952D02*
X95141190Y-73723333D01*
X95141190Y-73723333D02*
X95236428Y-73675714D01*
X95236428Y-73675714D02*
X95522142Y-73675714D01*
X95522142Y-73675714D02*
X95617380Y-73723333D01*
X95617380Y-73723333D02*
X95665000Y-73770952D01*
X95665000Y-73770952D02*
X95712619Y-73866190D01*
X95712619Y-73866190D02*
X95712619Y-74056666D01*
X95712619Y-74056666D02*
X95665000Y-74151904D01*
X95665000Y-72866190D02*
X95712619Y-72961428D01*
X95712619Y-72961428D02*
X95712619Y-73151904D01*
X95712619Y-73151904D02*
X95665000Y-73247142D01*
X95665000Y-73247142D02*
X95569761Y-73294761D01*
X95569761Y-73294761D02*
X95188809Y-73294761D01*
X95188809Y-73294761D02*
X95093571Y-73247142D01*
X95093571Y-73247142D02*
X95045952Y-73151904D01*
X95045952Y-73151904D02*
X95045952Y-72961428D01*
X95045952Y-72961428D02*
X95093571Y-72866190D01*
X95093571Y-72866190D02*
X95188809Y-72818571D01*
X95188809Y-72818571D02*
X95284047Y-72818571D01*
X95284047Y-72818571D02*
X95379285Y-73294761D01*
X95712619Y-72389999D02*
X95045952Y-72389999D01*
X95236428Y-72389999D02*
X95141190Y-72342380D01*
X95141190Y-72342380D02*
X95093571Y-72294761D01*
X95093571Y-72294761D02*
X95045952Y-72199523D01*
X95045952Y-72199523D02*
X95045952Y-72104285D01*
X95712619Y-71009046D02*
X94712619Y-71009046D01*
X94712619Y-71009046D02*
X95426904Y-70675713D01*
X95426904Y-70675713D02*
X94712619Y-70342380D01*
X94712619Y-70342380D02*
X95712619Y-70342380D01*
X95712619Y-69723332D02*
X95665000Y-69818570D01*
X95665000Y-69818570D02*
X95617380Y-69866189D01*
X95617380Y-69866189D02*
X95522142Y-69913808D01*
X95522142Y-69913808D02*
X95236428Y-69913808D01*
X95236428Y-69913808D02*
X95141190Y-69866189D01*
X95141190Y-69866189D02*
X95093571Y-69818570D01*
X95093571Y-69818570D02*
X95045952Y-69723332D01*
X95045952Y-69723332D02*
X95045952Y-69580475D01*
X95045952Y-69580475D02*
X95093571Y-69485237D01*
X95093571Y-69485237D02*
X95141190Y-69437618D01*
X95141190Y-69437618D02*
X95236428Y-69389999D01*
X95236428Y-69389999D02*
X95522142Y-69389999D01*
X95522142Y-69389999D02*
X95617380Y-69437618D01*
X95617380Y-69437618D02*
X95665000Y-69485237D01*
X95665000Y-69485237D02*
X95712619Y-69580475D01*
X95712619Y-69580475D02*
X95712619Y-69723332D01*
X95045952Y-69104284D02*
X95045952Y-68723332D01*
X94712619Y-68961427D02*
X95569761Y-68961427D01*
X95569761Y-68961427D02*
X95665000Y-68913808D01*
X95665000Y-68913808D02*
X95712619Y-68818570D01*
X95712619Y-68818570D02*
X95712619Y-68723332D01*
X95712619Y-68247141D02*
X95665000Y-68342379D01*
X95665000Y-68342379D02*
X95617380Y-68389998D01*
X95617380Y-68389998D02*
X95522142Y-68437617D01*
X95522142Y-68437617D02*
X95236428Y-68437617D01*
X95236428Y-68437617D02*
X95141190Y-68389998D01*
X95141190Y-68389998D02*
X95093571Y-68342379D01*
X95093571Y-68342379D02*
X95045952Y-68247141D01*
X95045952Y-68247141D02*
X95045952Y-68104284D01*
X95045952Y-68104284D02*
X95093571Y-68009046D01*
X95093571Y-68009046D02*
X95141190Y-67961427D01*
X95141190Y-67961427D02*
X95236428Y-67913808D01*
X95236428Y-67913808D02*
X95522142Y-67913808D01*
X95522142Y-67913808D02*
X95617380Y-67961427D01*
X95617380Y-67961427D02*
X95665000Y-68009046D01*
X95665000Y-68009046D02*
X95712619Y-68104284D01*
X95712619Y-68104284D02*
X95712619Y-68247141D01*
X95712619Y-67485236D02*
X95045952Y-67485236D01*
X95236428Y-67485236D02*
X95141190Y-67437617D01*
X95141190Y-67437617D02*
X95093571Y-67389998D01*
X95093571Y-67389998D02*
X95045952Y-67294760D01*
X95045952Y-67294760D02*
X95045952Y-67199522D01*
X113315952Y-70265000D02*
X113458809Y-70312619D01*
X113458809Y-70312619D02*
X113696904Y-70312619D01*
X113696904Y-70312619D02*
X113792142Y-70265000D01*
X113792142Y-70265000D02*
X113839761Y-70217380D01*
X113839761Y-70217380D02*
X113887380Y-70122142D01*
X113887380Y-70122142D02*
X113887380Y-70026904D01*
X113887380Y-70026904D02*
X113839761Y-69931666D01*
X113839761Y-69931666D02*
X113792142Y-69884047D01*
X113792142Y-69884047D02*
X113696904Y-69836428D01*
X113696904Y-69836428D02*
X113506428Y-69788809D01*
X113506428Y-69788809D02*
X113411190Y-69741190D01*
X113411190Y-69741190D02*
X113363571Y-69693571D01*
X113363571Y-69693571D02*
X113315952Y-69598333D01*
X113315952Y-69598333D02*
X113315952Y-69503095D01*
X113315952Y-69503095D02*
X113363571Y-69407857D01*
X113363571Y-69407857D02*
X113411190Y-69360238D01*
X113411190Y-69360238D02*
X113506428Y-69312619D01*
X113506428Y-69312619D02*
X113744523Y-69312619D01*
X113744523Y-69312619D02*
X113887380Y-69360238D01*
X114173095Y-69312619D02*
X114744523Y-69312619D01*
X114458809Y-70312619D02*
X114458809Y-69312619D01*
X115077857Y-69788809D02*
X115411190Y-69788809D01*
X115554047Y-70312619D02*
X115077857Y-70312619D01*
X115077857Y-70312619D02*
X115077857Y-69312619D01*
X115077857Y-69312619D02*
X115554047Y-69312619D01*
X115982619Y-70312619D02*
X115982619Y-69312619D01*
X115982619Y-69312619D02*
X116363571Y-69312619D01*
X116363571Y-69312619D02*
X116458809Y-69360238D01*
X116458809Y-69360238D02*
X116506428Y-69407857D01*
X116506428Y-69407857D02*
X116554047Y-69503095D01*
X116554047Y-69503095D02*
X116554047Y-69645952D01*
X116554047Y-69645952D02*
X116506428Y-69741190D01*
X116506428Y-69741190D02*
X116458809Y-69788809D01*
X116458809Y-69788809D02*
X116363571Y-69836428D01*
X116363571Y-69836428D02*
X115982619Y-69836428D01*
X113649286Y-77932619D02*
X113649286Y-76932619D01*
X113649286Y-76932619D02*
X113982619Y-77646904D01*
X113982619Y-77646904D02*
X114315952Y-76932619D01*
X114315952Y-76932619D02*
X114315952Y-77932619D01*
X114744524Y-77885000D02*
X114887381Y-77932619D01*
X114887381Y-77932619D02*
X115125476Y-77932619D01*
X115125476Y-77932619D02*
X115220714Y-77885000D01*
X115220714Y-77885000D02*
X115268333Y-77837380D01*
X115268333Y-77837380D02*
X115315952Y-77742142D01*
X115315952Y-77742142D02*
X115315952Y-77646904D01*
X115315952Y-77646904D02*
X115268333Y-77551666D01*
X115268333Y-77551666D02*
X115220714Y-77504047D01*
X115220714Y-77504047D02*
X115125476Y-77456428D01*
X115125476Y-77456428D02*
X114935000Y-77408809D01*
X114935000Y-77408809D02*
X114839762Y-77361190D01*
X114839762Y-77361190D02*
X114792143Y-77313571D01*
X114792143Y-77313571D02*
X114744524Y-77218333D01*
X114744524Y-77218333D02*
X114744524Y-77123095D01*
X114744524Y-77123095D02*
X114792143Y-77027857D01*
X114792143Y-77027857D02*
X114839762Y-76980238D01*
X114839762Y-76980238D02*
X114935000Y-76932619D01*
X114935000Y-76932619D02*
X115173095Y-76932619D01*
X115173095Y-76932619D02*
X115315952Y-76980238D01*
X115649286Y-76932619D02*
X116268333Y-76932619D01*
X116268333Y-76932619D02*
X115935000Y-77313571D01*
X115935000Y-77313571D02*
X116077857Y-77313571D01*
X116077857Y-77313571D02*
X116173095Y-77361190D01*
X116173095Y-77361190D02*
X116220714Y-77408809D01*
X116220714Y-77408809D02*
X116268333Y-77504047D01*
X116268333Y-77504047D02*
X116268333Y-77742142D01*
X116268333Y-77742142D02*
X116220714Y-77837380D01*
X116220714Y-77837380D02*
X116173095Y-77885000D01*
X116173095Y-77885000D02*
X116077857Y-77932619D01*
X116077857Y-77932619D02*
X115792143Y-77932619D01*
X115792143Y-77932619D02*
X115696905Y-77885000D01*
X115696905Y-77885000D02*
X115649286Y-77837380D01*
X112204762Y-75345000D02*
X112347619Y-75392619D01*
X112347619Y-75392619D02*
X112585714Y-75392619D01*
X112585714Y-75392619D02*
X112680952Y-75345000D01*
X112680952Y-75345000D02*
X112728571Y-75297380D01*
X112728571Y-75297380D02*
X112776190Y-75202142D01*
X112776190Y-75202142D02*
X112776190Y-75106904D01*
X112776190Y-75106904D02*
X112728571Y-75011666D01*
X112728571Y-75011666D02*
X112680952Y-74964047D01*
X112680952Y-74964047D02*
X112585714Y-74916428D01*
X112585714Y-74916428D02*
X112395238Y-74868809D01*
X112395238Y-74868809D02*
X112300000Y-74821190D01*
X112300000Y-74821190D02*
X112252381Y-74773571D01*
X112252381Y-74773571D02*
X112204762Y-74678333D01*
X112204762Y-74678333D02*
X112204762Y-74583095D01*
X112204762Y-74583095D02*
X112252381Y-74487857D01*
X112252381Y-74487857D02*
X112300000Y-74440238D01*
X112300000Y-74440238D02*
X112395238Y-74392619D01*
X112395238Y-74392619D02*
X112633333Y-74392619D01*
X112633333Y-74392619D02*
X112776190Y-74440238D01*
X113680952Y-75392619D02*
X113204762Y-75392619D01*
X113204762Y-75392619D02*
X113204762Y-74392619D01*
X114014286Y-74868809D02*
X114347619Y-74868809D01*
X114490476Y-75392619D02*
X114014286Y-75392619D01*
X114014286Y-75392619D02*
X114014286Y-74392619D01*
X114014286Y-74392619D02*
X114490476Y-74392619D01*
X114919048Y-74868809D02*
X115252381Y-74868809D01*
X115395238Y-75392619D02*
X114919048Y-75392619D01*
X114919048Y-75392619D02*
X114919048Y-74392619D01*
X114919048Y-74392619D02*
X115395238Y-74392619D01*
X115823810Y-75392619D02*
X115823810Y-74392619D01*
X115823810Y-74392619D02*
X116204762Y-74392619D01*
X116204762Y-74392619D02*
X116300000Y-74440238D01*
X116300000Y-74440238D02*
X116347619Y-74487857D01*
X116347619Y-74487857D02*
X116395238Y-74583095D01*
X116395238Y-74583095D02*
X116395238Y-74725952D01*
X116395238Y-74725952D02*
X116347619Y-74821190D01*
X116347619Y-74821190D02*
X116300000Y-74868809D01*
X116300000Y-74868809D02*
X116204762Y-74916428D01*
X116204762Y-74916428D02*
X115823810Y-74916428D01*
X112114286Y-73945000D02*
X116485715Y-73945000D01*
X114831905Y-85028809D02*
X115165238Y-85028809D01*
X115308095Y-85552619D02*
X114831905Y-85552619D01*
X114831905Y-85552619D02*
X114831905Y-84552619D01*
X114831905Y-84552619D02*
X115308095Y-84552619D01*
X115736667Y-85552619D02*
X115736667Y-84552619D01*
X115736667Y-84552619D02*
X116308095Y-85552619D01*
X116308095Y-85552619D02*
X116308095Y-84552619D01*
X114693810Y-84105000D02*
X116446191Y-84105000D01*
X144288095Y-59136666D02*
X145050000Y-59136666D01*
X144669047Y-59517619D02*
X144669047Y-58755714D01*
X146049999Y-59517619D02*
X145478571Y-59517619D01*
X145764285Y-59517619D02*
X145764285Y-58517619D01*
X145764285Y-58517619D02*
X145669047Y-58660476D01*
X145669047Y-58660476D02*
X145573809Y-58755714D01*
X145573809Y-58755714D02*
X145478571Y-58803333D01*
X146430952Y-58612857D02*
X146478571Y-58565238D01*
X146478571Y-58565238D02*
X146573809Y-58517619D01*
X146573809Y-58517619D02*
X146811904Y-58517619D01*
X146811904Y-58517619D02*
X146907142Y-58565238D01*
X146907142Y-58565238D02*
X146954761Y-58612857D01*
X146954761Y-58612857D02*
X147002380Y-58708095D01*
X147002380Y-58708095D02*
X147002380Y-58803333D01*
X147002380Y-58803333D02*
X146954761Y-58946190D01*
X146954761Y-58946190D02*
X146383333Y-59517619D01*
X146383333Y-59517619D02*
X147002380Y-59517619D01*
X147288095Y-58517619D02*
X147621428Y-59517619D01*
X147621428Y-59517619D02*
X147954761Y-58517619D01*
X107410476Y-84552619D02*
X107743809Y-85552619D01*
X107743809Y-85552619D02*
X108077142Y-84552619D01*
X108410476Y-85552619D02*
X108410476Y-84552619D01*
X108410476Y-84552619D02*
X108743809Y-85266904D01*
X108743809Y-85266904D02*
X109077142Y-84552619D01*
X109077142Y-84552619D02*
X109077142Y-85552619D01*
X109743809Y-84552619D02*
X109934285Y-84552619D01*
X109934285Y-84552619D02*
X110029523Y-84600238D01*
X110029523Y-84600238D02*
X110124761Y-84695476D01*
X110124761Y-84695476D02*
X110172380Y-84885952D01*
X110172380Y-84885952D02*
X110172380Y-85219285D01*
X110172380Y-85219285D02*
X110124761Y-85409761D01*
X110124761Y-85409761D02*
X110029523Y-85505000D01*
X110029523Y-85505000D02*
X109934285Y-85552619D01*
X109934285Y-85552619D02*
X109743809Y-85552619D01*
X109743809Y-85552619D02*
X109648571Y-85505000D01*
X109648571Y-85505000D02*
X109553333Y-85409761D01*
X109553333Y-85409761D02*
X109505714Y-85219285D01*
X109505714Y-85219285D02*
X109505714Y-84885952D01*
X109505714Y-84885952D02*
X109553333Y-84695476D01*
X109553333Y-84695476D02*
X109648571Y-84600238D01*
X109648571Y-84600238D02*
X109743809Y-84552619D01*
X110458095Y-84552619D02*
X111029523Y-84552619D01*
X110743809Y-85552619D02*
X110743809Y-84552619D01*
X105918095Y-42642619D02*
X105918095Y-43452142D01*
X105918095Y-43452142D02*
X105965714Y-43547380D01*
X105965714Y-43547380D02*
X106013333Y-43595000D01*
X106013333Y-43595000D02*
X106108571Y-43642619D01*
X106108571Y-43642619D02*
X106299047Y-43642619D01*
X106299047Y-43642619D02*
X106394285Y-43595000D01*
X106394285Y-43595000D02*
X106441904Y-43547380D01*
X106441904Y-43547380D02*
X106489523Y-43452142D01*
X106489523Y-43452142D02*
X106489523Y-42642619D01*
X107489523Y-43642619D02*
X106918095Y-43642619D01*
X107203809Y-43642619D02*
X107203809Y-42642619D01*
X107203809Y-42642619D02*
X107108571Y-42785476D01*
X107108571Y-42785476D02*
X107013333Y-42880714D01*
X107013333Y-42880714D02*
X106918095Y-42928333D01*
X141906666Y-58517619D02*
X141906666Y-59231904D01*
X141906666Y-59231904D02*
X141859047Y-59374761D01*
X141859047Y-59374761D02*
X141763809Y-59470000D01*
X141763809Y-59470000D02*
X141620952Y-59517619D01*
X141620952Y-59517619D02*
X141525714Y-59517619D01*
X142335238Y-58612857D02*
X142382857Y-58565238D01*
X142382857Y-58565238D02*
X142478095Y-58517619D01*
X142478095Y-58517619D02*
X142716190Y-58517619D01*
X142716190Y-58517619D02*
X142811428Y-58565238D01*
X142811428Y-58565238D02*
X142859047Y-58612857D01*
X142859047Y-58612857D02*
X142906666Y-58708095D01*
X142906666Y-58708095D02*
X142906666Y-58803333D01*
X142906666Y-58803333D02*
X142859047Y-58946190D01*
X142859047Y-58946190D02*
X142287619Y-59517619D01*
X142287619Y-59517619D02*
X142906666Y-59517619D01*
X136993333Y-43547380D02*
X136945714Y-43595000D01*
X136945714Y-43595000D02*
X136802857Y-43642619D01*
X136802857Y-43642619D02*
X136707619Y-43642619D01*
X136707619Y-43642619D02*
X136564762Y-43595000D01*
X136564762Y-43595000D02*
X136469524Y-43499761D01*
X136469524Y-43499761D02*
X136421905Y-43404523D01*
X136421905Y-43404523D02*
X136374286Y-43214047D01*
X136374286Y-43214047D02*
X136374286Y-43071190D01*
X136374286Y-43071190D02*
X136421905Y-42880714D01*
X136421905Y-42880714D02*
X136469524Y-42785476D01*
X136469524Y-42785476D02*
X136564762Y-42690238D01*
X136564762Y-42690238D02*
X136707619Y-42642619D01*
X136707619Y-42642619D02*
X136802857Y-42642619D01*
X136802857Y-42642619D02*
X136945714Y-42690238D01*
X136945714Y-42690238D02*
X136993333Y-42737857D01*
X137945714Y-43642619D02*
X137374286Y-43642619D01*
X137660000Y-43642619D02*
X137660000Y-42642619D01*
X137660000Y-42642619D02*
X137564762Y-42785476D01*
X137564762Y-42785476D02*
X137469524Y-42880714D01*
X137469524Y-42880714D02*
X137374286Y-42928333D01*
X91900476Y-66502619D02*
X91900476Y-65502619D01*
X91900476Y-65502619D02*
X92233809Y-66216904D01*
X92233809Y-66216904D02*
X92567142Y-65502619D01*
X92567142Y-65502619D02*
X92567142Y-66502619D01*
X93567142Y-66502619D02*
X92995714Y-66502619D01*
X93281428Y-66502619D02*
X93281428Y-65502619D01*
X93281428Y-65502619D02*
X93186190Y-65645476D01*
X93186190Y-65645476D02*
X93090952Y-65740714D01*
X93090952Y-65740714D02*
X92995714Y-65788333D01*
X132016667Y-73440000D02*
X132159524Y-73487619D01*
X132159524Y-73487619D02*
X132397619Y-73487619D01*
X132397619Y-73487619D02*
X132492857Y-73440000D01*
X132492857Y-73440000D02*
X132540476Y-73392380D01*
X132540476Y-73392380D02*
X132588095Y-73297142D01*
X132588095Y-73297142D02*
X132588095Y-73201904D01*
X132588095Y-73201904D02*
X132540476Y-73106666D01*
X132540476Y-73106666D02*
X132492857Y-73059047D01*
X132492857Y-73059047D02*
X132397619Y-73011428D01*
X132397619Y-73011428D02*
X132207143Y-72963809D01*
X132207143Y-72963809D02*
X132111905Y-72916190D01*
X132111905Y-72916190D02*
X132064286Y-72868571D01*
X132064286Y-72868571D02*
X132016667Y-72773333D01*
X132016667Y-72773333D02*
X132016667Y-72678095D01*
X132016667Y-72678095D02*
X132064286Y-72582857D01*
X132064286Y-72582857D02*
X132111905Y-72535238D01*
X132111905Y-72535238D02*
X132207143Y-72487619D01*
X132207143Y-72487619D02*
X132445238Y-72487619D01*
X132445238Y-72487619D02*
X132588095Y-72535238D01*
X132921429Y-72487619D02*
X133159524Y-73487619D01*
X133159524Y-73487619D02*
X133350000Y-72773333D01*
X133350000Y-72773333D02*
X133540476Y-73487619D01*
X133540476Y-73487619D02*
X133778572Y-72487619D01*
X134111905Y-72582857D02*
X134159524Y-72535238D01*
X134159524Y-72535238D02*
X134254762Y-72487619D01*
X134254762Y-72487619D02*
X134492857Y-72487619D01*
X134492857Y-72487619D02*
X134588095Y-72535238D01*
X134588095Y-72535238D02*
X134635714Y-72582857D01*
X134635714Y-72582857D02*
X134683333Y-72678095D01*
X134683333Y-72678095D02*
X134683333Y-72773333D01*
X134683333Y-72773333D02*
X134635714Y-72916190D01*
X134635714Y-72916190D02*
X134064286Y-73487619D01*
X134064286Y-73487619D02*
X134683333Y-73487619D01*
X121382619Y-66238333D02*
X122096904Y-66238333D01*
X122096904Y-66238333D02*
X122239761Y-66285952D01*
X122239761Y-66285952D02*
X122335000Y-66381190D01*
X122335000Y-66381190D02*
X122382619Y-66524047D01*
X122382619Y-66524047D02*
X122382619Y-66619285D01*
X122382619Y-65762142D02*
X121382619Y-65762142D01*
X121382619Y-65762142D02*
X121382619Y-65381190D01*
X121382619Y-65381190D02*
X121430238Y-65285952D01*
X121430238Y-65285952D02*
X121477857Y-65238333D01*
X121477857Y-65238333D02*
X121573095Y-65190714D01*
X121573095Y-65190714D02*
X121715952Y-65190714D01*
X121715952Y-65190714D02*
X121811190Y-65238333D01*
X121811190Y-65238333D02*
X121858809Y-65285952D01*
X121858809Y-65285952D02*
X121906428Y-65381190D01*
X121906428Y-65381190D02*
X121906428Y-65762142D01*
X121382619Y-64857380D02*
X121382619Y-64238333D01*
X121382619Y-64238333D02*
X121763571Y-64571666D01*
X121763571Y-64571666D02*
X121763571Y-64428809D01*
X121763571Y-64428809D02*
X121811190Y-64333571D01*
X121811190Y-64333571D02*
X121858809Y-64285952D01*
X121858809Y-64285952D02*
X121954047Y-64238333D01*
X121954047Y-64238333D02*
X122192142Y-64238333D01*
X122192142Y-64238333D02*
X122287380Y-64285952D01*
X122287380Y-64285952D02*
X122335000Y-64333571D01*
X122335000Y-64333571D02*
X122382619Y-64428809D01*
X122382619Y-64428809D02*
X122382619Y-64714523D01*
X122382619Y-64714523D02*
X122335000Y-64809761D01*
X122335000Y-64809761D02*
X122287380Y-64857380D01*
X132016667Y-65820000D02*
X132159524Y-65867619D01*
X132159524Y-65867619D02*
X132397619Y-65867619D01*
X132397619Y-65867619D02*
X132492857Y-65820000D01*
X132492857Y-65820000D02*
X132540476Y-65772380D01*
X132540476Y-65772380D02*
X132588095Y-65677142D01*
X132588095Y-65677142D02*
X132588095Y-65581904D01*
X132588095Y-65581904D02*
X132540476Y-65486666D01*
X132540476Y-65486666D02*
X132492857Y-65439047D01*
X132492857Y-65439047D02*
X132397619Y-65391428D01*
X132397619Y-65391428D02*
X132207143Y-65343809D01*
X132207143Y-65343809D02*
X132111905Y-65296190D01*
X132111905Y-65296190D02*
X132064286Y-65248571D01*
X132064286Y-65248571D02*
X132016667Y-65153333D01*
X132016667Y-65153333D02*
X132016667Y-65058095D01*
X132016667Y-65058095D02*
X132064286Y-64962857D01*
X132064286Y-64962857D02*
X132111905Y-64915238D01*
X132111905Y-64915238D02*
X132207143Y-64867619D01*
X132207143Y-64867619D02*
X132445238Y-64867619D01*
X132445238Y-64867619D02*
X132588095Y-64915238D01*
X132921429Y-64867619D02*
X133159524Y-65867619D01*
X133159524Y-65867619D02*
X133350000Y-65153333D01*
X133350000Y-65153333D02*
X133540476Y-65867619D01*
X133540476Y-65867619D02*
X133778572Y-64867619D01*
X134064286Y-64867619D02*
X134683333Y-64867619D01*
X134683333Y-64867619D02*
X134350000Y-65248571D01*
X134350000Y-65248571D02*
X134492857Y-65248571D01*
X134492857Y-65248571D02*
X134588095Y-65296190D01*
X134588095Y-65296190D02*
X134635714Y-65343809D01*
X134635714Y-65343809D02*
X134683333Y-65439047D01*
X134683333Y-65439047D02*
X134683333Y-65677142D01*
X134683333Y-65677142D02*
X134635714Y-65772380D01*
X134635714Y-65772380D02*
X134588095Y-65820000D01*
X134588095Y-65820000D02*
X134492857Y-65867619D01*
X134492857Y-65867619D02*
X134207143Y-65867619D01*
X134207143Y-65867619D02*
X134111905Y-65820000D01*
X134111905Y-65820000D02*
X134064286Y-65772380D01*
X127462619Y-61126666D02*
X126986428Y-61459999D01*
X127462619Y-61698094D02*
X126462619Y-61698094D01*
X126462619Y-61698094D02*
X126462619Y-61317142D01*
X126462619Y-61317142D02*
X126510238Y-61221904D01*
X126510238Y-61221904D02*
X126557857Y-61174285D01*
X126557857Y-61174285D02*
X126653095Y-61126666D01*
X126653095Y-61126666D02*
X126795952Y-61126666D01*
X126795952Y-61126666D02*
X126891190Y-61174285D01*
X126891190Y-61174285D02*
X126938809Y-61221904D01*
X126938809Y-61221904D02*
X126986428Y-61317142D01*
X126986428Y-61317142D02*
X126986428Y-61698094D01*
X126557857Y-60745713D02*
X126510238Y-60698094D01*
X126510238Y-60698094D02*
X126462619Y-60602856D01*
X126462619Y-60602856D02*
X126462619Y-60364761D01*
X126462619Y-60364761D02*
X126510238Y-60269523D01*
X126510238Y-60269523D02*
X126557857Y-60221904D01*
X126557857Y-60221904D02*
X126653095Y-60174285D01*
X126653095Y-60174285D02*
X126748333Y-60174285D01*
X126748333Y-60174285D02*
X126891190Y-60221904D01*
X126891190Y-60221904D02*
X127462619Y-60793332D01*
X127462619Y-60793332D02*
X127462619Y-60174285D01*
X111008095Y-64232619D02*
X111008095Y-65042142D01*
X111008095Y-65042142D02*
X111055714Y-65137380D01*
X111055714Y-65137380D02*
X111103333Y-65185000D01*
X111103333Y-65185000D02*
X111198571Y-65232619D01*
X111198571Y-65232619D02*
X111389047Y-65232619D01*
X111389047Y-65232619D02*
X111484285Y-65185000D01*
X111484285Y-65185000D02*
X111531904Y-65137380D01*
X111531904Y-65137380D02*
X111579523Y-65042142D01*
X111579523Y-65042142D02*
X111579523Y-64232619D01*
X111960476Y-64232619D02*
X112579523Y-64232619D01*
X112579523Y-64232619D02*
X112246190Y-64613571D01*
X112246190Y-64613571D02*
X112389047Y-64613571D01*
X112389047Y-64613571D02*
X112484285Y-64661190D01*
X112484285Y-64661190D02*
X112531904Y-64708809D01*
X112531904Y-64708809D02*
X112579523Y-64804047D01*
X112579523Y-64804047D02*
X112579523Y-65042142D01*
X112579523Y-65042142D02*
X112531904Y-65137380D01*
X112531904Y-65137380D02*
X112484285Y-65185000D01*
X112484285Y-65185000D02*
X112389047Y-65232619D01*
X112389047Y-65232619D02*
X112103333Y-65232619D01*
X112103333Y-65232619D02*
X112008095Y-65185000D01*
X112008095Y-65185000D02*
X111960476Y-65137380D01*
X146702619Y-50926904D02*
X147512142Y-50926904D01*
X147512142Y-50926904D02*
X147607380Y-50879285D01*
X147607380Y-50879285D02*
X147655000Y-50831666D01*
X147655000Y-50831666D02*
X147702619Y-50736428D01*
X147702619Y-50736428D02*
X147702619Y-50545952D01*
X147702619Y-50545952D02*
X147655000Y-50450714D01*
X147655000Y-50450714D02*
X147607380Y-50403095D01*
X147607380Y-50403095D02*
X147512142Y-50355476D01*
X147512142Y-50355476D02*
X146702619Y-50355476D01*
X146797857Y-49926904D02*
X146750238Y-49879285D01*
X146750238Y-49879285D02*
X146702619Y-49784047D01*
X146702619Y-49784047D02*
X146702619Y-49545952D01*
X146702619Y-49545952D02*
X146750238Y-49450714D01*
X146750238Y-49450714D02*
X146797857Y-49403095D01*
X146797857Y-49403095D02*
X146893095Y-49355476D01*
X146893095Y-49355476D02*
X146988333Y-49355476D01*
X146988333Y-49355476D02*
X147131190Y-49403095D01*
X147131190Y-49403095D02*
X147702619Y-49974523D01*
X147702619Y-49974523D02*
X147702619Y-49355476D01*
X96988333Y-79107380D02*
X96940714Y-79155000D01*
X96940714Y-79155000D02*
X96797857Y-79202619D01*
X96797857Y-79202619D02*
X96702619Y-79202619D01*
X96702619Y-79202619D02*
X96559762Y-79155000D01*
X96559762Y-79155000D02*
X96464524Y-79059761D01*
X96464524Y-79059761D02*
X96416905Y-78964523D01*
X96416905Y-78964523D02*
X96369286Y-78774047D01*
X96369286Y-78774047D02*
X96369286Y-78631190D01*
X96369286Y-78631190D02*
X96416905Y-78440714D01*
X96416905Y-78440714D02*
X96464524Y-78345476D01*
X96464524Y-78345476D02*
X96559762Y-78250238D01*
X96559762Y-78250238D02*
X96702619Y-78202619D01*
X96702619Y-78202619D02*
X96797857Y-78202619D01*
X96797857Y-78202619D02*
X96940714Y-78250238D01*
X96940714Y-78250238D02*
X96988333Y-78297857D01*
X97321667Y-78202619D02*
X97940714Y-78202619D01*
X97940714Y-78202619D02*
X97607381Y-78583571D01*
X97607381Y-78583571D02*
X97750238Y-78583571D01*
X97750238Y-78583571D02*
X97845476Y-78631190D01*
X97845476Y-78631190D02*
X97893095Y-78678809D01*
X97893095Y-78678809D02*
X97940714Y-78774047D01*
X97940714Y-78774047D02*
X97940714Y-79012142D01*
X97940714Y-79012142D02*
X97893095Y-79107380D01*
X97893095Y-79107380D02*
X97845476Y-79155000D01*
X97845476Y-79155000D02*
X97750238Y-79202619D01*
X97750238Y-79202619D02*
X97464524Y-79202619D01*
X97464524Y-79202619D02*
X97369286Y-79155000D01*
X97369286Y-79155000D02*
X97321667Y-79107380D01*
X143086666Y-74680119D02*
X143086666Y-75394404D01*
X143086666Y-75394404D02*
X143039047Y-75537261D01*
X143039047Y-75537261D02*
X142943809Y-75632500D01*
X142943809Y-75632500D02*
X142800952Y-75680119D01*
X142800952Y-75680119D02*
X142705714Y-75680119D01*
X144086666Y-75680119D02*
X143515238Y-75680119D01*
X143800952Y-75680119D02*
X143800952Y-74680119D01*
X143800952Y-74680119D02*
X143705714Y-74822976D01*
X143705714Y-74822976D02*
X143610476Y-74918214D01*
X143610476Y-74918214D02*
X143515238Y-74965833D01*
X121382619Y-72583333D02*
X122096904Y-72583333D01*
X122096904Y-72583333D02*
X122239761Y-72630952D01*
X122239761Y-72630952D02*
X122335000Y-72726190D01*
X122335000Y-72726190D02*
X122382619Y-72869047D01*
X122382619Y-72869047D02*
X122382619Y-72964285D01*
X122382619Y-72107142D02*
X121382619Y-72107142D01*
X121382619Y-72107142D02*
X121382619Y-71726190D01*
X121382619Y-71726190D02*
X121430238Y-71630952D01*
X121430238Y-71630952D02*
X121477857Y-71583333D01*
X121477857Y-71583333D02*
X121573095Y-71535714D01*
X121573095Y-71535714D02*
X121715952Y-71535714D01*
X121715952Y-71535714D02*
X121811190Y-71583333D01*
X121811190Y-71583333D02*
X121858809Y-71630952D01*
X121858809Y-71630952D02*
X121906428Y-71726190D01*
X121906428Y-71726190D02*
X121906428Y-72107142D01*
X121477857Y-71154761D02*
X121430238Y-71107142D01*
X121430238Y-71107142D02*
X121382619Y-71011904D01*
X121382619Y-71011904D02*
X121382619Y-70773809D01*
X121382619Y-70773809D02*
X121430238Y-70678571D01*
X121430238Y-70678571D02*
X121477857Y-70630952D01*
X121477857Y-70630952D02*
X121573095Y-70583333D01*
X121573095Y-70583333D02*
X121668333Y-70583333D01*
X121668333Y-70583333D02*
X121811190Y-70630952D01*
X121811190Y-70630952D02*
X122382619Y-71202380D01*
X122382619Y-71202380D02*
X122382619Y-70583333D01*
X97252619Y-68778333D02*
X97966904Y-68778333D01*
X97966904Y-68778333D02*
X98109761Y-68825952D01*
X98109761Y-68825952D02*
X98205000Y-68921190D01*
X98205000Y-68921190D02*
X98252619Y-69064047D01*
X98252619Y-69064047D02*
X98252619Y-69159285D01*
X98252619Y-68302142D02*
X97252619Y-68302142D01*
X97252619Y-68302142D02*
X97252619Y-67921190D01*
X97252619Y-67921190D02*
X97300238Y-67825952D01*
X97300238Y-67825952D02*
X97347857Y-67778333D01*
X97347857Y-67778333D02*
X97443095Y-67730714D01*
X97443095Y-67730714D02*
X97585952Y-67730714D01*
X97585952Y-67730714D02*
X97681190Y-67778333D01*
X97681190Y-67778333D02*
X97728809Y-67825952D01*
X97728809Y-67825952D02*
X97776428Y-67921190D01*
X97776428Y-67921190D02*
X97776428Y-68302142D01*
X98252619Y-66778333D02*
X98252619Y-67349761D01*
X98252619Y-67064047D02*
X97252619Y-67064047D01*
X97252619Y-67064047D02*
X97395476Y-67159285D01*
X97395476Y-67159285D02*
X97490714Y-67254523D01*
X97490714Y-67254523D02*
X97538333Y-67349761D01*
X127447619Y-70651666D02*
X126971428Y-70984999D01*
X127447619Y-71223094D02*
X126447619Y-71223094D01*
X126447619Y-71223094D02*
X126447619Y-70842142D01*
X126447619Y-70842142D02*
X126495238Y-70746904D01*
X126495238Y-70746904D02*
X126542857Y-70699285D01*
X126542857Y-70699285D02*
X126638095Y-70651666D01*
X126638095Y-70651666D02*
X126780952Y-70651666D01*
X126780952Y-70651666D02*
X126876190Y-70699285D01*
X126876190Y-70699285D02*
X126923809Y-70746904D01*
X126923809Y-70746904D02*
X126971428Y-70842142D01*
X126971428Y-70842142D02*
X126971428Y-71223094D01*
X127447619Y-69699285D02*
X127447619Y-70270713D01*
X127447619Y-69984999D02*
X126447619Y-69984999D01*
X126447619Y-69984999D02*
X126590476Y-70080237D01*
X126590476Y-70080237D02*
X126685714Y-70175475D01*
X126685714Y-70175475D02*
X126733333Y-70270713D01*
X125031667Y-87410000D02*
X125174524Y-87457619D01*
X125174524Y-87457619D02*
X125412619Y-87457619D01*
X125412619Y-87457619D02*
X125507857Y-87410000D01*
X125507857Y-87410000D02*
X125555476Y-87362380D01*
X125555476Y-87362380D02*
X125603095Y-87267142D01*
X125603095Y-87267142D02*
X125603095Y-87171904D01*
X125603095Y-87171904D02*
X125555476Y-87076666D01*
X125555476Y-87076666D02*
X125507857Y-87029047D01*
X125507857Y-87029047D02*
X125412619Y-86981428D01*
X125412619Y-86981428D02*
X125222143Y-86933809D01*
X125222143Y-86933809D02*
X125126905Y-86886190D01*
X125126905Y-86886190D02*
X125079286Y-86838571D01*
X125079286Y-86838571D02*
X125031667Y-86743333D01*
X125031667Y-86743333D02*
X125031667Y-86648095D01*
X125031667Y-86648095D02*
X125079286Y-86552857D01*
X125079286Y-86552857D02*
X125126905Y-86505238D01*
X125126905Y-86505238D02*
X125222143Y-86457619D01*
X125222143Y-86457619D02*
X125460238Y-86457619D01*
X125460238Y-86457619D02*
X125603095Y-86505238D01*
X125936429Y-86457619D02*
X126174524Y-87457619D01*
X126174524Y-87457619D02*
X126365000Y-86743333D01*
X126365000Y-86743333D02*
X126555476Y-87457619D01*
X126555476Y-87457619D02*
X126793572Y-86457619D01*
X127698333Y-87457619D02*
X127126905Y-87457619D01*
X127412619Y-87457619D02*
X127412619Y-86457619D01*
X127412619Y-86457619D02*
X127317381Y-86600476D01*
X127317381Y-86600476D02*
X127222143Y-86695714D01*
X127222143Y-86695714D02*
X127126905Y-86743333D01*
X136993333Y-57517380D02*
X136945714Y-57565000D01*
X136945714Y-57565000D02*
X136802857Y-57612619D01*
X136802857Y-57612619D02*
X136707619Y-57612619D01*
X136707619Y-57612619D02*
X136564762Y-57565000D01*
X136564762Y-57565000D02*
X136469524Y-57469761D01*
X136469524Y-57469761D02*
X136421905Y-57374523D01*
X136421905Y-57374523D02*
X136374286Y-57184047D01*
X136374286Y-57184047D02*
X136374286Y-57041190D01*
X136374286Y-57041190D02*
X136421905Y-56850714D01*
X136421905Y-56850714D02*
X136469524Y-56755476D01*
X136469524Y-56755476D02*
X136564762Y-56660238D01*
X136564762Y-56660238D02*
X136707619Y-56612619D01*
X136707619Y-56612619D02*
X136802857Y-56612619D01*
X136802857Y-56612619D02*
X136945714Y-56660238D01*
X136945714Y-56660238D02*
X136993333Y-56707857D01*
X137374286Y-56707857D02*
X137421905Y-56660238D01*
X137421905Y-56660238D02*
X137517143Y-56612619D01*
X137517143Y-56612619D02*
X137755238Y-56612619D01*
X137755238Y-56612619D02*
X137850476Y-56660238D01*
X137850476Y-56660238D02*
X137898095Y-56707857D01*
X137898095Y-56707857D02*
X137945714Y-56803095D01*
X137945714Y-56803095D02*
X137945714Y-56898333D01*
X137945714Y-56898333D02*
X137898095Y-57041190D01*
X137898095Y-57041190D02*
X137326667Y-57612619D01*
X137326667Y-57612619D02*
X137945714Y-57612619D01*
X88900000Y-49530000D02*
X91440000Y-49530000D01*
X88900000Y-57150000D02*
X88900000Y-49530000D01*
X91440000Y-44450000D02*
X121920000Y-44450000D01*
X91440000Y-49530000D02*
X91440000Y-44450000D01*
X91440000Y-57150000D02*
X88900000Y-57150000D01*
X91440000Y-62230000D02*
X91440000Y-57150000D01*
X91440000Y-62230000D02*
X121920000Y-62230000D01*
X121920000Y-44450000D02*
X121920000Y-62230000D01*
D13*
X138430000Y-70485000D02*
X146050000Y-70485000D01*
X146050000Y-70485000D02*
X146050000Y-60325000D01*
X138430000Y-60325000D02*
X138430000Y-70485000D01*
X144780000Y-60325000D02*
X144780000Y-70485000D01*
X146050000Y-60325000D02*
X138430000Y-60325000D01*
X139430000Y-44250000D02*
X139430000Y-44235000D01*
X139430000Y-44250000D02*
X134890000Y-44250000D01*
X139430000Y-42125000D02*
X139430000Y-42110000D01*
X139430000Y-42110000D02*
X134890000Y-42110000D01*
X134890000Y-44250000D02*
X134890000Y-44235000D01*
X134890000Y-42125000D02*
X134890000Y-42110000D01*
X91380000Y-67260000D02*
X92710000Y-67260000D01*
X91380000Y-68590000D02*
X91380000Y-67260000D01*
X91380000Y-69860000D02*
X91380000Y-77540000D01*
X91380000Y-69860000D02*
X94040000Y-69860000D01*
X91380000Y-77540000D02*
X94040000Y-77540000D01*
X94040000Y-69860000D02*
X94040000Y-77540000D01*
X134680000Y-71820000D02*
X133350000Y-71820000D01*
X134680000Y-70490000D02*
X134680000Y-71820000D01*
X134680000Y-69220000D02*
X134680000Y-66620000D01*
X134680000Y-69220000D02*
X132020000Y-69220000D01*
X134680000Y-66620000D02*
X132020000Y-66620000D01*
X132020000Y-69220000D02*
X132020000Y-66620000D01*
X123130000Y-62165000D02*
X124460000Y-62165000D01*
X123130000Y-63495000D02*
X123130000Y-62165000D01*
X123130000Y-64765000D02*
X123130000Y-67365000D01*
X123130000Y-64765000D02*
X125790000Y-64765000D01*
X123130000Y-67365000D02*
X125790000Y-67365000D01*
X125790000Y-64765000D02*
X125790000Y-67365000D01*
X134680000Y-64195000D02*
X133350000Y-64195000D01*
X134680000Y-62865000D02*
X134680000Y-64195000D01*
X134680000Y-61595000D02*
X134680000Y-58995000D01*
X134680000Y-61595000D02*
X132020000Y-61595000D01*
X134680000Y-58995000D02*
X132020000Y-58995000D01*
X132020000Y-61595000D02*
X132020000Y-58995000D01*
X128905000Y-58090000D02*
X128905000Y-59040000D01*
X129825000Y-59040000D02*
X127985000Y-59040000D01*
X127985000Y-59040000D02*
X127985000Y-62880000D01*
X129825000Y-62880000D02*
X129825000Y-59040000D01*
X127985000Y-62880000D02*
X129825000Y-62880000D01*
X128905000Y-63830000D02*
X128905000Y-62880000D01*
X104020000Y-65910000D02*
X104020000Y-67310000D01*
X104020000Y-68580000D02*
X104020000Y-86490000D01*
X104020000Y-86490000D02*
X119520000Y-86490000D01*
X105420000Y-65910000D02*
X104020000Y-65910000D01*
X106690000Y-65910000D02*
X106690000Y-68580000D01*
X106690000Y-68580000D02*
X104020000Y-68580000D01*
X106690000Y-68580000D02*
X106690000Y-86490000D01*
X116850000Y-65910000D02*
X116850000Y-86490000D01*
X119520000Y-65910000D02*
X106690000Y-65910000D01*
X119520000Y-86490000D02*
X119520000Y-65910000D01*
X146240000Y-45045000D02*
X130350000Y-45045000D01*
X146240000Y-45045000D02*
X146240000Y-55285000D01*
X130350000Y-45045000D02*
X130350000Y-55285000D01*
X130350000Y-47625000D02*
X127810000Y-47625000D01*
X130350000Y-50165000D02*
X127810000Y-50165000D01*
X130350000Y-52705000D02*
X127810000Y-52705000D01*
X146240000Y-55285000D02*
X130350000Y-55285000D01*
X101467349Y-86135000D02*
X100667349Y-86135000D01*
X101067349Y-86535000D02*
X101067349Y-85735000D01*
X97057651Y-87900000D02*
X97057651Y-79740000D01*
X97017651Y-87900000D02*
X97017651Y-79740000D01*
X96977651Y-87900000D02*
X96977651Y-79740000D01*
X96937651Y-87899000D02*
X96937651Y-79741000D01*
X96897651Y-87897000D02*
X96897651Y-79743000D01*
X96857651Y-87896000D02*
X96857651Y-79744000D01*
X96817651Y-87894000D02*
X96817651Y-79746000D01*
X96777651Y-87891000D02*
X96777651Y-79749000D01*
X96737651Y-87888000D02*
X96737651Y-79752000D01*
X96697651Y-87885000D02*
X96697651Y-79755000D01*
X96657651Y-87881000D02*
X96657651Y-79759000D01*
X96617651Y-87877000D02*
X96617651Y-79763000D01*
X96577651Y-87872000D02*
X96577651Y-79768000D01*
X96537651Y-87868000D02*
X96537651Y-79772000D01*
X96497651Y-87862000D02*
X96497651Y-79778000D01*
X96457651Y-87857000D02*
X96457651Y-79783000D01*
X96417651Y-87850000D02*
X96417651Y-79790000D01*
X96377651Y-87844000D02*
X96377651Y-79796000D01*
X96336651Y-87837000D02*
X96336651Y-79803000D01*
X96296651Y-87830000D02*
X96296651Y-79810000D01*
X96256651Y-87822000D02*
X96256651Y-79818000D01*
X96216651Y-87814000D02*
X96216651Y-79826000D01*
X96176651Y-87805000D02*
X96176651Y-84860000D01*
X96176651Y-82780000D02*
X96176651Y-79835000D01*
X96136651Y-87796000D02*
X96136651Y-84860000D01*
X96136651Y-82780000D02*
X96136651Y-79844000D01*
X96096651Y-87787000D02*
X96096651Y-84860000D01*
X96096651Y-82780000D02*
X96096651Y-79853000D01*
X96056651Y-87777000D02*
X96056651Y-84860000D01*
X96056651Y-82780000D02*
X96056651Y-79863000D01*
X96016651Y-87767000D02*
X96016651Y-84860000D01*
X96016651Y-82780000D02*
X96016651Y-79873000D01*
X95976651Y-87756000D02*
X95976651Y-84860000D01*
X95976651Y-82780000D02*
X95976651Y-79884000D01*
X95936651Y-87745000D02*
X95936651Y-84860000D01*
X95936651Y-82780000D02*
X95936651Y-79895000D01*
X95896651Y-87734000D02*
X95896651Y-84860000D01*
X95896651Y-82780000D02*
X95896651Y-79906000D01*
X95856651Y-87722000D02*
X95856651Y-84860000D01*
X95856651Y-82780000D02*
X95856651Y-79918000D01*
X95816651Y-87709000D02*
X95816651Y-84860000D01*
X95816651Y-82780000D02*
X95816651Y-79931000D01*
X95776651Y-87697000D02*
X95776651Y-84860000D01*
X95776651Y-82780000D02*
X95776651Y-79943000D01*
X95736651Y-87683000D02*
X95736651Y-84860000D01*
X95736651Y-82780000D02*
X95736651Y-79957000D01*
X95696651Y-87670000D02*
X95696651Y-84860000D01*
X95696651Y-82780000D02*
X95696651Y-79970000D01*
X95656651Y-87655000D02*
X95656651Y-84860000D01*
X95656651Y-82780000D02*
X95656651Y-79985000D01*
X95616651Y-87641000D02*
X95616651Y-84860000D01*
X95616651Y-82780000D02*
X95616651Y-79999000D01*
X95576651Y-87625000D02*
X95576651Y-84860000D01*
X95576651Y-82780000D02*
X95576651Y-80015000D01*
X95536651Y-87610000D02*
X95536651Y-84860000D01*
X95536651Y-82780000D02*
X95536651Y-80030000D01*
X95496651Y-87594000D02*
X95496651Y-84860000D01*
X95496651Y-82780000D02*
X95496651Y-80046000D01*
X95456651Y-87577000D02*
X95456651Y-84860000D01*
X95456651Y-82780000D02*
X95456651Y-80063000D01*
X95416651Y-87560000D02*
X95416651Y-84860000D01*
X95416651Y-82780000D02*
X95416651Y-80080000D01*
X95376651Y-87542000D02*
X95376651Y-84860000D01*
X95376651Y-82780000D02*
X95376651Y-80098000D01*
X95336651Y-87524000D02*
X95336651Y-84860000D01*
X95336651Y-82780000D02*
X95336651Y-80116000D01*
X95296651Y-87506000D02*
X95296651Y-84860000D01*
X95296651Y-82780000D02*
X95296651Y-80134000D01*
X95256651Y-87486000D02*
X95256651Y-84860000D01*
X95256651Y-82780000D02*
X95256651Y-80154000D01*
X95216651Y-87467000D02*
X95216651Y-84860000D01*
X95216651Y-82780000D02*
X95216651Y-80173000D01*
X95176651Y-87447000D02*
X95176651Y-84860000D01*
X95176651Y-82780000D02*
X95176651Y-80193000D01*
X95136651Y-87426000D02*
X95136651Y-84860000D01*
X95136651Y-82780000D02*
X95136651Y-80214000D01*
X95096651Y-87404000D02*
X95096651Y-84860000D01*
X95096651Y-82780000D02*
X95096651Y-80236000D01*
X95056651Y-87382000D02*
X95056651Y-84860000D01*
X95056651Y-82780000D02*
X95056651Y-80258000D01*
X95016651Y-87360000D02*
X95016651Y-84860000D01*
X95016651Y-82780000D02*
X95016651Y-80280000D01*
X94976651Y-87337000D02*
X94976651Y-84860000D01*
X94976651Y-82780000D02*
X94976651Y-80303000D01*
X94936651Y-87313000D02*
X94936651Y-84860000D01*
X94936651Y-82780000D02*
X94936651Y-80327000D01*
X94896651Y-87289000D02*
X94896651Y-84860000D01*
X94896651Y-82780000D02*
X94896651Y-80351000D01*
X94856651Y-87264000D02*
X94856651Y-84860000D01*
X94856651Y-82780000D02*
X94856651Y-80376000D01*
X94816651Y-87238000D02*
X94816651Y-84860000D01*
X94816651Y-82780000D02*
X94816651Y-80402000D01*
X94776651Y-87212000D02*
X94776651Y-84860000D01*
X94776651Y-82780000D02*
X94776651Y-80428000D01*
X94736651Y-87185000D02*
X94736651Y-84860000D01*
X94736651Y-82780000D02*
X94736651Y-80455000D01*
X94696651Y-87158000D02*
X94696651Y-84860000D01*
X94696651Y-82780000D02*
X94696651Y-80482000D01*
X94656651Y-87129000D02*
X94656651Y-84860000D01*
X94656651Y-82780000D02*
X94656651Y-80511000D01*
X94616651Y-87100000D02*
X94616651Y-84860000D01*
X94616651Y-82780000D02*
X94616651Y-80540000D01*
X94576651Y-87070000D02*
X94576651Y-84860000D01*
X94576651Y-82780000D02*
X94576651Y-80570000D01*
X94536651Y-87040000D02*
X94536651Y-84860000D01*
X94536651Y-82780000D02*
X94536651Y-80600000D01*
X94496651Y-87009000D02*
X94496651Y-84860000D01*
X94496651Y-82780000D02*
X94496651Y-80631000D01*
X94456651Y-86976000D02*
X94456651Y-84860000D01*
X94456651Y-82780000D02*
X94456651Y-80664000D01*
X94416651Y-86944000D02*
X94416651Y-84860000D01*
X94416651Y-82780000D02*
X94416651Y-80696000D01*
X94376651Y-86910000D02*
X94376651Y-84860000D01*
X94376651Y-82780000D02*
X94376651Y-80730000D01*
X94336651Y-86875000D02*
X94336651Y-84860000D01*
X94336651Y-82780000D02*
X94336651Y-80765000D01*
X94296651Y-86839000D02*
X94296651Y-84860000D01*
X94296651Y-82780000D02*
X94296651Y-80801000D01*
X94256651Y-86803000D02*
X94256651Y-84860000D01*
X94256651Y-82780000D02*
X94256651Y-80837000D01*
X94216651Y-86765000D02*
X94216651Y-84860000D01*
X94216651Y-82780000D02*
X94216651Y-80875000D01*
X94176651Y-86727000D02*
X94176651Y-84860000D01*
X94176651Y-82780000D02*
X94176651Y-80913000D01*
X94136651Y-86687000D02*
X94136651Y-84860000D01*
X94136651Y-82780000D02*
X94136651Y-80953000D01*
X94096651Y-86646000D02*
X94096651Y-80994000D01*
X94056651Y-86604000D02*
X94056651Y-81036000D01*
X94016651Y-86561000D02*
X94016651Y-81079000D01*
X93976651Y-86517000D02*
X93976651Y-81123000D01*
X93936651Y-86471000D02*
X93936651Y-81169000D01*
X93896651Y-86424000D02*
X93896651Y-81216000D01*
X93856651Y-86376000D02*
X93856651Y-81264000D01*
X93816651Y-86325000D02*
X93816651Y-81315000D01*
X93776651Y-86274000D02*
X93776651Y-81366000D01*
X93736651Y-86220000D02*
X93736651Y-81420000D01*
X93696651Y-86165000D02*
X93696651Y-81475000D01*
X93656651Y-86107000D02*
X93656651Y-81533000D01*
X93616651Y-86048000D02*
X93616651Y-81592000D01*
X93576651Y-85986000D02*
X93576651Y-81654000D01*
X93536651Y-85922000D02*
X93536651Y-81718000D01*
X93496651Y-85854000D02*
X93496651Y-81786000D01*
X93456651Y-85784000D02*
X93456651Y-81856000D01*
X93416651Y-85710000D02*
X93416651Y-81930000D01*
X93376651Y-85633000D02*
X93376651Y-82007000D01*
X93336651Y-85551000D02*
X93336651Y-82089000D01*
X93296651Y-85465000D02*
X93296651Y-82175000D01*
X93256651Y-85372000D02*
X93256651Y-82268000D01*
X93216651Y-85273000D02*
X93216651Y-82367000D01*
X93176651Y-85166000D02*
X93176651Y-82474000D01*
X93136651Y-85049000D02*
X93136651Y-82591000D01*
X93096651Y-84918000D02*
X93096651Y-82722000D01*
X93056651Y-84768000D02*
X93056651Y-82872000D01*
X93016651Y-84588000D02*
X93016651Y-83052000D01*
X92976651Y-84353000D02*
X92976651Y-83287000D01*
X101177651Y-83820000D02*
G75*
G03*
X101177651Y-83820000I-4120000J0D01*
G01*
X148770000Y-85567500D02*
X134070000Y-85567500D01*
X148770000Y-76367500D02*
X148770000Y-85567500D01*
X139970000Y-76367500D02*
X148770000Y-76367500D01*
X134920000Y-85767500D02*
X133870000Y-85767500D01*
X134070000Y-85567500D02*
X134070000Y-82967500D01*
X134070000Y-79067500D02*
X134070000Y-76367500D01*
X134070000Y-76367500D02*
X135970000Y-76367500D01*
X133870000Y-84717500D02*
X133870000Y-85767500D01*
X125790000Y-74355000D02*
X124460000Y-74355000D01*
X125790000Y-73025000D02*
X125790000Y-74355000D01*
X125790000Y-71755000D02*
X125790000Y-69155000D01*
X125790000Y-71755000D02*
X123130000Y-71755000D01*
X125790000Y-69155000D02*
X123130000Y-69155000D01*
X123130000Y-71755000D02*
X123130000Y-69155000D01*
X99000000Y-65340000D02*
X100330000Y-65340000D01*
X99000000Y-66670000D02*
X99000000Y-65340000D01*
X99000000Y-67940000D02*
X99000000Y-70540000D01*
X99000000Y-67940000D02*
X101660000Y-67940000D01*
X99000000Y-70540000D02*
X101660000Y-70540000D01*
X101660000Y-67940000D02*
X101660000Y-70540000D01*
X128905000Y-73355000D02*
X128905000Y-72405000D01*
X127985000Y-72405000D02*
X129825000Y-72405000D01*
X129825000Y-72405000D02*
X129825000Y-68565000D01*
X127985000Y-68565000D02*
X127985000Y-72405000D01*
X129825000Y-68565000D02*
X127985000Y-68565000D01*
X128905000Y-67615000D02*
X128905000Y-68565000D01*
X131555000Y-85830000D02*
X131555000Y-84447000D01*
X131555000Y-85830000D02*
X130171000Y-85830000D01*
X131315000Y-85590000D02*
X131315000Y-75670000D01*
X131315000Y-85590000D02*
X121415000Y-85590000D01*
X131315000Y-75670000D02*
X121415000Y-75670000D01*
X128395000Y-83805000D02*
X128395000Y-82535000D01*
X128395000Y-83685000D02*
X127041667Y-83685000D01*
X128395000Y-83565000D02*
X127041667Y-83565000D01*
X128395000Y-83445000D02*
X127041667Y-83445000D01*
X128395000Y-83325000D02*
X127041667Y-83325000D01*
X128395000Y-83205000D02*
X127041667Y-83205000D01*
X128395000Y-83085000D02*
X127041667Y-83085000D01*
X128395000Y-82965000D02*
X127041667Y-82965000D01*
X128395000Y-82845000D02*
X127041667Y-82845000D01*
X128395000Y-82725000D02*
X127041667Y-82725000D01*
X128395000Y-82605000D02*
X127041667Y-82605000D01*
X128395000Y-82535000D02*
X124335000Y-82535000D01*
X128395000Y-81265000D02*
X128395000Y-79995000D01*
X128395000Y-81145000D02*
X127041667Y-81145000D01*
X128395000Y-81025000D02*
X127041667Y-81025000D01*
X128395000Y-80905000D02*
X127041667Y-80905000D01*
X128395000Y-80785000D02*
X127041667Y-80785000D01*
X128395000Y-80665000D02*
X127041667Y-80665000D01*
X128395000Y-80545000D02*
X127041667Y-80545000D01*
X128395000Y-80425000D02*
X127041667Y-80425000D01*
X128395000Y-80305000D02*
X127041667Y-80305000D01*
X128395000Y-80185000D02*
X127041667Y-80185000D01*
X128395000Y-80065000D02*
X127041667Y-80065000D01*
X128395000Y-79995000D02*
X124335000Y-79995000D01*
X128395000Y-78725000D02*
X128395000Y-77455000D01*
X128395000Y-78605000D02*
X127041667Y-78605000D01*
X128395000Y-78485000D02*
X127041667Y-78485000D01*
X128395000Y-78365000D02*
X127041667Y-78365000D01*
X128395000Y-78245000D02*
X127041667Y-78245000D01*
X128395000Y-78125000D02*
X127041667Y-78125000D01*
X128395000Y-78005000D02*
X127041667Y-78005000D01*
X128395000Y-77885000D02*
X127041667Y-77885000D01*
X128395000Y-77765000D02*
X127041667Y-77765000D01*
X128395000Y-77645000D02*
X127041667Y-77645000D01*
X128395000Y-77525000D02*
X127041667Y-77525000D01*
X128395000Y-77455000D02*
X124335000Y-77455000D01*
X127041667Y-83805000D02*
X127041667Y-82535000D01*
X127041667Y-81265000D02*
X127041667Y-79995000D01*
X127041667Y-78725000D02*
X127041667Y-77455000D01*
X124335000Y-83805000D02*
X128395000Y-83805000D01*
X124335000Y-82535000D02*
X124335000Y-83805000D01*
X124335000Y-81265000D02*
X128395000Y-81265000D01*
X124335000Y-79995000D02*
X124335000Y-81265000D01*
X124335000Y-78725000D02*
X128395000Y-78725000D01*
X124335000Y-77455000D02*
X124335000Y-78725000D01*
X121415000Y-85590000D02*
X121415000Y-75670000D01*
X134890000Y-56080000D02*
X134890000Y-56095000D01*
X134890000Y-56080000D02*
X139430000Y-56080000D01*
X134890000Y-58205000D02*
X134890000Y-58220000D01*
X134890000Y-58220000D02*
X139430000Y-58220000D01*
X139430000Y-56080000D02*
X139430000Y-56095000D01*
X139430000Y-58205000D02*
X139430000Y-58220000D01*
D14*
X92710000Y-60960000D03*
D15*
X95250000Y-60960000D03*
X97790000Y-60960000D03*
X100330000Y-60960000D03*
X102870000Y-60960000D03*
X105410000Y-60960000D03*
X107950000Y-60960000D03*
X110490000Y-60960000D03*
X113030000Y-60960000D03*
X115570000Y-60960000D03*
X118110000Y-60960000D03*
X120650000Y-60960000D03*
X120650000Y-45720000D03*
X118110000Y-45720000D03*
X115570000Y-45720000D03*
X113030000Y-45720000D03*
X110490000Y-45720000D03*
X107950000Y-45720000D03*
X105410000Y-45720000D03*
X102870000Y-45720000D03*
X100330000Y-45720000D03*
X97790000Y-45720000D03*
X95250000Y-45720000D03*
X92710000Y-45720000D03*
%LPC*%
D14*
X92710000Y-60960000D03*
D15*
X95250000Y-60960000D03*
X97790000Y-60960000D03*
X100330000Y-60960000D03*
X102870000Y-60960000D03*
X105410000Y-60960000D03*
X107950000Y-60960000D03*
X110490000Y-60960000D03*
X113030000Y-60960000D03*
X115570000Y-60960000D03*
X118110000Y-60960000D03*
X120650000Y-60960000D03*
X120650000Y-45720000D03*
X118110000Y-45720000D03*
X115570000Y-45720000D03*
X113030000Y-45720000D03*
X110490000Y-45720000D03*
X107950000Y-45720000D03*
X105410000Y-45720000D03*
X102870000Y-45720000D03*
X100330000Y-45720000D03*
X97790000Y-45720000D03*
X95250000Y-45720000D03*
X92710000Y-45720000D03*
D16*
X142240000Y-67945000D03*
D17*
X142240000Y-62865000D03*
D15*
X139660000Y-43180000D03*
X134660000Y-43180000D03*
D18*
X92710000Y-68590000D03*
D19*
X92710000Y-71130000D03*
X92710000Y-73670000D03*
X92710000Y-76210000D03*
D18*
X133350000Y-70490000D03*
D19*
X133350000Y-67950000D03*
D18*
X124460000Y-63495000D03*
D19*
X124460000Y-66035000D03*
D18*
X133350000Y-62865000D03*
D19*
X133350000Y-60325000D03*
D20*
X128905000Y-57150000D03*
D21*
X128905000Y-64770000D03*
D22*
X145415000Y-40005000D03*
D23*
X145415000Y-40005000D03*
D14*
X105420000Y-67310000D03*
D24*
X105420000Y-69850000D03*
X105420000Y-72390000D03*
X105420000Y-74930000D03*
X105420000Y-77470000D03*
X105420000Y-80010000D03*
X105420000Y-82550000D03*
X105420000Y-85090000D03*
X118120000Y-85090000D03*
X118120000Y-82550000D03*
X118120000Y-80010000D03*
X118120000Y-77470000D03*
X118120000Y-74930000D03*
X118120000Y-72390000D03*
X118120000Y-69850000D03*
X118120000Y-67310000D03*
D22*
X92075000Y-40005000D03*
D23*
X92075000Y-40005000D03*
D22*
X92075000Y-91440000D03*
D23*
X92075000Y-91440000D03*
D25*
X143320000Y-50165000D03*
D26*
X126660000Y-47625000D03*
D27*
X126660000Y-50165000D03*
X126660000Y-52705000D03*
D14*
X98957651Y-83820000D03*
D15*
X95157651Y-83820000D03*
D28*
X134970000Y-80967500D03*
D29*
X140970000Y-80967500D03*
D30*
X137970000Y-76267500D03*
D22*
X145415000Y-91440000D03*
D23*
X145415000Y-91440000D03*
D18*
X124460000Y-73025000D03*
D19*
X124460000Y-70485000D03*
D18*
X100330000Y-66670000D03*
D19*
X100330000Y-69210000D03*
D20*
X128905000Y-74295000D03*
D21*
X128905000Y-66675000D03*
D14*
X130175000Y-83170000D03*
D24*
X130175000Y-80630000D03*
X130175000Y-78090000D03*
X122555000Y-78090000D03*
X122555000Y-80630000D03*
X122555000Y-83170000D03*
D15*
X134660000Y-57150000D03*
X139660000Y-57150000D03*
M02*
